<mxfile host="app.diagrams.net" modified="2023-02-21T00:49:39.047Z" agent="5.0 (Macintosh; Intel Mac OS X 10_15_7) AppleWebKit/537.36 (KHTML, like Gecko) Chrome/110.0.0.0 Safari/537.36" etag="2ww_ApZj07FtZs-pAvTh" version="20.8.20" type="github">
  <diagram name="第 1 页" id="dFxz0UqyIWM8XaWm6mW5">
    <mxGraphModel dx="851" dy="568" grid="1" gridSize="10" guides="1" tooltips="1" connect="1" arrows="1" fold="1" page="1" pageScale="1" pageWidth="827" pageHeight="1169" math="0" shadow="0">
      <root>
        <mxCell id="0" />
        <mxCell id="1" parent="0" />
        <mxCell id="XgqLP4rqvhBCR10PbByP-1" value="&lt;pre style=&quot;background-color:#263238;color:#c3cee3;font-family:&#39;Menlo&#39;,monospace;font-size:9.0pt;&quot;&gt;&lt;span style=&quot;color:#89ddff;&quot;&gt;&amp;lt;&lt;/span&gt;&lt;span style=&quot;color:#f07178;&quot;&gt;div &lt;/span&gt;&lt;span style=&quot;color:#ffcb6b;font-style:italic;&quot;&gt;id&lt;/span&gt;&lt;span style=&quot;color:#c3e88d;&quot;&gt;=&quot;app&quot;&lt;/span&gt;&lt;span style=&quot;color:#89ddff;&quot;&gt;&amp;gt;&lt;br&gt;&lt;/span&gt;&lt;span style=&quot;color:#89ddff;&quot;&gt;  &amp;lt;&lt;/span&gt;&lt;span style=&quot;color:#f07178;&quot;&gt;div &lt;/span&gt;&lt;span style=&quot;color:#ffcb6b;font-style:italic;&quot;&gt;@click&lt;/span&gt;&lt;span style=&quot;color:#c3e88d;&quot;&gt;=&quot;clickHandler&quot;&lt;/span&gt;&lt;span style=&quot;color:#89ddff;&quot;&gt;&amp;gt;&lt;br&gt;&lt;/span&gt;&lt;span style=&quot;color:#89ddff;&quot;&gt;    &lt;/span&gt;before&lt;br&gt;    &lt;span style=&quot;color:#89ddff;&quot;&gt;&amp;lt;&lt;/span&gt;&lt;span style=&quot;color:#f07178;&quot;&gt;span &lt;/span&gt;&lt;span style=&quot;color:#ffcb6b;font-style:italic;&quot;&gt;v-if&lt;/span&gt;&lt;span style=&quot;color:#c3e88d;&quot;&gt;=&quot;showSpan&quot;&lt;/span&gt;&lt;span style=&quot;color:#89ddff;&quot;&gt;&amp;gt;&lt;/span&gt;span tag&lt;span style=&quot;color:#89ddff;&quot;&gt;&amp;lt;/&lt;/span&gt;&lt;span style=&quot;color:#f07178;&quot;&gt;span&lt;/span&gt;&lt;span style=&quot;color:#89ddff;&quot;&gt;&amp;gt;&lt;br&gt;&lt;/span&gt;&lt;span style=&quot;color:#89ddff;&quot;&gt;    &amp;lt;&lt;/span&gt;&lt;span style=&quot;color:#f07178;&quot;&gt;div &lt;/span&gt;&lt;span style=&quot;color:#ffcb6b;font-style:italic;&quot;&gt;v-for&lt;/span&gt;&lt;span style=&quot;color:#c3e88d;&quot;&gt;=&quot;&lt;/span&gt;&lt;span style=&quot;color:#eeffe3;&quot;&gt;item&lt;/span&gt;&lt;span style=&quot;color:#c3e88d;&quot;&gt; in &lt;/span&gt;&lt;span style=&quot;color:#eeffff;&quot;&gt;items&lt;/span&gt;&lt;span style=&quot;color:#c3e88d;&quot;&gt;&quot;&lt;/span&gt;&lt;span style=&quot;color:#89ddff;&quot;&gt;&amp;gt;&lt;br&gt;&lt;/span&gt;&lt;span style=&quot;color:#89ddff;&quot;&gt;      &amp;lt;&lt;/span&gt;&lt;span style=&quot;color:#f07178;&quot;&gt;span&lt;/span&gt;&lt;span style=&quot;color:#89ddff;&quot;&gt;&amp;gt; &lt;/span&gt;{{ item }}&lt;span style=&quot;color:#89ddff;&quot;&gt;&amp;lt;/&lt;/span&gt;&lt;span style=&quot;color:#f07178;&quot;&gt;span&lt;/span&gt;&lt;span style=&quot;color:#89ddff;&quot;&gt;&amp;gt;&lt;br&gt;&lt;/span&gt;&lt;span style=&quot;color:#89ddff;&quot;&gt;    &amp;lt;/&lt;/span&gt;&lt;span style=&quot;color:#f07178;&quot;&gt;div&lt;/span&gt;&lt;span style=&quot;color:#89ddff;&quot;&gt;&amp;gt;&lt;br&gt;&lt;/span&gt;&lt;span style=&quot;color:#89ddff;&quot;&gt;  &amp;lt;/&lt;/span&gt;&lt;span style=&quot;color:#f07178;&quot;&gt;div&lt;/span&gt;&lt;span style=&quot;color:#89ddff;&quot;&gt;&amp;gt;&lt;br&gt;&lt;/span&gt;&lt;span style=&quot;color:#89ddff;&quot;&gt;&amp;lt;/&lt;/span&gt;&lt;span style=&quot;color:#f07178;&quot;&gt;div&lt;/span&gt;&lt;span style=&quot;color:#89ddff;&quot;&gt;&amp;gt;&lt;/span&gt;&lt;/pre&gt;" style="text;whiteSpace=wrap;html=1;" vertex="1" parent="1">
          <mxGeometry x="130" y="200" width="330" height="180" as="geometry" />
        </mxCell>
        <mxCell id="XgqLP4rqvhBCR10PbByP-10" value="&lt;b&gt;&lt;span style=&quot;background-color: rgb(255, 0, 128);&quot;&gt;&amp;lt;&lt;/span&gt;div&lt;/b&gt; &lt;span style=&quot;background-color: rgb(213, 232, 212);&quot;&gt;id=&quot;app&quot; class=&#39;container&#39;&lt;/span&gt;&lt;span style=&quot;background-color: rgb(255, 217, 102);&quot;&gt;&amp;gt;&lt;/span&gt;\n&amp;nbsp; &amp;lt;div @click=&quot;clickHandler&quot;&amp;gt;\n&amp;nbsp; &amp;nbsp; before\n&amp;nbsp; &amp;nbsp; &amp;lt;span v-if=&quot;showSpan&quot;&amp;gt;span tag&amp;lt;/span&amp;gt;\n&amp;nbsp; &amp;nbsp; &amp;lt;div v-for=&quot;item in items&quot;&amp;gt;\n&amp;nbsp; &amp;nbsp; &amp;nbsp; &amp;lt;span&amp;gt; {{ item }}&amp;lt;/span&amp;gt;\n&amp;nbsp; &amp;nbsp; &amp;lt;/div&amp;gt;\n&amp;nbsp; &amp;lt;/div&amp;gt;\n&amp;lt;/div&amp;gt;" style="text;html=1;strokeColor=none;fillColor=none;align=center;verticalAlign=middle;whiteSpace=wrap;rounded=0;fontColor=default;" vertex="1" parent="1">
          <mxGeometry x="90" y="490" width="1140" height="100" as="geometry" />
        </mxCell>
        <mxCell id="XgqLP4rqvhBCR10PbByP-12" value="" style="shape=image;verticalLabelPosition=bottom;labelBackgroundColor=default;verticalAlign=top;aspect=fixed;imageAspect=0;image=data:image/png,iVBORw0KGgoAAAANSUhEUgAABIQAAADSCAYAAAA7ShvPAAAEDmlDQ1BrQ0dDb2xvclNwYWNlR2VuZXJpY1JHQgAAOI2NVV1oHFUUPpu5syskzoPUpqaSDv41lLRsUtGE2uj+ZbNt3CyTbLRBkMns3Z1pJjPj/KRpKT4UQRDBqOCT4P9bwSchaqvtiy2itFCiBIMo+ND6R6HSFwnruTOzu5O4a73L3PnmnO9+595z7t4LkLgsW5beJQIsGq4t5dPis8fmxMQ6dMF90A190C0rjpUqlSYBG+PCv9rt7yDG3tf2t/f/Z+uuUEcBiN2F2Kw4yiLiZQD+FcWyXYAEQfvICddi+AnEO2ycIOISw7UAVxieD/Cyz5mRMohfRSwoqoz+xNuIB+cj9loEB3Pw2448NaitKSLLRck2q5pOI9O9g/t/tkXda8Tbg0+PszB9FN8DuPaXKnKW4YcQn1Xk3HSIry5ps8UQ/2W5aQnxIwBdu7yFcgrxPsRjVXu8HOh0qao30cArp9SZZxDfg3h1wTzKxu5E/LUxX5wKdX5SnAzmDx4A4OIqLbB69yMesE1pKojLjVdoNsfyiPi45hZmAn3uLWdpOtfQOaVmikEs7ovj8hFWpz7EV6mel0L9Xy23FMYlPYZenAx0yDB1/PX6dledmQjikjkXCxqMJS9WtfFCyH9XtSekEF+2dH+P4tzITduTygGfv58a5VCTH5PtXD7EFZiNyUDBhHnsFTBgE0SQIA9pfFtgo6cKGuhooeilaKH41eDs38Ip+f4At1Rq/sjr6NEwQqb/I/DQqsLvaFUjvAx+eWirddAJZnAj1DFJL0mSg/gcIpPkMBkhoyCSJ8lTZIxk0TpKDjXHliJzZPO50dR5ASNSnzeLvIvod0HG/mdkmOC0z8VKnzcQ2M/Yz2vKldduXjp9bleLu0ZWn7vWc+l0JGcaai10yNrUnXLP/8Jf59ewX+c3Wgz+B34Df+vbVrc16zTMVgp9um9bxEfzPU5kPqUtVWxhs6OiWTVW+gIfywB9uXi7CGcGW/zk98k/kmvJ95IfJn/j3uQ+4c5zn3Kfcd+AyF3gLnJfcl9xH3OfR2rUee80a+6vo7EK5mmXUdyfQlrYLTwoZIU9wsPCZEtP6BWGhAlhL3p2N6sTjRdduwbHsG9kq32sgBepc+xurLPW4T9URpYGJ3ym4+8zA05u44QjST8ZIoVtu3qE7fWmdn5LPdqvgcZz8Ww8BWJ8X3w0PhQ/wnCDGd+LvlHs8dRy6bLLDuKMaZ20tZrqisPJ5ONiCq8yKhYM5cCgKOu66Lsc0aYOtZdo5QCwezI4wm9J/v0X23mlZXOfBjj8Jzv3WrY5D+CsA9D7aMs2gGfjve8ArD6mePZSeCfEYt8CONWDw8FXTxrPqx/r9Vt4biXeANh8vV7/+/16ffMD1N8AuKD/A/8leAvFY9bLAAAAbGVYSWZNTQAqAAAACAAEARoABQAAAAEAAAA+ARsABQAAAAEAAABGASgAAwAAAAEAAgAAh2kABAAAAAEAAABOAAAAAAAAAJAAAAABAAAAkAAAAAEAAqACAAQAAAABAAAEhKADAAQAAAABAAAA0gAAAAAY14ETAAAACXBIWXMAABYlAAAWJQFJUiTwAABAAElEQVR4AeydB5zUxBfH33H03pv03qVKkyLSLKAoiKA0u6j8RQQLdqRIVxABkaYICCK9i1RFQXqT3qtI79zdf345ZnaSze5m9/aO3bv3Ph/IZFom383mNi+vRMQIIRYmwASYABNgAkyACTABJsAEmAATYAJMgAkwgSRDIFmSOVM+USbABJgAE2ACTIAJMAEmwASYABNgAkyACTABgwArhPhCYAJMgAkwASbABJgAE2ACTIAJMAEmwASYQBIjwAqhJPaB8+kyASbABJgAE2ACTIAJMAEmwASYABNgAkyAFUJ8DTABJsAEmAATYAJMgAkwASbABJgAE2ACTCCJEWCFUBL7wPl0mQATYAJMgAkwASbABJgAE2ACTIAJMAEmwAohvgaYABNgAkyACTABJsAEmAATYAJMgAkwASaQxAiwQiiJfeB8ukyACTABJsAEmAATYAJMgAkwASbABJgAE0jOCJIegeMnTlJMdDQlT5GccuXMmfQA8BkzASbABJgAE2ACTIAJMAEmwASYABNI4gQiYoQkcQZJ6vQvXb5MlWvUV+e8Z9t6VeYCE2ACTIAJMAEmwASYABNgAkyACTABJpA0CLCFUAJ/zkt+XU6XLl0yjvpQk4aUJk2aBF5B0jjcseMn6M+/YpVdBQsWoCqV7g3oxIM1T0AH50FMgAkwASbABJgAE2ACTIAJMAEmwATiiUBQFEIHDx6kQoUKxdMSE9e0fQcMoSNHjxknValiBSpcqGDiOsEQOZuNm7fSOx98aqzm8WYPB6wQCtY8IYKFl8EEmAATYAJMgAkwASbABJgAE2ACTMAgEOeg0itWrKCJEycStixMgAkwASbABJgAE2ACTIAJMAEmwASYABNgAqFPIE4KISiBpCJIL4f+afMKmQATYAJMgAkwASbABJgAE2ACTIAJMAEmkHQJxEkhBFcxXUJRKXTh4kW6du2avkyjfPnyFUKbP3Lt+nVChi5sQ02uXLlKp06fpqioqDgt7fTpM3Tjxs04zRHXwdEiA9p/587RmTP/UmKPeR4lzhXMz5077xc2fM74vP89+1+cP3O/DsydmQATYAJMgAkwASbABJgAE2ACTCBREIhzlrEJEybQoUOHTDDq1atH+JfQMv2X2TR3/iLjsJ3aP0PDR35Lm0QsGUid2jXpi96f0GWRZev9jz+n9X9vNOqLFS1CQwb0plIlihv7+n8HDx2mVWvW0q+/raBNW7YSlC5SChcqQKVLlqRGDR+gRx9qLKtN2/0HDtJnfQaY6tb88afar1CuDGXIkEHty8K73d+0XY9sxxYKgSnTZtDK1X/Qjp276OSp06oZa3vy8eb0ZIvmlD1bVlWPgl2WsbUi+PIvs+fRipVr6Ox//xn9weO1V16gpo0fNI2Pjx0o2P5at4FWrFpNy8UaZIwlHCtdurRUulRJKl+2NL3YqT3lyJHddglDhn1Dm7dsU23HT5ygAwcPG/uYo2KF8qpNFjDvO926yF1jG6x59EnXb9hEw7/51qiqVeM+eun5DrRl63b65tuxtHSZ2dWydcsW9OJz7alggfz6FEYZn8347yfTTPFZ6Z83GnPnykmNHqwv/j1ANatXcxvLFUyACTABJsAEmAATYAJMgAkwASbABHQCcVYIYTI7y6CCBQtShw4d9GPFe7n/4K/o27ETPR6nbJlSdPHiJZPCAZ2hMPhjxWJKkzq1Gnv79m0qXbGG2vdWaPXEY/RRzx6UOlUqU7cNm7ZQ62efM9U52ZkwZgRBceBJDhw8RD16fqKUXZ764bw2/bnS1GxVCE387htq//yrpj76znvdu9JzHZ7Rq4Je/nrkGBo6fKTPebNlzUrDh3xBVatUcuvb8cXXSFe2uXWwqUDmsSnff2dqCdY8+qTzFi6mN99+36iC8rChUNzIfb2fLHdq35be7/GW3DW2UHa1bNvRVGe3Y/eZ2/XjOibABJgAE2ACTIAJMAEmwASYABNI2gSCkmVMWgPJeEJACqshWA8ltFJI/zifbvUE3bx1i2bMnGNUb9+xy9hCEVClckWaNGWaYfUDy5+NG7dQrZqelTBQJhUrUoTy5csr0sZfpi3btiuFzLQZs+j0mTM05puv9MNTtqxZ6OEmjUx18xctUfu1a1anTBkzqn1ZyOnBCgbthw4focaPPim7GltY85QX1kaZMmWiPXv3EixScE66RZNpgLYjlUFyjgsXLtLiX39TPZAVreUTzSmjjSWT6hTEApQ+5cqWEhYyBSh9+nR0XKSPX7JsuXEusJBp0+FFmvrDWKosMrTpAqsYneWhI0dIft6Ys3q1Knp3o1y8WBG3umDN4zbxnYq9+w7Q3AWLVTMUOOXKlBaWWedo7779ql4v3BLX8MuvmxVEyJyGDHW3hOLyoFAQ4jO3Wg3pc3CZCTABJsAEmAATYAJMgAkwASbABJiATiAoCiFMGGpKIVjt9Po41irjypUrtGjJMuO8oRyYMOYbSpUqJZUsXoy6vfuhUf/n+r9NCqGIiAih0MlKbZ9uSU89+bjhkmN01P5bsGgpden2rlGzYtXvtGv3HpOrF9x+vhzUVxtBtHX7DmWh9LGwKvI37Xyf/kNM8301qB891KShqQ4uWHBRGv3dBFO9p50P3u1GHZ5to5q37dhJLZ5qp/bhhte2dUu1H+xC8uTJDZe+9s+0NraRkZGmQ5w/f4Fe/d/bys1v7IQfhEKov6nPyy90NO1D6dK1e+znX6d2DRrQ9zNTu6edYM3jaX5cIxC49Q364nPhCldGdb146ZJh4ZYqZUpVh8Kf6/5WrnxQIM2e/iMVyJ/P1AcuhCtWraFly1eZ6nmHCTABJsAEmAATYAJMgAkwASbABJiAHYFkdpWB1tnFDpKWQtYA1IEew+m4+zSLkKrCGkgKLEWgDIJUKF9WVhuBfdWOKEApsXblYurS+SVbZRD6QhGjK2OWr1itTxH0MpROy5a7XMAmfDvCdHx5QLi+de/6Bq1YMldWedw2adTApAxCR1istGv7lBqzb/8BVY6PApQwY0cNo/p17ze4W4+ROXMmgvJMCpR7cQ2eLee6G9v8+e6hmT/9YFIGYR2wwur2v9fo9VdfNC1Ltxy6v1YNN2UQOuN6bVC/Ln3+SU/TWN5hAkyACTABJsAEmAATYAJMgAkwASZgRyCoCiEcwJNSaOLEicK15aDdGuKlLmd2V/Dh7NmyqWPkyZNLlbNkyazKiK0TiFS61+W6dOLkqUCmcDwGwa2lII6ONxc39MubJ7fs7nHbrm1r2za41Ek5edIVsFrWJfS2RLGipkP+e/asaT+cdt7q0pnSpk3reMlp0qRRfVf/vjYks9ypBXKBCTABJsAEmAATYAJMgAkwASbABMKCQNBcxkLtbFOlTqWWlPKORRAq9IfrlJprDoJNexIEcf5742Y6KRQ+SDsP1x4phw4dkUW6Hs/p6JG1TErLx5vJYpy2hQsWsB2fQ1Ooycxjth2DWIlYOciaduToUYJyDYqoqOgo2yNcv37Dtj4cKnWrMifrLVqksOqGuFCvvtGNkEWvcqUKlCF9etXGBSbABJgAE2ACTIAJMAEmwASYABNgAk4JBF0hZJdxDItp3749FSpUyOm64txPuoVholQpXcohPT5LyhQp1HEQd8cqUMAg+xViBTmR6OhoJ90C7oPYPlLy5s0ji3HaZsvusp7SJ9I5Xb8Rv8oXcJs0ZToh25hT5VN8s9ZZBLOM2EHWGEm+5kcQdLg6IpYQBNnUZEY1BDuvWKE81atTi2qKzHTWTHe+5uZ2JsAEmAATYAJMgAkwASbABJgAE0iaBIKqELJTBt2N9PP4KJNFuLzhIiNd5WTJXGUEjvYkUEy07fCSm4ICD/S5c+UiBEKGHD12jA4cPGyUkao+vgQKKz1rmLdMZP6sIVLj4c+4YPYdMGQ4jRk30TQlAnrfkze3kTlNNqxa84cshm0MIWRP81dwnQ4f0p8+6tXXTTmJTGr4h4x5YDZy2CCqeG95fw/B/ZkAE2ACTIAJMAEmwASYABNgAkwgiREImkIolJRBwfgMP/q0r1IGIbPT5598QI0frE+6mxmOM+WnGfThZ32CcUivc1gtPy54cXHzOlGINSLrlq4MQjr1zi8/T3bZ1ypWr2tSioXYqThaTnpxLQUiCKyNjHJH3zpOS5ctp42bttKK1WtMPKDEbPVMJ/p9+SLK4cHyK5Bj8xgmwASYABNgAkyACTABJsAEmAATSHwEgqIQSmzKILgjLf71N/Vpj/nmK9IzlakGUTgs4t0khMBKBO5BsAaBIJZR5YqugNYJsQZPx4D10vbtLnc22a90qZIEZZo3Wbj4V9Vcp3ZN6tf7E7KzWrpw8aJJ+aEGJbFCvnvyUsd2bcU/IlynO3ftptHfTaD5i5YoElOnzXDLVKYaucAEmAATYAJMgAkwASbABJgAE2ACTEAQiLNCaMKECYTU8rrYZRrT20O9fPTYcbVEKDQ8KYPQacvW7aqvk0Ly5JGq242bN1XZSaF40SJKIbRGZJt69KHGTobFex+kpW/TwZwqHQf9YdwoI/aNtwUcOOC6dho/+ICtMgjjd+/e620atzZdqeQvZ32yYM2jzxmsMtwfoST8clBfkbUsDU3/ZbYx9e69+4J1CJ6HCTABJsAEmAATYAJMgAkwASbABBIpAVdAnQBOMDEqg4AhKso+s5UV0YZNW1SgX2ubp33EH5Jy6tQZWXS0rSyCC0vBwz+yn4W7pNACe9+O8hyD6etR3/l1qjlyZFf9Dx8J3IorWPOoxcRTQb82rl69Gk9H4WmZABNgAkyACTABJsAEmAATYAJMILEQiJNCqFChQiYO4W4ZJE8mf757ZNFwU7LLMnZMWBH1/Phz1c9pAS4/Un6cOt2x8gljWrZoTghqLaVrj57kSdnx98bN9HS752XXkN2WKF5UrW3qtF/opsVqKiYmhsZN/FFl1VKdfRTy5MqpesDNbtPmrWrfn0Kw5vHnmNa+uP5wrcBtzk4QzHzGrLmqqZiwJGNhAkyACTABJsAEmAATYAJMgAkwASbgjUCcXMagAIIghlBiUQbhfJBBrEH9urRs+UrsUpdu79Kru56jWjXvMxQWO3b+QyPHjAsopk39evfTtBmzjHkx/6NPtKE6tWsYGaJk1rNmjzSlPLldlkRGZ/EfrGk+6fkudXixs1EFRUfzlm2pXdvWVKpkccqUMSMdPHSYYLk0Z95COSyktzVrVFPrQ4Dpp559jl5+viPlEgqdQ4ePEGIMyc9BdXRQyJ0nN5UqUZwwJwTBlsG1cMEClCpVKqMub948Pt3ugjWPccAA/8M5jBAWUh/36kdPPN6M7i1flgqJbGVwEzt05AhN/GEKbdm2Q83+SIi4EqoFcYEJMAEmwASYABNgAkyACTABJsAEQo5AnBRCOBsogpBa3motFHJn6ueCPv3wXeEOtl4pfb75dizhny65hdKiTeuWNOSrEXq113KjBvWpds3qyuJl7779hH+6lCtb2lYhhD5QSvXt9RG99+FnxhCkoh/57Th9eFiVy5ctQy90aq8yjUHJBQWcVbp0fol+mT2Pjhw9Zm2y3Ufsn57vdqN2z72i2q1KsirCBc9XHKZgzaMWEcfCjJlzCP88Sdc3XiUwZWECTIAJMAEmwASYABNgAkyACTABJuCNQDJvjU7bQkUZFBnpCticLNJ1askiXGW9j35+sArSBcqeX6Z+byhv9HpZrlqlEk2ZOIaKFi4kqwzLIrXjoQAroO9GDaOB/T4TlkE1TS5gcoh1LbJebuE6tmLJXIIVkyeBsmP4kP5uzXqQZLdGrSJSC36tx/nRuqhico27qhQFT6z1Pii//eZr9HHPHrYZybJlzUo93upCbwiFkB6Q28ncNe6rSnN+/pHaPPUk6W6A8vi+OMt+cZ0neaTr2nJ6THlsbHGdwLrJW8a2CuXK0LcjhlLnl0PfTVA/Ny4zASbABJgAE2ACTIAJMAEmwASYwN0hECFitMTcnUOHz1GRdQyuWGf+PUtFixQWrkjFKGXKlCFxAgiADauZ/QcO0sVLlymvcJWC8sPO5SwkFuxlEQiGvF8Eyj546AilSZ2aypUtRblyumIBeRmaJJqiRJr5Q+I6PHX6DJ09+5+Rdh6fNz5ruL9Jl8MkAYNPkgkwASbABJgAE2ACTIAJMAEmwATiRIAVQnHCx4OZABNgAkyACTABJsAEmAATYAJMgAkwASYQfgRcvlTht3ZeMRNgAkyACTABJsAEmAATYAJMgAkwASbABJhAAARYIRQANB7CBJgAE2ACTIAJMAEmwASYABNgAkyACTCBcCbACqFw/vR47UyACTABJsAEmAATYAJMgAkwASbABJgAEwiAACuEAoDGQ5gAE2ACTIAJMAEmwASYABNgAkyACTABJhDOBFghFM6fHq+dCTABJsAEmAATYAJMgAkwASbABJgAE2ACARBghVAA0HgIE2ACTIAJMAEmwASYABNgAkyACTABJsAEwpkAK4TC+dPjtTMBJsAEmAATYAJMgAkwASbABJgAE2ACTCAAAqwQCgAaD2ECTIAJMAEmwASYABNgAkyACTABJsAEmEA4E2CFUDh/erx2JsAEmAATYAJMgAkwASbABJgAE2ACTIAJBECAFUIBQOMhTIAJMAEmwASYABNgAkyACTABJsAEmAATCGcCrBAK50+P184EmAATYAJMgAkwASbABJgAE2ACTIAJMIEACLBCKABoPIQJMAEmwASYABNgAkyACTABJsAEmAATYALhTIAVQuH86fHamQATYAJMgAkwASbABJgAE2ACTIAJMAEmEAABVggFAI2HMAEmwASYABNgAkyACTABJsAEmAATYAJMIJwJsEIonD89XjsTYAJMgAkwASbABJgAE2ACTIAJMAEmwAQCIMAKoQCg8RAmwASYABNgAkyACTABJsAEmAATYAJMgAmEMwFWCIXzp8drZwJMgAkwASbABJgAE2ACTIAJMAEmwASYQAAEWCEUADQewgSYABNgAkyACTABJsAEmAATYAJMgAkwgXAmwAqhcP70eO1MgAkwASbABJgAE2ACTIAJMAEmwASYABMIgAArhAKAxkOYABNgAkyACTABJsAEmAATYAJMgAkwASYQzgRYIRTOnx6vnQkwASbABJgAE2ACTIAJMAEmwASYABNgAgEQSB7AGB7CBJgAE2ACTIAJMAGDwOy1t2jpxlu0/VAUXbwaExCVjGkjqGzBSGpYKQU1r5EioDl4EBNgAkyACTABJsAEmIB/BCJihPg3hHszASbABJgAE2ACSZ3AP0ejqO/U64YiKJgsoBh6r3VqKpkvMpjT8lxMgAkwASbABJgAE2ACFgKsELIAia/dc+fO0c2btyhlyhSUJUuW+DqM27xRUVH0779njfqMGTNQmjRp3PpwBRPwl8DNmzfp3LnzxrAsWTKL6zqlv1ME3P/69et04cJFY3y2bFkpeXI2dAwYJg9UBC5fvkxXrlw19nPmzEERERGqLb4LZ8+epdu3oyh16lSUKVOm+D5cUOaHMqjz8Kt+WwQVzZOM0qeJZbvzSBSJP4u2AouhEa+nZaWQLR2uZAJMgAkwASbABJhAcAjEi0LozJkzlCNHjuCsMBHMsnHjJnr4kUeNM2ncqBFNmDDO51kdPXqUduzcSceOHqNjx46Lh95IKly4MJUsWZIqVrzX53jZYf+BA1S7dh1j99lnn6EB/b+QTYlie+vWbfrnn13qXCIjk1Pp0qXUPheCTyA6OppeePElWrBgoTH5wgXz6d57Kzg+0PHjx2nrtm10+NBhOnrsGKVPn55y58pFlSpVpLJly/p8EJ8ydSp17drNON6IEcOpxeOPOz52OHS8cOECHTlyRC0VCoL8+fOrfS4En8D58+epwYON6MSJE5Q9e3Za+8caSpcunaMD3b59mzZs2ECHxPV88NAhgmIJ13OBAgWoTp06BEW8LylfoaJQ3P9LBQsWoD9+X+PzO+BrvoRo7zjoSkCWQX8MyUjiz5khH31/jRas86AREj1gKTS+m7PPISHOmY/BBJgAE2ACTIAJMIHERiDor9ZXrlxJUAjVrVuXlULiasGP/PYdOhrXDR58+/Xr4/EawkPJL7/MpF9mzqJ169Z57NegwQP06ScfU7FixTz2kQ1FhBIpT548xoPOTDFvn96fU4oUoRGfAQqFuXPnyqWqbbLISBo8aKCjdU6bPo26deuuxqJw4vhR0z7vBJfAiG9GKmXQ6691dqwM2rdvHw0b/jVNnfqTxwVVqVKZ5s6Z7bEdDTVr1FTts2fNSXQKoZ4ffEg//zxDnWPTJk1o3Ljv1D4XgksAVpSvvf6GcY/EzEMGD3KkDLp16xbNmPELDRk61FAGeVrVpB++J9yzvUmjhg1p8pQpxjzbhLK0fPny3rp7bIMl6gfi+rGT1k+3prpCQRUMQcwgxAvyV3JkilDKIIxdu/O21ylwDByLYwp5xcSNTIAJMAEmwASYABMImEDQFEJQAkEZJGWnsG5J6lZCeHP8aufXDKUQuHzRr6+hnJGMrNspU6bSp5/1sla77S9b9htt2bKVli5ZTLly5XRrt1Y81LQpjR03znhz/fvvv1O9evWsXe7KPpRBM4QCzCpQnA376ktrtds+HsgGDhzsVg8Li3Bxu3BbfIhXrFq9mnr3jlVqlihRgt5+O9ZSx9eyFy5aRJ06Pe+rG6VKlcpnH1hRFClShPbv30+Y9+LFi8IKI6PPceHQYc+ePSZlENZ8+PDhcFh62K7xyy+/ItxTIc8805YaNnzQ57lcuXKFOnZ6jlavXuOzrxM33QceqG8ohDDZfKEoD1QhBMs7u3sq5n3s8cewCYoggHQgcn9Z18uIW0KfdO6y7xCGOBYrhAKhzWOYABNgAkyACTABJuCbQFAUQlZlEA6LOvxLykqhL77orx4YmjV7lJ54ooXXT2Tz5i2qHQ8E9erWoVKlSlEOEc/ir7/W0YL5Cww3MnSC5dF7779PY78bo8Z4KtSvX89QCKF9ztx5IaMQ+lu4WUiBZYh8cCpXrpys9rqdNn26equvdzx58hQrhHQgQSofE+5dzz33gprt6+FfOVLgzJkzl156+RU1Dgo/fBfgZpYvXz5h0XXCuL5/nDyZKlSooPp5KzRt2oRGjPjG6LJ06a8+v1ve5gqlti+/Gua2nMOa+5hbI1fEiQCunQEDBxlzwJLy44/srWv0g1y8eImebdfeZMVZq1ZNur92bcK9Kyo6ig7sP0BThCXc7t27Hbmw3n9/bXWIX375hXp0fzsgt7GbN26SnAvutH/++aeat0zp0qoc10Ig1kE45uXrMbTvRLRxeMQgciKBHsvJ3NyHCTABJsAEmAATYAJJnUCcYwjZKYMAtbT48VmmTJkky3fDho30yKPNjPPHAzBiUmTLls0rj9r31xUPFGXphReep2pVq9r2hXsUHpylHDt6mJIlSyZ3bbeIaVG8RGxcHaxlx/atjtyxbCcLUiWseEqVLqtmO7B/rwiomlrt+yrAOqh6jVpKIQRrFTx8QaZMnhQySi9f5xFO7e3adyA8QEO6C8ugt97q6nP5Bw4epFq17lf9qlWrRqNHfUO5c+dWdbKAe8nVq9eMOCqyztN25apV1Lp1G6M5sbhU7d27l+rUrW+cE76nGTJkUNf3vr27KW3atJ5wcH0ABHBfrFS5qmE5ieE/C/dTKHZ8ifUePHBAf8OyyDoOCTzxdwDKbifS/LEWSsm0eNGCgK2E5LGs19Puf3YGpGSS8+nbal1ig7rrdfFZXvdV4rAAjE9GPDcTYAJMgAkwASbABAIh4F2T4GPGHTt2mNzEZPekrgwCh896fS5x0JtvdvGpDELnpUsW0aiR33hUBqEPAkPrAqsNX4KHS7z9huAhaL94e323ZdcuVyBovLn2RxmEtU//+Wf1sAwlQ+unWqlTgoVQMASuSAgyC9e/uMi1a9dEYPBjhOxYTgWBm2EFdvLkyTgf3+kxvfX7/fc/lDII19NLL73orbtq++ijj1UZAdVn/DzNVhmETrAmhDuYEykqXMakrF7j221H9g3lrW4d9PLLL5ksS06dPh3npUNBAaXb6dNnCOVAJdB55PcA36tQkNGjv1XKIFhROlEGIUGArpCfPXumrTII54csZU6VQehfsmQJbAzZtGmzLAa83S7+PkupWrVK0JRBck7eMgEmwASYABNgAkyACYQ/gYBdxqAMQpwgq3AwaaHYEVYU0lQfD8/t27WzYrLdly5Tto13KpGeWBdkxHEiyHgD5QYEygn94cPJ+GD30R9WKlWu5Nf0sA4aMCDWzQMDu7zxOulckMXKieDBuEuX/xldM2XOZCjjYNHy3ZjvaOpP09TDIjrgYbGncNGr7GGtr7/Rhf49868x15Ahgwxrjonf/yCCAY9X3NGI2Ddvv/2WWyBkBBRfvXoN/fbbclojsgwhY5EuUJR07NCB2rV71jbg7aLFi2nc2PHGELhTdezYQR/uVl68ZIlwNxxn1EeKlD/jRYypFCnsbwdQTvX63KXgfEPwxnXtSxCXRVoUoW/v3r2CliJev+6h5Lx06ZJhUeNrTaHaDmuO6dN/Vsvr2KE9IdOglJMnTlLhQoXkrsctLKdGfB3rSnd/nfsJQb//+GMtfTtmjAoELge3bv0UvdOju1IWy3ps4zoPrhn8jVi+YqVxDWzfvt30fcL1AxerLl3eMLLL6ceW5SFDhor76F/GbrduXQmKX2+i94fr1gcfvO+x+6lTp5WrGDq91fVNj331hvd79lS7Lzz/nFflverosJBHs5rTs8w5HO7WbdvWbaquYsWKqpxQhXrlk9NHz6SxPVy00Ec+8uEluhk3Xbvt3FzJBJgAE2ACTIAJMAEm4JyA/ROgj/GBKIOQYQiBfvUHOR+HCctmWJP0+ry3WvtrnV8N6oPqfBFHSArcpJwokdBff9hwYlUkjxFfWwTFllLBz4w6P8+YoZQsYIAMPjIoLOY8fkfxJef3tMVD6oo7gdArVryX5s2bb6RTt+sPCxkEn50wIVaJoveBMkLPCoVU6m8IBZFVqYMxCITcufPr9Fjz5iZXvyefbKXiQ+lzyzLmQsDx73+YJGJJzXNLZZ0sIpk6l1u3b3lVCMFS6d1331cMYe3jSRmE44OLtFjAgzyUFU5Et6To2fN9I16Qk3FO+iD4NNYCZRDkuIhDVLJkBidDQ7KPbh0ERQPuk9mzuZS9J0+ddLTuNUKpKK9pKEX69u1HXw0bbjsW2d5gnWdn7RXXeZb++it16NDJ9rioxOeGgOD4N6D/F26Wj0YfEbhZnkuNGtW9KoR27fqH+g8YqI7XsaP3a3Tol1+qvlD2+lI2ofMO8QJE/x44DaiuDuSjkDOnK0HAoSAEEt+qKYTKlXW55/pYRtCa61dIQRnTRtjOFyXCCLEyyBYNVzIBJsAEmAATYAJMIEEJ+K0QslMGwdUDbmJ2AaRhzYHsY7CAgCBobPHixePtJHt++Clt3bY9zvO3ad2K2jztckNyOuHChYtULBuM6dSpo9OhPvutXfunykSDznWFBYBTyZU7l+oajLfParIAC+vWrVcjS5dxHuwU11P//q4Hv65d/2coVrJmzarm0y0rVKVNYZtQCEk5evSYSRkEZUOFCuWFy9YpQ4mDfuXKl5PdTdtd//xj2kfgZbh7ScHDJpQwW7fGKsGwr8d9QhseNqUgoHjxYkXpnnvuoX/+2U2w5pEChdInn3xKgwe7GKCtbFlXvC4or5BKOzIyUg4zbceOHaeUQThPX9YR/URwdCmvvvKyo4xeeOCHIklKO+HqePLUKVongqOvEZnu8ABfqFBBcS8oJtz9ngpIUVwgf37FLRSs3uS5+ruFsly3DpIKmmzZXNe0U6s3PTD9DBGcWFoFYk2wMsM1tXv3HnV9liodG1vMuua4zqNbp0C5he+StHBaJZRWMt4Xjtu9xztUs2YNKlq0qGkZ5bXvm74eU6c7O7oFG4IqNxWZFT0J3DDHj5+gmt/q6jsWFjojqL8UKEXTpk1Hf/+9gdb+uZbwncN3GgrqmjVqOMpUJueSWyQPkBLXzHJw69OD9pfR7g/yGPG9PX8lhk6dE5qfO5I9UzKKvOOk/t8lYSLEwgSYABNgAkyACTABJnDXCfilEPKkDIKbmCfBGKkMQp8tW7YYlgJOLVs8zeup/unWLYOjEApAGYQ1zZ4zRy0NbjvBSn+OB+w3tQcXPMj/739d1LH8KZwWcUTupiBlMxQbUkqLTGpORbcOQlykRx95xBiqK4QOHz7iaDqpoEFnqcCpXr06DRzwBRUrVkzNgYfqnh98SGU9BEnfsd0Vq0POhbUNEUqbOnXqKOUPYqjAWgNbXeC+AiVQq1YtCdnocudyKe/QD1Znw8Q4aQGxZOlSfbhRzps3r8li5qBwfbM+YKMjzlO3YPvoww+8XqM7d+4yfVZt27ZxO7ZdBVzfpMACY9lvvxmWUbIOW+lWOXToVzTsq6FeH+L1cXZlxMYJVxkqLM+kPCViYeUXii6Ibk2JTGy+xKoEkMqgDkJ58e47PShz5sxqCigyeghFTKmS7t+9YMxz7tw5oVB/2sj+Buue5MnNf2qg8Hjk0ebqe/fXunVu16ueFWv933+rtVsLK1asMFkIfvbpp9Yupv1FixarfSjJateupfa9FfR07pUqVaIWTzxhKIT0MXCRRPY7BDr/8suhbpZ8el9vZSio4yK4B0rrOcxTULgMJ7R8OfM6fTnTddSfeqanwrliNUJ7jzvLMOYazSUmwASYABNgAkyACTCB+CBg/pUeH0dI4DnLiyxdsO6ZPHVawEfu3evjgMbiQR8ptqU82KCBLMZpe/PmTXrxpZdNLkifffaJ6YHR1wFOaYGWs2TJ4qt7vLbDOkQKYupAueVErNZBbwqFmHzQ1BVCurLJ27zr15sfMjsL976e77+nFDhyLJQ7Y78bI3fdtrr7GxqhVPp+4ng3V0EoQRGzxSp4KEVWIU+Cc3z99deUQghKHWRpsyob77uvmnow3rFjp9sDNuYfMsTlKgNrhjZtnvZ0WKN+sYhNJAVKK7vsYLJd386dN0/twiIFbnJS8HnrD6sodxJWVRv+Xmcbz0aOs271dOxZst7da9q6Nqf7VuugV195RQ3VsxIeO+Y7LhYs43SumGjc2DG2ijYEO/71V5flmTqoKARjnl69PtOndCsjphksofr06Wu07d27z60P7g1ScM3DwsxOWfrRxy4F0HOdOpmCccvx+la/Nh995FG9yWMZ9yz9vtJbrFvftw6EK9ygwYPp00+c/y05I2KaSckprG7jIjt37VTDoZDVLRJVQwIX8mSJUEfcsJcVQgoGF5gAE2ACTIAJMAEmcBcJxL6uc7gApJGHa5guMu28pzf0GKO/mYbLWHxZB8l1wdULiqFABMqkQMfKeBfyuPghHldBcNauXd+i5ctXqKlgRQI3G3/khHCTkKLHE5J1CbmF1ZgUT0GaZbu+nTHD5QIDpQIsaqRkyGBWKkFh4k1gwSAtKNAPD8jvvftOQA9OmzZtUofCukZ8PcxNGaQ6BFiwun8hho5VYLUgBZZ4VoGbzlgRPFpKn96fK4WarLNudauIpk0aW5tt92HRNHu2y1JOWl+91rkzrf3jd9qzW1gd7dsjsu/FBvSWkwwfPkIWfW6hJNWVH7lymq2qfE4QIh30+D6wKilVqqRama7kdOJCtFPL3IdJEFDam+uUOpClEKx5LNO67eqZBe3+JkARqsf2sVriYUIEf5fuZ/juIfi0N8G1iODtUhB/zIn8JizcdIEyCIriqVMnG9fyieNHaf68uUbQeNkPWczgnuZUTmuZ5PLly+d0mG2/7ZrbdKWKrvuCbecEqEybKoJSp3QphNZsv50AR+VDMAEmwASYABNgAkyACfgi4LeFEBQ8ED3DGJRB+AfXMWscoRQpUtCDDz5ICR1UGlY+zVv4pzQxrIsCdBUDE8QPktKw4YNGpim5H8gWyqAPP/yYzA/lTejr4cP8VlycPHlCLQEPMndTttyJpYM1OA0ofevWbfqi/wC1bLjL6Q+RSPGM85JKHsT+sVrQqMGiAFcoXQYNHOhTOaL3l2Vr/B+4YMF9KxBBHByktcYWcZ7g2odrAHLjxg01JR589Ydp2VBOixOyafNmWa22uqvYI4887NNV5uDBQ+phG5M88ICzh2epAFIHFoWBA/qb0nNLaykormRA8M1b3Nesz6GXrcfQY2Tp/UK5jHviT0KhIaXza6/KorHNqlk96dZQpk7ajjVuT/fub2utzovBmgeKwb/+WkcHDx0U1/RxglJLd5fctm2bWlTevPb3pEqVKtI64U4GgYunrsBBMHfE05Ly/nvvkq5Ek/X6VndlRH21alX1Zo9la5BnuLNNmfKj6e8d1jrsqy+FK1wzNc8/Ir6YU6u6U5pCKO89gd1D5IH173+58oG9HJFzBWNbo7TrpwYyjO1hl7FgYOU5mAATYAJMgAkwASYQZwKuX2l+TGWnFMJwBI+2UwqhzS6eCerjU6AUQpBpp4L4Q3ERuOlIaeDw4Vn2t27xMPV29x7iDfRPqqllyydp8KCBIiNUClXnpICHMD3jVa5cOZ0Mi7c+G0T8EillHWa/maFlFsNYBCm2Cs7LpRBC1qkS1i5qX097j4c7b33VIJvCnj17TLUPP/yQad/JDlLdf/31CJo06Ucn3QkZ0exEfi/RBisIKJOkqwjSiOsp4D/84AO7KUx1uksMlFAIDOxETogU6brUr1/PpAzS25o0bqwUQgig7VSgrNIle7Zs+m5YlIcN/1qtE26G1aqalRO6ayesoa5evepVyaxnlXryyScoZcqUan5/CnGdB8rb2bNn02CRNl6/hrytoZgloLTsqyuMZYYv2fbNyFHKSgzuZc8++6xs8riV1kTo8NBDTR3fS6Gk1aW/yIxmffmBdlg84rsirddwndarp4/0XNavf6dKJE+zIQGBFD0Wk6xL6O19JVwB7s9fFhohFibABJgAE2ACTIAJMIGQIBCQQggrlw+fuqUQ6r0phdCekGJY/DiMJxQXVzF5TgcOHJBFFRhWVfhRgNXJq6++ZqRklsPg/vGeeAMuH/BlvZPtH3+sNXVD7Ji7JVaLmtIeshzp67NaB+Hhb/4C95g7CM4sBRZC3kR3qWr+WHNvXb226YolZDfS4754HXin8XeRnejJlq1MXRFMGHGFYEUTmSySIpJFEOIdyYfMeyvYK4QQjNj0MHroEBUpXNgISg1LMylw1cL8vkR3Myws5rG6rXkab3WT6dG9u6euAV3PmEx34UFsIxlLyuOBQqwB1kG6shfWQJOnTDGtEsGddYEFiczUpdfLsh54+WGh7AhU4jIPlM/PtmtvZN3Sj497DhRcqYWrI65nWPcgsLWUkiVdrnKyDls9A6G+LihohgiFk5Q+vXsJ5Y7vP2d6trYihV0xiuQ8nrZ6oHpYf8LF1Ik4/c7AxVUGWce8ngLYOzkmYi3JewX667GYnIyPjz7lCrkUQvtPcvyg+GDMczIBJsAEmAATYAJMIBACvn9Be5kVSiG8JYUSSBfsI9aQVBrpbQldRjyhbSILlLdU9IGmmNfPBS49+o9wu7fHen9PZTwoPff8C6Y4F1/060vt27fzNMRn/a+/LlN9YK2hx3RSDQlU0C1q4OKlW0F4WoLVOghWB2+99ban7ka9/uBn13HDho2qupZIeR2obN2yTQ1FRjF/ZL9QIHbo2EkNwUMmLMDsFHaPNmuuHqA9uYDAba5K5cokY1khjggUQtOmT1euX1A2vSaCZzuRU1r8E3/iTp3Q3BNxnHvvreDxcHrcFE+WT3aD5y9YqKqbN3e56KjKEC/o1kFY6gJxPvjnTU4KyytPCiEoQ3U3Oj2elLc5rW1xnedNEe8MSk4p/fr2IVg2pkuXTlYZ2xUrVtDTbWKt/KCc9OTeWVzL9ofzk4Gl+33RX83XuFEjYYVTT+17KxzTsrXl1NK8exuDNt2yqK6X77n170Dx4sV8TW20r1q12tQPyuVARY+1hBhMoaAszZfdFa5w0z5WCAX62fI4JsAEmAATYAJMgAkEm4DrV1qAM0PxATcxq8BySA8ebG1PyH1frmBQGsVVrEG1c+TI7veUeNh5/PEnTMqgST98HydlEKwMZs9xBfh99FFnWXX8XrzDAbpFTdWqVXyOgnXQkKEuSwCfA+50OC5SxXsSKO50V5aSNqm3PY211utxb8o5dH+Tc3z11TClRISi7ufp02yVQcj6pFtTeHMB0ZUqsILCufbp008ekj75+CPHWd10hrnz5FZz+CroGe2wVm9WbbtEjBUp1oD1st66hRuO/vk5DXZtnedu7UMRqFsHOV3HyVMnPXbdpWWVwjXgr1upnDgu8+C89GDi06f9REh5b1UG4Vhz582XhyRvQY9xHvo1DWUHXMemT/9Zjf/4k49U2VdBD86d06HrrK7ox/wFCxX0eJj9+w+Y2py6Si/99Vc17okWj9vGCFMdfBS2bd+ueujsVGUCF5IL46B0qSPUUdfu4oDSCgYXmAATYAJMgAkwASZwlwnEyUJIrl0qhXRLIdSFgoUQ1ujNdQzWQcGQy5evmKaBJYY/gjfQeGMuY+BgPIKWxsV1AMdHxiDdcqChCPB9N0W3qIGrjy+ZOXOmKf7R6FEjKWPGDLbDFi5aTOPHTzDaoETxJHqsDlgneJrP03hZjzhPJkWNFtRZ9vG2Xbt2rWruICzA7DKHoYMeeBj73lxAypUrhy6GILDsqFGj1eePh8MW4mHTqcBaTYo/abD1wL5p0qaRU7htYcU1Z85cVe/0WtfdxcCimGZFoibzUZj042ShWHBlh0P3zsJyypMFjo/p/GqGIlAKrj9YAHqSQYOHqqDK3qzezEqAip6m81kfl3kWahZOsHKrXbuW7fGQ4W/mzFmqzVdsqsqVKhtKIAyAknP5CpdFKlxpYQXnVPRrOns2Z/fotGnTmqa3C+guO/zwwyRZJNzDnfwdwH1knqYge/jhh9UcgRT0YN3ltftBIHN5GpMxbQRdvGp2afTUt2px188MeEFuPeCfhRCOxcIErAQMl1rhDh/z2wqKEb+f6Px5Ev7R1m687w8BYWUsfNWJCuSnCBHTLqJpY4oQrr4sTIAJMAEmkLgJuH6pxfE8pVIIlkGwlnH6tj+Oh3U83M51LBiuYnIB1kDNSIvtNKgrAoC2a99BWYtAUTJx4njKnSvuqbS/GzNWLpHqCUsu6zpVYwIVNmx0xQ3xZVED66BBgwerleHNebNmni2czokfhFIhpMf8UBPcKeiWa1UtgXytfb3t79u3XzUjdo8/nxdihuiBvu+55x41l17YvHkLDRg4SFX5cgEpoymlEFga/6R83quXV2sd2U9u9Wx0epYz2e5pW6hwIdUE5dutW7dsLVa+/vob1Q8Pzk5cv/DwPGr0aDWudWv/MgnKgWO/G0s7xL1Kl9c6d9Z346VstQ564403vLo7wTVOZtk6obk7WRe3ZctWVVW+vEspqCodFuIyDywcpXhS0uAhrtvb3dW9Dv3LlvOeBat8Bdf56JkG8Z0DP3+kgIizJT93XJdOBBZusHST43BN27mNIa7R2HHj1JRvd3tLlb0VZs2arXjgnOrVc7e49Tbe2oZ4Y1L0+4GsC8a2bMFI+mOns4fv6qVcPzOgRIp2pkdSy8SxWJiAJIB7SMzkqRT98WckTEVlNW+DTMD4morEBBGdOlCyj3pSRG7nVsJBXgpPxwSYABNgAvFMwPVLLQgHglII/6AQwjbUBK5jeiyhYLiKyXO0xsI5I+Jd4Me9L5klsvG88orrQRTxMEaMGG7rZuFrLms7Upf/OHmyqg40DbWaII4FKHj0TEF6wFi7qa3WQa+9/ppdN1Wnv/HXXYpUhzuFQNLeW+fA/o6dO1R1rZo1VdlJAQGjdYGljNViCtZHL770st7N5D5jarizU6hgQbtqI46L00C4coIC4i2hFD0ltqzztC1evLhqgrvNmDHfiSDpr6g6FBBDR3947tnzPSOItqmTzc7cefOUIg3fr04dO9j08l5lDWyO3pgL1jrxLbp1EJRgLUU2MG+iW2YhdbsnWbduvWoqW8a7gkV1tCnEZZ6s2pvkhYsWiRf2503xysC9b78v3GIleXOBxBI9KY579frUb+s+uHtJxY4ev8oGhamqXPlyahw+w6datTTFPYJFYstWLuUklKlt27YxzWG3AwUnsrFJ6SoCvlv/bsQIS7qYXcK18r9zPi0g8H2rduCgnI6Kb9hE0Vu2qf1gFdqdjaJ0e246mq72tlQUfTrWO/3cmWhquOeGo3Gy0xM5U1L0FIdKIaG8EwAponAhIpFlMgL7LImGQIxQOke1Et+rNb8nmnMK6RMRLzZjRn1LUd9PomRjRlGyIFnUh/Q58+KYABNgAkmQQFAVQpJfKCqDsDbddSxYrmLynLGFm4QMPvqvUIr5cj9BunFdGYQ59orsQ82bP46iR2n7TFt6/rlOHttlw4hvRsqiYVnjr0JADQ5SYe/evWomPAx7s6ixWgchs4+vB0drhi9Y4dgFq4XVjZS4uDVu3+ZSCPlye5HHk1tYj0EBtHVrrGUHFCSnxTXziHAXuXrtKiEz3IQJE2V3tfXlAgJrhlq1apoC+2Lw+yJDnb+SN29eNUSPC6QqPRRgHdKy5ZMqzstnvT6nfeJN7oMNGtDZs2dpyZKltHjJEjUa12XLJ59U+54KUVFRNGCAy1qq5/vvUYYMGTx191gvv6N6BwTjRlDu+BR83/XYQXB38uQmKNehuxzp8W9kO7a4zqWrKfZLlHAp5LDvVOI6j+6uiGM+JuKhPSOUIqVEJkFY1cB6z6qoxfnp52i3Vl3BKNtxL2jVsqXcdbxFJj4p/ig58VlJ10244D7QoCFBeZNDBKbeKALU/zh5inLNxPz9+vWxtYqTx5ZbBBKXTMChU6eORlOMUOzEDBtB0RO/FxGt98juPrdwbvta79XhOYrW94NUriTmwT9HspjUGvKJAb0cDdI6aeO1Wt9FoaCMeOJxSta9G0U4DO7te1LucbcIxOzZS1ENmxJ5cQe/W2tL9Me9epWi27YjEsrmZO92T/SnyyfIBJgAE0hqBOJFIRTKEGEVVK5cGUM5FOx14kFYPmzqKdA9HQdZoKwiHw6s9fo+Ujf7EjwgSvcp9H2nx93/I667alWu5P1xYtasWcoSBOvv8sbr2HgVq0IIqeetCiG4PkklDCYrU6a01zm9NW7c5MpU5svtxW4eBHjWU85DWaArDDAGcW3wICrjQDlxAQFbPdNTj+5vk+7+ZbcWu7p8mhvbET9/hPfs+T4tXLhIucJMmvQj4Z9V4AY4cOAAR5mQMJ/8fsCa5xmhGA1EdDc6Ob5GjeqyGG/bYV8NV3PDCsSJBYmuLDksLP7sZOfOXaoaSmmr9Zlq9FGI6zwPPFCfkB1L8sW98ONPPjUdFdfhIw8/RGOEyx6kWrWqpna7HSjNdOUp+nz+eS9ymtJdn7NAAZcVmD9KTiilugkXsEGDYl1YcX/t8Y67khWf6/hxYz3GT9LXEh0dTQPvzIf6D8R3Bp9dtHgbH93jPaLTp/XuXPaXgIhVFfPdOIoaP5EiXn2Zkn3RhyJSp/Z3Fu4fAgRihNI7qnkLVgbd5c8iuueHRMLKMtnTLmvIu7wkPjwTYAJMgAkEgUCStKeGpVB8SJ2696tppVuCqrApwGoiEClVqpTPYXpaZlgTOc1243PiOHTYus3luuAtFTkO8Y1m3YS4OfjnS7JmzWLqcuGCCDJpET3YNB5O9QDIlq4+d/V4K76sl+wmgyXP2O/G2FpIIFjykCGDDCsEqQzCHCU0dyy7OVGnW+hBofDKK2a3M0/jrPXIvibdV6CI0QPyWvta92H99deffxiWQtY27EOhA4XY8OHDHCkwrl27Rn369lNTffjBB44sMNSAOwXEjflm5ChTNVi//PJLprpg7+AznDxlipr2FXE8J9ZN2bNnU2PgDgTLOavsP+C6j1StUsXa7Hg/rvNAQTPymxHkKa7TI488TAsXzDe5w957772O1pdHi1+BOGI1a9ZwNM7aqfp9rvuIniHQ2s9uHzGBxo37zvb7iv7IFLhk8SJHyiD0nzZtunqBAEXek0I5GtW1G0V3fJ6VQQAULBGWhTHDR1BU/YYU4yX7ZLAOx/MEn0D0m938spQL/gp4Rkkg+oWXKUbES2NhAkyACTCBxEMgQgTo8zPEY+I5+WCfCbIAVal6nzEtFAS//upyiwn2sbzNt3DhQur03AtGFzxozJ83x/QQ5m1sfLY93uJJ+vPPP41DjB8/lpo0bhyfhwubuRFbBS41Bw4eMJQjcF/SLUP8OREoPOrUraesq0aOHEGPNW/uzxSmvu+8+54IcP69UTdhwjhCjCt/Ba5ICMB9QKQlR6wtKAOt1ly+5oSlyejR3xrdoHAYOsQVbNzXWL39F5G1rnNns7XZksULhdVgOb0bl+NIAAGW4SJ6+jQSDJQiKLGTJw/MIHWfcKO9v049taI/1/5OuqWPanBYqFGzlvp+bN+2xW+lMOL+wGJu3959hrseYqFBUevP+UExXe0+l1Jr+W/LqJiItRUz+EuHZ8HdAiJQoTxFrl5OEenSBTScByU8gRgRMD+qsvhd5emnqvhMkyFeF9wChSs2SxwJCNf1mN+WG4G7PWVti3iuI0V+OzKOB+LhTIAJMAEmECoEWCEU5E+i+WMtVFagjRvWU27tzXaQD2U7HQJ616pdR7nqrF61IiSsg/AQlb9AIbXmuD7UqYm4YCKAWER9+vQ16mBVNWvmjDjFxlm1ejU99dTTxnwdRQDnvn16m46XEDtrRABRGbAXrkM4p0DcoqD7btiwsQoOjLXDSim+rYMSglFiPkabts/Q8uUrjFN8662u1P1tYS0QB4GblnT9Gj1qpNfMhXE4jMehcBVr/XQb5VoHpW2zazdiY3R4HMUNwSIQIdxdIie5x2cL1vw8T3AJRAmLuRjhRmknyXr3ooh33o7T3zi7eblO6N+27xBueiLpgYh95ybCGjTy2EGKCMHkMW5r5QomwASYABPwSSCwV7Y+p026HVo8/phSCK1YsdKj+0R8EYJFB1xLIHBvCAVXMazl0KFD2CiBuxaURBB/3qyrCbjgRmDlqlVKGYTGvn17x/mHco3qNQy3MVxTc+fOoz69P4/znG4L91Jx8eJFeqPL/4wecF8b8+2ogJRBmABxlXRXznp169KLL8Za0nlZAjfdRQJDh36plEG4Z3S2ZKsLZGkPPdRUKYR+XbYswRVC40RwbRlnCcrI5sJSMqqkDwu1UiUpomQJElHITacco+Vw/+/cf2peuCM2aPCAqW+S2BHKtpjjJ4j+WucxI1vMlJ8opvMrFFG7VpJAEs4nGYPPc84821OIeL0zBzi2JROcyoiyZShy7kyKqiTcbIXlsUnghjl3vpGS3lTPO0yACTABJhCWBFghFOSPrWnTJvR+zw+MWRG82FM8jSAf1pgOCgFkrYF07fomNW3SxCiHwn87duw0LaNAwcJqf/68uVSpUkW1zwVnBOCiiNT0iE+DdOxQeEj5X5c3qGyZMnI34G2KFMmpTZun6dtvxxjHOSFicOjZxwKe2OFAHBfHhMCaIy6uQiNHuWIHQbk0dOhgQlY2ltAhgHvmwYOHDHez6T/PUEHEscIhgwcGxfUV3wu49EI5uHHjpgQ9+XMi0HG/fl8Yx0QA7p7vv08xiGnlKWg7HspEuucILfaRXDCy7uXPX1Duxm4zZzS2bdu0oUaDBpjbktAe0pNHd3+XYiZNtj3r6I8/o8ilsX8rbTtwZWgQEJnF6Lx7LEARQI6SfSICHLPEK4EI4e4b0f5ZIzi79UAx69YTdepgreZ9JsAEmAATCEMC7DIWhh9aOC4ZbkxwZ7KTnTu2UebMme2auM4LgVGjRtMnn37m1gMPg07TXrsNTqQViGOkx6HpnmqSjwAAQABJREFU/0U/gqUIS2gRaNe+Ay1d+qvbogb0/4KeffYZt/rEUHG7xv1EeLiyirAKivx9JUVkymRtMfatsZX0TnDthItnUpeo17oIhdtoWwyRR/ZTRN68tm1cGRoEopcspeimj7ovRmSFTL4m1o3UvZFrgkkg+qfpFN3mWbcpIx5qIiyIZrnVcwUTYAJMgAmEHwG2EAq/zywsV9yocSMqXMRlFSRPIkXyFKwMkjD83G7bvt00AtmyOrRvRy+99KKpnneIMomH6q1bEtYahLn7T2DTps2mQRUr3kvvvfcu1a1Tx1SfWHZirlwhElZ+dpJs2FCPyiD0R4D2wcJqyk7gDslClGxAP4qaMdM2a1vMytWEeEIsIUzg6jXbxUXkyG5bz5XxQMATaw+fTTysgKdkAkyACTCBeCbACqF4BszTxxKoVrUq4R9L8Ai83a0bderY0YjpU7hwIVasBQ8tz3SXCEz+8Qe6efOWSBaUgooVK0apU6e+SytJoMOKTGUk4qS4iUhGkMxHDKCsWbNSm6djA767jecKg0BE2rQU0eIxihkVm6HQhEVkdmQJcQKeMotFRIT4whPR8jyw5gTFiegz5lNhAkwgyRNghVCSvwQYQLgSKFiwAOEfCxNILATKlSuXWE7F2XnYxUfByKJFnI3nXj4JRBQtSjE2vWIu2MSmsenHVUyACTABJsAEmAATSMwEOKJqYv50+dyYABNgAkwgZAnEiMDQdhIhguayBImAJ5ZRNpZZQTokT8MEmAATYAJMgAkwgXAhwAqhcPmkeJ1MgAkwASbABJgAE2ACTIAJMAEmwASYABMIEgFWCAUJJE/DBJgAE2ACTIAJMAEmwASYABNgAkyACTCBcCHACqFw+aR4nUyACTABJsAEmAATYAJMgAkwASbABJgAEwgSAVYIBQkkT8MEmAATYAJMgAkwASbABJgAE2ACTIAJMIFwIcAKoXD5pHidTIAJMAEmwASYABNgAkyACTABJsAEmAATCBIBVggFCSRPwwSYABNgAkyACTABJsAEmAATYAJMgAkwgXAhkDxcFsrrZALbt++kX39bboBo3LABlSpVMsGgnDx5in6aPsM4XrWqlalmjeoJdmwnBxowcBBdOH/erWv16tWpWbNH3eq5ggkwASbABJgAE2ACTIAJMAEmwASSNgFWCCXtzz9szj4qKor6DxpK586dM9bcts1TCbr2zJkz0cqVq+nmrVvGduL4MZQ2bZoEXYO3g40e/S1dvnzZrcut27cdK4Ru/fcf3TzzrzFHRGQkpS1W1G2+hK6IEZ971J3zSpYqFSVLnTooS4i+fp1uCCUfJHnGDJQia9agzGs3SUx0tKqOSOZulOmrXQ1OrIWYGIoR/yARERH4z3SmceFzdc9ekuNT5sxBKbJkMc0drjvXjx6jqCtXjOUnz5CBUuXNE/CpRN+8SdHXrhnjI9Olo4jkwflZcFsoqG+dv2DMC/aRadP6XGMo3oN8LtpBB/C9dviI6pmmUEHC/exuSaitJ5gcEut3PliMgnnvCNaakso8ly5dpkt3fs9kyZKZ0gTp90wg/PDb8N9/z6q/vZHit0muXDkdT3X58hUSf7kJ49I6uLc7njjEOh4/cdJYUXLxdzFnjuwhtrrEs5x/z56lmzdvGSeUW1yHyWx+KyfU2V64cJGuXL2qDpc5U0bH13i0+L0vx6ZMkZJSpUqp5gn1QnB++YX6WSby9UXfjqZTO07SkXWH6OT2k5SzVC7KX60A5S6XhyJTRCaKs587b6FSBjV88AHKni2b3+d1QtzY/9m9h3b9s5uuC4VADnFzL5A/H1WtUpnSpPGu3Ekt/nC3fqolfT9psqEUwvblF5/zew0JMaBgwQKULm0641B58+Z1fMj9vfvRocFDVf8Hr5x39BCnBsRD4d/5C2lj8xbGzLlaPUn3/jQ5KEc5I+bd/GSsUjG3+FwrTP0xKPNaJ7m6dx+tLl5aVZceMYzyv/qy2j/9yyza9EQrtX/fmhWUuVZNtZ8UCstz56ebp08bp2r9jFG/PFc+haF4v95U+J3uat9b4Zb4gbG6RBnVpehHH1DRTz9S++Fc2PhIc7q0ZatxCplr16L7Vi8P+HT2vv8hHRw0xBhvvT4DnlQM3PvRp3R42NfGFGVGjaB8L73gc7pQvAf5XLSDDmeX/EobH3tC9ayyZAFla/ig2k/oQqitJ1jnn5i/88FiFMx7R7DWlFTmGf/DZNqzb79xug/Uu59aNHskQU8dL1Zni9/Sq39fS1AIWeWrgX2tVbb7eGD+sFdsX7zE+XJAH9t+4V4JJUW/QV8ap5GYzzMUPqd+A780nq2wlv91fomKFimcoMs6fOQoTZg0lfCZyxeUcgHVq1WhZ1q3lLtet/huTZ85x+iTS7wI69njLa/9Q6mRFUKh9GkEsJa9v+2hcY+NphuXbtiOfm7OS1Tm0XK2beFSeUW8Cf/+B9cDe7tnnvZr6Rs3babeffqrm43d4Le6vkH169axa1J1zZs9TFN/mm7MM08oFB5v/qhfb1TURPFcmDnzF8qdK1c8HyVhppfWHUE/2h2LlKDPa5kQFk4m0ayFUG9tt+6bxiaBnRjLj1QrD2t7EkAS76do+o7F1/civuaNdzp8ACbABJhAPBCINYqNh4k9Tzlk+EjCg29cJTrGZfUc17l4PBO42wQOHjpMg4d9E5RlRIfxbx1WCAXlErg7k+yYu43GNhvt9eBof+bHDlSpTRWv/UK5ccHCxUqZU+f+2pTFD7eP2XPm0ZixE3yeHkxnfUkqYeLfXCiBpv/8i9EVMYXeeO0VX8O4nQkwASbABJgAE2ACTIAJ3BUCO3ftNimDsmbNQsWEFUbaO9bxd9NF564A4YMygTsEvp/8k2IBS7DSpUpQdhFGQn4nypYppdoTc4EVQmH66Z7557RPZZA8tUltJ1D24jkof9UCsiqstrPmzFfrbdqkoSr7Ksydt8CkDIoUcXFq1riPypQuRdmyZaWTJ0/Tps1bCBZETgXBrKVCaNlvK+ilFzoJH9FUTodzPz8JpCmQn/K0jbUIy1Szhp+juTsTYAK+CGSqVlV9x9KVLOGrO7czASbABJhAmBHYvG27WjFitLzfvava97eAEAp58+Q2hvHvX3/pcf9QIgD3sDOaQUCXV1+Mk7savlvyu5HQbm9x5coKobgStBnfvMVT1KZ1K2rztCs2iE23OFWtn/iX2/hcZXJTqaalae/yvXRsgyuAJTquG7s2LBVCmzdvpQsXLhjnisB15cq6YoK4AdAqENjrhx+nqpoMIvDqwC96U547f8RkQ4vHmxk+o+jvRHLnzkUFhJLisAgQCn/s35avpKZNGjkZyn0CIJChUkUqP2liACN5CBNgAk4I5G7TmvCPhQkwASbABBIngTN3Eobg7MqKl6JxEQTDfrfb/+IyBY9lAiFB4KxIpiMF1kFxVeKUKlE8bL8b7ilvJBnexonA5KnTaPKUaXGaw9NgBJH+c8wfpub0OTPQ66vfpGaDWtDrq/5H2YqYgy7//s1qunX1pmlMOOwsWrJULfOBenVisxCpGs+FVat/p6t3osTDMmjEsMFuyiA5GgGqc+bIIXd9bhs2qK/6LBbBQllCmwDiztw4dlwE7LkLTvvxiMY4r+Mn6NadzHtxPVSwOAVrnrieD49POAJR4l4rA4Mn3FH5SEwgfgggrtbNM2foxokTQfm7Ecx74g1xz48R2U5Z4pcAXvidOnWanL4stK7mmkhc8t9/sVlxrW3+7mMtJ0RWVLtA0E7nunwnKyX6Z0if3umwBOl3WiirbtyI2/PJmX//pWvXrsdpvVjHLf5u+WR4/foN40W6z44eOpwXL/mRpS4YgrWcOn3GLRC007kvXrykuqYIUoZVNWEcC3G9B+Hw/tw72EIojh+Yt+GGUkgohoJtLbR76T90+bTrIsYaGn7QhNJkSWssJ3maFJTxnsx0dr85Ls722duo4tOVPS75jz/W0vCvvza1t2rVkh5/7DFTXULubN6yTR2uXLmyquyrMEVwl9LggXqUKVMmuRvnrW6ltFdkjMAXDkonlrgTODXtZzo5bbrtRMi+VfDNLrZtdpVHR4+hk5On0n/LVxjNSM+d/aEmVLBreL7ZwgPK2cVL6czsOeKcVpoewFPmzElw/clcWzB6602vKa23dXohVkEmqJSb8B1d+HMdHRszls7Mi3XNBKcs9esa2dCyP9TUDq1RF6x5PB6AG+KFwL5Pe9Hl7Tts50YmMKfZr6AE2v9ZbzorlPYXN2w05ksjYlJkb9yIinzU03Z+rmQCoUgA1/K5FSsJWS3PzF9A1/YfUMvE/TBDxXspY9UqVKj7W5QqTx7VZi0E656I7HxnRPxDSKEe3Qj390MDB9O/i5ao+36WOvcTsjIWeL0ziTdl1qUk6v1dIlvs1J9nGudYpFBBatcmNmOo9aRXiBeDy1etMarvq1KJHmpsDjmwY9c/NHnajDvzFKJO7doYWbg2b90mHnj/Uw+ZGcU10OHZp6l40SLWQ5j28XA6XmSgPXDgEEEhBMFDZr5899CzfnoMQBn104xZdEwoAK9eu6aOg5g/RYsUEufcmlKntg9XcOPGDeozYAjpAW71B9/54jr6bdVqNScK+A37yfs9THVyZ5/4PkyZ/ovcNW3hPtati7gGvYi+npQpUtCH775N6/7eaHw2OD+pdIP7WdNGDehB8fvDl2DOydN+oX0HDhDOTWaGwvy5hNsOeOcRFv2+ZP2GTbRA/K7SP+8smTNRjfuqUbUqFX0ND7l2nMtfgi2kQd37qY74TWgn43+YQoeOxHqStH7ycYJliy5zFyymP9f/bVTh86gu7n+4BvDMc+nyZaMeFjVg/KoInZFJpGb3JsdFludJU6eLUB0uxSau5RLFi1IHPxMFbd66nRaKl/HICCYViVgLvqfVxPe8+SOef7fq54X13rqT6h7lm7duqex52JfygLjXNqhvn3Ro6W8r6c9162VX0xbWRk+3bGGqs+4E+x6E+QO9d7BCyPrpxMM+FEOQYLmQndwm3lpZpMB9BVXNpikb6MCqfWpfFpCa3pucEG/Dli37zdSlSmXPCiRTx3jYwZf90iWX4quMw8BeUNDgj4yUxx9rJotB2RYuXMg0D9LYly3jSi1uauQdvwhcFn7uUAp5EicKoeibN2nXG28SFEK63BbX0kmRJQ7/oDQJN9nyVFul3LKuHdYZUOjg3+nZc+nenyZT6vyudO16//+W/krXjx4zqo6OGkNQEOgCTngYwb/Sw7+k/K+9qjercrDmURNyIUEIIOX4+TW/2x4ra/16jhRCN06epE3Nn6ALlh9CeJA+MnI0nVu5itI5dO+1XQhXMoEEJHBo0BDa+9GntkfE/fCceHjGvxPiYf/e6VMIyhg7CdY98ZKIbQhFKySdcO85Pm4CYR26yDVdFN/BMqO/oWTiwTypyFmhrME/X4LfgbLfIZvsWufOnRchCS4a0xw+irTTU+jvje4xJS8K9sO++ZY6PtuGKlesYHtY/F4dOPRrk/IGHWHVc+DgIeo/5CvK7PDF5G8rV9NMETtTKjn0A0I5tHX7TvHg2oc6v/gcFRYKMavgwfbc+dhQC9Y27KP95gXnVmZQlsAKw07wIO5LrOuBMkgP5CvHQ8kza+4CgqVOm1ZPyGq37R6hlBgtksVIZYDeAcc6In7fIF18yxbNqU4tz7Encaxfxcs1q4AdFCvHYSEYZoLrXF7zx4QSxpMcPHSI/hPXP0T21/sePX5cfTfAc7m4JmV/2Q/XJxQ9n/UdYKRXR6ByO8H1Omb8927XM67lTeKl/+kzw93a7ObBs93EH3+ijeL+aBWs5cLFi7RUxHbdKl54dXn1JcqQwd0STj8v6xzYl/cDve3EqVP6rql86PBhj98NU0cPO8G8B+EQcbl3sELIw4cU7OpgWgtZrYOw1jwV8hpLvvrfVZr+8hTb5V847vkPhO2Au1y5XdxEpCB+UJbMmeWu161+c8Pbgvz57jE0yevXb6A//1pvaE8LFSpARQoXEkGmq9M998Sy8zqp1og3KTKOEKq3iZsPK4Q0QHEopi1ejLI1aaxmuCHeYFze4boOVIOXwt4PPjYpg9KKNx+wWrglfIWh5MAP60ODh3qc4fQvs4TVzF8e2301FOz2JqX0wwXR13x27Tin9OKBO12JEkbzlV276PSsOUb5wto/6fey91LdowcoeUbvb22kMii1+I7AGghp3s/Mna/eQu98/X/G22m8ifYmwZrH2zG4LTgEYGkXmd71Q+nSxk3q83Z0BPHDa+MjjymrIIzBAzIsKK7u3mMoJfGd9fd76+jYSaRTONyDEutHAWucjFUqE/4W4f55XTw4nZ452/i7AcX7uroN6L41KwjfI28SrHvi4a+GG4eRFq4pc+UyrJkubdlq1B//fhIlF4qGUsM8/03ztk5uiyWA343ytyMsDZB4BNlnpTUEev08c46tQggPowOGDFdWQegLtywElz0jFEVwHYPywpNSBf2lzJ630HiolfvSCiNrlsziwfms+BermMF8X44YTX0+6Un4faxLyhQpjWNLyxu0Qcki92GZkTFjBn2IVyv3LOLYsJqRcvt2lImLrHe6lcogWAQhCO/Vq9dEYN9/1fA/hNXyo00b2z7QQxkE5Zwu+Kxy5cxhWApBQYHzxGcyTVhYIVsUskZZZdWaP0zKIGSUwueVQjwzHBUKECjyYInCImLQ3rE4wrUIpU/6dOnohOAM5RsErGaJ6xYWdlZBwOZvx000VefIno2yimzRR0UohyvCOhOfmRMZMHS4qS+s7/LmzUOIaQWXSiiEIPieDf16pGGJZp0XFoW6KyfcDOU49MX1aJUCHl6uol9eYTF6+MhRNQRKLjtFpergpRCXexCmjeu9gxVCXj6c+GgKhrXQpZOxF72+vhTCTQwy793ZdOPSDb1Jle3GqcYQLOip4LOLG4hT0YPnZRJ/xNaLm9lnn/c1DT967BitFn8QJv4wmZ7r2I4ea/6o4/hEmCiX+NGIwNIQfZ1GRZj+l//Vlyl7k0axqxd/HCPFj4aEljzPtiX8kwIlx6bHvSsjZF9sb4kfFQcHDFJV9zzficqMGkERd1z6EEtoXYNGxoOr6mQp/LtwkUmhZGn2uZvnmTZKIZSmYAGqsijW9B8D05ctaxqfRcTF0tsz3Gv/9hGDIsUfYZxP/s6vUMbKlUzzYAcP4H/VuN94cIHS64R4UPBk3aMPhiIIb70j7/yovC3+qG54uLmyItn/eR/K1VK8rfPxJjDQeSr+PJXgsgFJmTs2c4lcHxRrOp+0dxRgst3bNrlQIFdZsoDEr0OjW9pixbx1D6s2WATcvhNsP4WIgeaPlOhvvhf+81Z3OjTkS8dT/LtosUkZVHbst3RPpw5qPFxv1tVvqPb9KYTCPcif9TrtC1dO/TqGwsGbBPMeZHccf9djN0co1gX6nY8QD4F4EVHgjc7ib2BjihAPGrrcEg/1m1q0MqyEUI8XCr4UQugX6D0RY3WBwr7aimUEl0xDxMOu8b0d+pWxe3j4CCrc811KZbl/6nPIclzuHXKOxLrFAy/cz6pWrqhOccasucrtDMohKCSsrmN//LXepAxq1KA+NXu4iZpjvVC6T5w0Ve17KsD1SbdYyZE9O7328vPi4dn1MhTWRl+P+s54GIfiA244L3Zqb5oyVaqUboFt4UJ2UrihQRo/+IBHFxjTRHd2ShQrSp9+8K5qOnf+PH38+RdqP5BC7ZrVCa5KUuA6M3LMeLlLS5Ytpycee1Tty4LOES98X3q+A2F9UsAQijKpYJooksv0FkozmUJc9pu3cIksGgqF97q/qSy4oOjoP3iYUr6pjkm4AOXdW2+8qtzwoAQa/NUI5Y2xactW8VOrtRvnX2a7fv/i+/XK8x1NCrrJP/1M+P74kg2btpiUQZXEb+Vn27QyXDLlWCj5pv0y29iFIgrz1ryvqmw2trj28U8K3CFxvUBwPfmbfe+hxg8KV9QH5XTGvQL3jEAl0HtQMO4dyQJdNI8LnACUQshEFmjQ6UsnL5kOjoDSELiJ/fltrCtAiUallNWQ7HzxxEVZDIvt+Qvn1TrxtsWpyD8E6H/p0mXq3be/16FjhSnjhO9/9NrH2qj7y+KPY2KQtOKPajZhSWP8ayhucOLmHW5yeMRItWT8iNaVQWhIJazB7p0ySfWJ7wLM+BVTwRbH1wUKD73dm0VPpbkzqeyYUbbKIMyZXrgtFv+ij5peWgypCg+FClMnKWUQumANcDmTgjfRZ39dJnc9bgOdJ/P9tRWDDBXKm+bHg5nOJ42NebxpgLYDJSDi4cjx6mFK6xOuxUzV71Pn5Uu5EOxzPNDH9SCQt2N7kzIIx8pSry6V+mpIQIdNDPcguxOH0k5eh9imEG9H76aE2nqCxSLQ73zhd3tQlYVzKccjD7spg7A28Col3GelnPr5F0KgaF8S6D3ROi8ybZruX+Jvc8nBA4x7vux7ZMQoWfS6vZv3Dq8LC4FGxFvRlUFYUovmjxgPinJ5R47EulvLfWzniXgrUmCRriuDUF9VZEu934vrkhwLyxlYtkDwAP5Oty4mZRDq4SL2XIdnUDQE7jj4nRtOgiQuujIIay9TqqQpw5Me9kGe2/JVa0zWHF06v2RSBqEfLJ/e6vKqUkzAAuVP4R2gC+IG6XGZoHTT3fmgGOjx1ht+vSTW50+M5Rc7tVPKIJwfrHM6arF/cN3+Z0lwgutym2bh3+jB+iZlEOZp89STBIshbwLFp4z1hX5FC8fG+8IadMH3V/+ezZozX28Oi3Kg96Bg3DvMNMMCV+JZZKDWQlfOXjFBSJM5Dd2+cZt+esH1EPfEiFY0paP5wffCUe+Ki/TC3zKPJWBilrv4w/W85gNtNW81AbDs6BZC1+8E9kPgu/fe6UYVypczeu/atZv6fDFQxSiaIdyEmj3ykGEmbJnOdlf3TdXXaduZKxOMwDnhPyzlnhefV5ZBsg5bpLKH4kGa3OttKOPhIG+HdtZqx/tw57pbgsDSUq7uc48jJtvkNp9gBFcEq6QSZrg5mj2iApueW7HKa2yZYM1jXQfvhxYBxOdC7BIpnr4nuZ9+inZ16Sq78dZPAuF8D/LzVMOme3pLUoubwtrCquDXTyZY90QogqA0dxOhFLrnhecMSyG0IeZQsc8+duvGFc4JPNKkkVtnvLHPJ17k7BeWOZCzlodeZKXS3coeEIF87aThA/Vo9e9r7ZpU3e69rr/Zj4nAuFBM2AmUJ3gpKeOd7BF/6yuLwOfhIggcbSdlhGsXLDYg5+/EdtL7rdUsScqULkmeXHnSCWvnKpXuVa5O/+zea7IU0ZUUeNlsNw/YlypZnHaKZ4WkLmCkW2FJHgjeDaUMrIUgiDWFrM1S/tm7VxaNrafvRv06tZVlj2nAnZ2Dh48INyyX50undm3tuhl1jzd7WH3PoPSDtZen75HHSe5iQyD3ICw3GPcOVgjdxQ8ehw4ktlC08N/VJVnyZLR84DI6szvWHPThPs0oe7EcIh5IrKuE7BuZMlIWbbeNGzUi/AsViaAItRT51kRVeClEJHONk91GDBtCuttZ2bKladjQgdTx+ZdlF5oigg2/JgKROZGY6Ni3OOibLAwtaZycYzj2uar9AcpSt47HU4ApvyeFUJrChQj/QlXgvvDvwsV0/cgR8e+okR5ZukXdFubSUqIcpPXM2uAB2d1tm/WB+kohhDga3iRY83g7BrfdfQJIea2LJ7cZWL7BrVFmH9PHcNk3gVC/B/k+g/DsAYXnWXFvvbp/v3FvvSECDSOump1EiYcNbxKseyLi30UIF2470YNb65nR7PpynXcCeGhMkya1bafMWvwcPdEJOsM1RZd7y5vdwmUb3L4Q60RmH5P1cqtnykIdguOu/uNP2Wxs9d/BetrufSKrWTgphAoWyGc6L7mDWEVSrl13/36dFbGYpOzZs88IHC335VYyksoy1CMosi76PMW8ZI4rL6yuWSFElFPEZ/IkaURoiVuXYn934hrW5YyIeSUFSiUo6uykonhBK1297NqPiVAPuoz4dqy+a5Tl525t2H/goFsGNWufUNkP9B4UrHsHK4RC5EooV66M45VkEinlT2xxfUGQPWzhB7E+izlK5KR63WK17wgwrUvGPN4DzOp9Q6GcWfvjoN/cfa0Nwcp0adK4oUkZJNsQHK2OePO2avUao2qP9nZG9vG0vXjnBoh2/Y+Yp/5cH/8EYMIvs2fhaAgO6klS2gSO89Q3VOpviTeTB3r3o4MiI06wJKWXP/Q6v2t33o56Om6w5vE0P9eHBgE8IEuBZVmylCnlrtvWsJ7YsNGtniuYQKgRiBEuCUeEu/F+kbkJgaOdiCdFkRwbrHtiSi+ps1MIxasUrDtaWEQnpWxj8tyDsU2TNo3HaVJq9zkZSFd21gNFw5oIQYk9Sdp0aT0qhBBgVxdrRie9zVo+Z7FasraH2n42EejZTlKlTKWqoywvvuE2pFuJwCrFaTDiK1fMXhW6VX/mzJ6fi6zPEmpxSaygx7Cynnry5C5DA1jL6aJ7a6RPn05vMpV1jwtTw50dq/ug088dw/UA0nZzh1JdoPegYN07WCF0l6+G8sIMuXcv/8x8M+Ryd/GQp9F6bFuSlkDXzps17BnzZpLdwmKrZxXzx0daf5uDE61iE4BXAkAqe6kQOimi1DsVXUGl+x47Hc/9gk/gppalArPbuULJo6bInl0Ww2IbLd5Gb2zWQgV6lotGnKTUBQuqrFEINIwsYxCM8SXeYpkgiLWUawdizbjlvnUbrHms8/J+aBG4cScoKVaVXLgseJP4zrTn7djcxgT8IbDn3Z6mZAQYC4U4kgIk1x5ez4qA6lJ8KYSCdU/0FjQ+heU7iO8n1sziP4HklngkTmdA2mgp1sDFsl5uYSEhM5nJOrnVFUuoyyRi+TkVxOQJJ/HFye5ckApeF8RYSi3+OZFslnTo17TfRqlT2VuFYV5/QlU4WUe49vGm5PR2Tnr2Ll2pajcG1wSUfnaCTH1SoHRFFkCnksGPvk7njK9+gd6DgnXvYIVQfH2yDuZt07oVtXm6lYOe5i4Zctv/oaj5yv1UqHYRo3PUzSiypqfPFGYKoZw5XQ/tpx2+tcPJW+Mewc/VkyCLg5SrIvhclDAPR1p5X3L8hMt1IocXKwtf83B78AikEFmldInWfI71epSjNAsva9vx8RMdBVG2jpP7Jb7oS4jBE0w5Nna8SRlUvO/nhBgV1oeFy9t30O/lKjo+dJTlzZk+MEZ725NCeyjS+8hysOaR8/E2NAmk0H5YR980vw20rhiZ7lgCIxCK96DAziT0R8F1WM9MmbfdMyJj13uUrmQJt8Uvy5jNyOLo1mBTEax7YtSdVMo2hxDZGc1K/+SWVOJ2Y5JSnacHzGAy0K0bPLmtyOPpFi6yTm71RCWo6/XRe7KJt4JARhHjVJf2bZ+i8mWde1boY6FMkpZe+M3vSfTA0576hGu9r2s1GOeVXriJSfHGGX28rUdXACFG0YfvdpPT8lYQCNa9gxVCd+FyglXQ061bEraBSIbc7trRVBlS0cN9HlXTndzuUljISk+KJNkeatty2s0eN+/TZ86QkzchVgshGVja7vysf6CdvLmAWeSJEyfVdIF+jmoCLgSFAEzl8VZXmvxji6xFdoKAoJ7k/B9r6cQPP3pq9llfuMfbQVcIHdfWU7z3Z0bga7uFXDt40K7aY92N02c8tkmO6JDGi5892oM1D+ZiCV0CqfO5Yj/g+oCVBDI72Yk13pBdH66zJxCK9yD7lYZ/7anpM9RJIPV82XFjbK9puOz6o+QM1j1Rt8pTC71TsFrFerNKso4N5/1IzZoH7n6eRLfk9tQnrvU5c7heKkIBhX+efkci45UnQeBqXbB264Oe3p7UyrBS0QMY++NSZ2UFyx8ZCPy8sKr2JLr1l6c+oVafPNL1WO9NCZMQyq7s2VyugVa3PZ3b9es3vCqE7hEvWP/euNkYoofr0OdIyuVg3TtcV05SppmA5x6oVZC+xALVC+m7Rvm+52tSmixpVf3+Febo7mjIX827KfG69etp/Ljxag4UmjV7lJo2bWqqS6idTJkyGdY+0j96585/nCmExDhkFZOKIChvSousDHZySrM8guYZ5oi+ZO++/aoLrImKe1A6qE5cSDACyMgiFRmwlvEU9Pbi3xsSbE3BONAVcS5ScjzWXBbdtpc2bnKr81ZxWbwdz/XE47ZdLm/brurTFCqkynaFYM1jN/fdrvvk089I/zGDIIqfffrJ3V7WXTm+NavS1d17KF3pUm5rQSwTXBN3QyZN+pE2bY798Yjj1xIphpvdjYUk8mOeEkr1gYMGmc6yfLly1L59O1NdqO9c/ecftcRcLR6zVQahw+Wt21Q/J4Vg3RO9/a26smOnWkp6EQA3IWW/CLz9bY93jEMm9D0xnRbv54rFSkpnYE2DrbcFq2wNuIuMSEVEanir3LhxU/wd8awQypE9m2nIIZEwokKmwCxgTBMloh287JVBvA8LPoEKYhjJuDTW+Cv6nDKznF7nrRwK90Q9MLonhSiUlrge41tyaMrSCyLgtCcPjH0+QhLco2W/xkt8rD1VKs/xC+P7vEJt/mDdO1ghlECfbFytgvRlFqhekBA8WmYVQ9uqocupTpd6lLVwNrp44iIt/GiePoTS58xAJRq5/3DXOx0Rf8hm/DJTr6KiRYveNYUQFlKpYgVadieV+GbxgFHPQ0pPfdFQ6jR88AGaO2+BUT177nxqIFJ+2smyZStU9T2WNzSqwVLAOqRAGeTpbZDsw9uEI5CpahUVQwduVnCrsgosF87Mm2+tVvvF+/Wmwu90V/v+FlLHcwwHT7ErED/oYH/zA5qvtR/5ZhQV+fB9t4egKPEm88SkyWp4+vLlVNmuEKx57Oa+23VQMFy+fNm0jKSqEIoUMTDSlihOUARBTvw4hYr1+sQo6/+dEfdcf6wp9LFxLa9YuZLmzJmrpkkhHhjDTSEU6vcgwD3731n64YdJijMKTZs0CTuFUIQWMBiJCTzJ/s/7emqyrQ/WPfH8mt/pyj+7bV3Yjgn3ZikZq1SWxQTZnjp1yvT5J+Q9UQ9KjAdEZO5CBi9d/hVxR6TyQK8PdhnHRXYg6YL0628rqUgnd6XoamF57M0tBr9bEbxXWr7MmD2XKpRjhZD+eRUpXEh9puuFoh8pxpG9yl8pXKgAbbnzwgsBipGlyRovCJ/V3+IY/kgo3BP1eEknxHfUTlb/vtauOuh1hbXfwlBC/fX3Rqp5X1W34ywV3xlvUkjMg++H/P7gu9Gm1RPehiSptmDdO5IlKWp36WRhFYTA0cFyLcKHX+OlWm5n06fIpzTm4ZH0RcledOPSDVM7+iM9fbhJ0yaN1JJXrlztMeiY6nSn8JA2bv/+A7Rw0RJrF0PRdPTYMVV/f+2aquytsGTpMtWsr09VcuGuEcj/emd1bARX1pUaaEBcnH+6evc/htk9LI0C/efJhUYtLIBCplqua/PoqG/dZoACZ8crr/n9EA5rqgP9+rvNt++TXmouBOfOLe5h3iRY83g7BreFBgFdWXr4y2GEGCy63Dh5kvb0/FCv4rKfBELxHuTnKYRN9/Sa6/7R0WPILfaceDA8NORLOrtkqV/nFMx74u5uPYwMYvoCTs+aQ3qQ6wJdXtebE3U5e3azNc3cBYtN54sMVN9NMCsrTR2CvFOvTm014zZhtbXbkrEWyqkFi3xfP89oMUWRHenHn342rCrU5FoBSozpM+fQoK9GaLWJu/jkY81UjE8oB4aPHEOeEs7gGvhtxWr6pE9/srrq1b2/lpoHxL6bOMnt2QJp0KWSL5yo6mE1YCG0687LG3kOuK7mLFgkd+N1m0vEV4W7l5RZc+Ybyje5j+3mrdtpn3hG8yaweqpf1/UdW/vXevpD/PMksPoaPXai11T2nsaGa30w7h1sIRSPn34wrYKsy6zUtiot/nSBm+Jn14Id1q7GfrWO1W3rQ72ylAjsCLNDpC/8f3tXAR9HtfVPkjaNVFJ3d3eFQiltgVcqQIEi5cF7fOhDSotDkeLu7m6FFi1Wd6Hu7mlTl6SW5Dv/SWdyZ3Z2d3Yzqznn95vdO9fvf+zec4/g5Tyf3Rh37tTRb7dr165FDXhRD2YQ6I233qW58/6hLp07apzmBQsX0XSFSw7D0/36nu233k2bNmt9QUbsCp2hTAT8FpYMPhHY+/cEOrLGrOp4cN58owzUpra89Y5xjkACeyao+d9rDAkXGAKtetEFtHPMD1q+JVf+myByX/7MMwgSNLANFOjE3tRghE4qndvPmPzDPfIJ9qhW4+qrCBIbUO1C3GFFfSCQbq594CHKZtwr9/8XwR7Dru9/oMxvvjOqqH/vXVo7RoSXgFv1eKleol1AYPunn5PV2O2BOXONmvf89TexyKNxjkBKjRpUeeD5Rlz1y4fSmnsf0FQzIQU09/RebIT3HirTpjVlszotFs85fiZ4RmUSEAQijEDFs3vTmlN9AHNzTo8zNBttUI/M5oX9zu/GUNZPZolrp112650Iidb5/f6lvfPhzn7/tBm04elnjW5U7NuHyjqYFxkFYjyAuVftWjVpy9aCDb2p02dSJktDNG/alA7wd34+z+8OHz4StlH2Y4n0vydN0ZgKYFS8/vb71Llje011bBtLoMyaPZfAoPBHjdlWX9PGjWjVqXkQFr6LecHcrm1rqsPjRd1bWcIZ6lL62GEgOZS0YeMmWrDIzPRXGSzo0/fjCiUy9b6c3qMbm3iopJ+68p+SUooGnX+e0d4O9gz84Ognqb2GTy1KT0/TXNFDHWwNf4sglQI6ecKMPWwRnda9K03h5wiEMT7+zAvUpVMHntcn00J+D2zguX4sUtvWLTVml24/6M13P9TuRahdbWNnOLDFo6eFY3wXDOyvMe7QFuwWjX76eU1KCPfGmnUb+N5a7KgbA/91Lj9H8zRpQNxzXzKzdOLkqdSCzYGA6YTnfev27bRuw0bD1XwzlmYOJc3hNaVV5VC9b2CfyvpsJCQm0KD+57muWeLGu0MYQiG6W9ywFeSra2Wrl6VbZt5Bb/V+zcObmFoOxqZv+PsWqtjQ3Rez2kaowxcOHkhvv/uB1sx43mVxwhBC5scfHUX3j3rUYArNZeYCDithcnHniNsd2Q/6/U9eMJ2ifv36ULBuAvU65L8QAezOqoyIwpSCEBgeK2703AWtfuXlJoZF05de0BgcuuQCFqg4VCrXrauhWqbGR2u4Dks+ZbJ6zoG5BbsiwMkOqxbvvEnLr7vR8TB0HLZ//CnhsFLlAf3Jyc6zW/VY24/0OeyQWdXFVM8Zke5foO2vvPlWQ/LLruyuH8YRDpVwbVWGEIy3t/32S1pw/mCtLjCF4LbbSrBpEiyT0lpXIOd7eDdeKPQIHOTdZyulKbZdrGnReg5GSr07Rxiexg7yptOiSy7z6G7Dhx+k7Z985pjZ6dY7sVznTtp7f9/UaYTDSpBkbf7Gq9bosJ5H4p0IxgAkRHRas3Y94dAJi36oGOnMFT0+FP+wZwKvVx9//rXGtMGCFYtFHCohnz/bLf/59xWadIMuNYFF9IxZc6iAdaHWFp7wwsVLadLU6T4bs0uvwYt0txlC6EQv3oSFlIveJpg+YHLoRod9dlRJHNj/XII9UKiMgaBe+Mv4P5UcpKmj6canTQleTqLhnQi7pmewtsPEKQXvCv1eVLsMmzPYYPdmY0jNW9RwEzarAebb9Jmztaqg4qlfO71uPBfH2Wsp+uqNMK7bbr6e3njnAzrIcw5QJtuxwxEp+ovNmfhqH8+6dazo67ksfGBVcXVjDEV9d5i3At3okdShqYcF404+UOiqtaxOt8wYTg172XNB4YIeTCN/xqT1dpNKJOlB41/15mBEhjkAe0AwEg0CQyeTdwWcUHp6Oj371GMEVTBvruQ7tG9H77/3JjVp3MhvlTAs+9v4QtHkIV6M8fqtSDLYIqDacrDN4CUSKpQqpfBOWuepEzVJITUeYag/NXv1JZOXrmDbtdYdyvMEntx2+P0XqnPLzbbNYPHdkdPBwNEpkY0f+6NWH7xLtW+4zjZbvRHDqd3331ISP0f+yK16/LUT7vRFinFive3bbrtVDxaL/0RmmFup/Bk9qevcmZpUkDUNz1+XaZMIHpt0wv0bDgIDb8aMmaamGjfy/243FZATRwjMnl0wwVczX33N1eppzIQbPzGamr/2svZ9sHYaniubPP0ENXzoQVLvY3+qwW69E2vdeD2B0Y9vl5UqnXcudePn0Js3TWv+UJ1H4p2IheY1wy633WkvXTpdWzxWVLwcJVkkH4FFIi8ydUpM8L4cUu1E2tWDOjq0a0vD/3cDG7v1lNjB/BN9rVenjt6c1zkpFoq33XQdDbvsEp+Gc9EnSBMhnxNSx5CY5H2s1rq8zZ2t+aznKk5q2JpPPU9S+qX2V82D8IWDzqe7ht+i2VyypqnnkByBhEqZMqXVaC2czN811NGuTSuPNERAAu32/11vm+YtMlreiRgzGGd2VKN6Nbrz9ltMm9nqc6CXSUosfDZ83QOQ0tfJrh6kXXrRYBoyeIDtpns6S7nfNfxWSk4unGd4aw99f/TBe+hMVvnzdX/gGYSEHph+/khtC9I7gZCvPviqJ1FZs6iYFfUdVNR3RwJz5Lyz5HyNSNKiCoGTx07S9kXbKGvVLqrUuDLVaFuTSqYWPmBR1dkgOvPX3xPpldfe1EqCwXPXyOEB1wJvYytWrtJEd2GkrG6d2gajyUllH338GX0/9kct6xBWS7rqSs9dRCf1hCJP4ybNTJIM+o7dFVdcTg8/NCoUTcZEnVCPOcTi49nrN1CZtm2odMsWhnpZTAzAppOwTQGjvtksGpvCag1lO7SnEhkZNjnto6bUrk9HT4nan756OaXxpBJeobAzDlWfdGYuwa5GomJs1a4mt+qxqzta4l588SV65tnnjO7guVq4YD6LpvtnkhmFfATyJkykvL7neeRI6HUmJf0dHj1/j8YDjDielUVQ7Tx58BCV69KZUuvXC7AG97LPZMOtF140xFTh7GHDqMZzL5ricJLAUndJL7/gES8RzhC4aMjFJuZbnz5n06effOyssMNceeN+orwLPe2XJTDjO2nsGIe1OM+Wy8bjYcAZKrRQx4WhZqtnPV+1ufVOXHbt9bTt/Q+1ploy077mNf/W1HnhVQzfs5TatagMb2aVKFvWV3dcScubOIny+ngurGbygvqSCuXI7XdioJ2GpMNGVu+B2k9ZxgOGmLHIjCTBMPRKvo+gWqWrtATbHxjM3sQOX6AmRrxag/0kSN6A2WHdDAu2jVguB/UnqO1sZIzgxQ1GlWFmAq64wfRxQqgDqkbr1m8k2L1p2bypLWPPX13heCf664OaDumm9Rs2aR7V6tSuSU1ZhQqSc5EisBugzgepvWSeX7Zu2Zwy2Ct0sASVrI2btmhSXrAzBMmnamz+Ax6jhUhTrwvk3RG5O0OulqsIlChVgup0qasdrlYcJZWd3bsXfct2YcDUmcb64sOuuIyqM7c4EEL+QMvo9UM/ddwpOwKQVro0yi3c62ouOSxuXJwJ0i0Zp/XQjnjBATvWODJOt98BCmacUAPKYMPVOIpCbtVTlD64WXbylKmm6u66607XmEGmimP4JLlyZYKkQjTQzJlm6SB4vapVsxblRUPn4qgP+K5YJbHuHDnC/RGyTRA7yncoJWxX1ldcEjN8wQRy02OXW+9E7MSDUa8awfY1FtfSvGCdfWozPdLvRCz6IS2EI1oI3sJ6dOviSnew6w9bKKG2h+JKZyNQCSQ8sLmLI1hCHUW9h8L2TgxgkPDABptCOKKBwMAEow6HGwRmUrs2OOylvNxoI5brCPTdIQyhWL7axajveJHczVJBurvEcDM6oC52AdsyAsHAn51YcCQvx6gHHzBJCOl9aal4UNHj5F8QEAT8I4B3jCoCXqlSJbqSJe6EoheBKRYbKyPZNgz9NTF6OxyjPfuHpQlVOo8Zgm3atFGjXAkn1KtrXw+3n8+SkgnMGBcKLQL54+0lFbfwIlreiaHFPlK157AN5m3ZbASY/1moQ8gBAosWrab8moWMiR49evB5G1okJu0coBf5LNDiSmbttypsaaGCp9Zn5DsYhh4IQygMIEsT7iAAr2E4IkHwQhZNKmJWDIYNu9IaJeeCgCBQBATms3c6lSABkerALpNaRsLhQyCb1TNUBt7AgQOoZYsWlCcMIdcvwqxZs0x13jlypOnctZOGLPUB8X+roXBW8ci770FKeu9t15qSijwRyAfj7cuvPRM45p+SJUjeibbQxGTknqNEH64m+mUL0bJ9mnZaTI4jcp1uS3TbeKN5yBb3+c04lUAMIVCNmUJ9axL9uzFR22KkfSYMoRi6SaWrgoAgIAgIAuFBYOu2rdoOOFqrwmpRQ4deGp6GpZWgENi6tfB6oYKRI+4Iqh4p5B+B7WwHAtIhoHPYeHjz5s38FwoiBySDE1gyN/+UPR21ivwPP6ZcthWS+OjDlODQVohaXsK+EcifPYdyL2SDxcx8s9IJ3k3f1rqVvBOtwMTgeS7r076yjI/lRIdPxOAApMuCgMsIZLKljU/XFhyDWUh1dEeiavbayy63HNnqhCEUWfyldUFAEBAEBIEoRGDopZcSjlCSN09F+WwoVSgwBJo0aUJLFi/0LOQNS8WjjWchifGFwPPPP+sr2dW0RPZ2mPvRJ7aMifxnnqfc736ghEuHUAK8yfkxhO9qx2wqq5SdQ/qTm8g2B/OqVbXJ5T+qDLvD1kumsMvxPBvPVf5rCTIHu9/OnzCB8k/ZTLSrJfmmG2ncKy/aJUlcDCGw/xjRtSzKMjkzhjotXRUEwojA2E1EM9mz/cdnEnUs2AMJY+vhbUq8jIUXb2lNEBAEBIGIInB4yVLKZfUaEDyUBbu77lY9EQUjwo3nL1pMuR26ePaialVK2rZRvMh4IhNwTO6N/6P8d97zKJfIbsQTR93vES8R0YdA7k23UP7b70Zfx4pjj8qUoaQ1yymBpSaFYheBoyz4NeAPooVi4yZ2L6L0PGwIpCUR/XwOUesKYWsy7A0JQyjskEuDgoAgIAgIAoIA22lgY/W5GbywyvP0g5X4+y+UyK68hYJHQMO3IaszZWV5VJL4xaeUeKmnS3OPjBIRcQS069jzLCJmoApFEAFW4Uv84TtKHNA/gp2Qpt1A4KbpRN9ucKMmqUMQKB4I1GS1sYn86isfp0anhSFUPO5jGaUgIAgIAoJAFCJwsscZRGyvw4PY1XDSzKmUkJHhkSQRzhDIveFmyn/3fdvMSVs3UEL16rZpEhl9CORv3ky5/f5FtIaNOwiFHwEwg1hNLPGmG8LftrToKgKzWAUG0kG+qCob1q2cQsTmooQEgWKBAGxobTrC+3M+POvdwPtLozvFJxzCEIrP6yqjEgQEAUFAEIgBBPJef5Pybh1u39NmTSnp3bcooUd3+3SJtUUgf/t2yht5N+V//a1tesLZvSnpj19t0yTSGQLbeeL802bmZbLw1YZDBQZpfU2kndXqJ1ce67lk7ab8nAKVVz+5JdktBBKTWEWMDWikplEScwjKJBM1KEPUvQrR+XUKXDW71ZTUE3oEwAwCU8iOzmIe+agORK3K26VKnCAQ3wjA297bK4leXmbPGCrJrunnDyaqnhZ/OAhDKP6uqYxIEBAEBAFBIEYQyD92jHKbtiLassV7jxs1pISmTYjCaVzWe2+iN4VV7/LZAxbNm2+rhqd3PGnaJEro3k0/lf8AEMhkXszTrLn1xTr7CXMAVUnWOECgBDOIruFX0x2tiSqxRIlQdCMA5m2XcfZ9HNqAvY3x3gMLgwkJAsUagV94s+OaKazWb4PCQ+2J/tfSJiHGo4QhFOMXULovCAgCgoAgENsI5H33PeVdenlsDyJGep9w+VBK+vSjGOltdHXzz21E100T99TRdVWiozcV2K7Gh6z92kN3jxYd3ZJeWBD4ZA3RiNmWSD6FitjcQSwEJr6nPcGRmGKJwG0zCzY+rIOHFN03cWjeMdE6UDkXBAQBQUAQEAQEgfAhkDjkQkq4847wNVhcW2rXlhLffqO4jr5I4/6SJYKumCjMoCKBGMeF9x4juugvIuysC0UvAiv32/dtSH1hBtkjI7HFFYFhjexHvvKAfXysxwpDKNavoPRfEBAEBAFBIOYRSHziMUq447aYH0fUDqBrF0r69UdKSItD5f8Qgz5zZ4FUgZ34fIiblupjCIGTfIPAe9WSvTHU6WLW1X3H7QfctJx9vMQKAsUVAW/PxH5mfscjCUMoHq+qjEkQEAQEAUEgphBISEykpGefpsTPPiaqVi2m+h7VnS1RghJuv4WSJv5JCVVFnyXQa3Wc7Tj/bwbRibxAS0r+4ohANt8vt/D9EnID48URXBfGfNLLc1wqyYXKpQpBII4Q8PZMxOu3ULRF4+jmjfehLFu2gv6eOEkbZr8+vakZe+AJF2Vm7qRv2M4HqHOnDtS9W9dwNe2onWefe54O7PeUBe7atSsNGHC+ozokkyAgCEQegcTLLqWEQQMo//W3KO+TT4mWr4h8p2KxB5UqUcJFF1DiyOGU0KBBLI4gKvr84WqizexRzI7gcQVi9fA0VYMFr+CBSii+EYAU0JbDRGM3EX213p7xs4ynIt9tILpEHrv4vhlkdIKAIBA3CAhDKG4uZXwPJDc3l555/iXat2+fNtDLL7skrAPOyChHU6ZMo+MnTmj/n3z0HqWlsRW+KKF33nmXDh/mWZqFTpw86ZghdGLvXjrOLn1BCUlJlMaejWKRTvA9krOOZ6o2lJCcTGXasDsUoaIjkJ9P+XyAEuCWxOKaJJ89PukE6Rch5whArQk2hRL5yN/F/oFXrKT8fbzK4ufZbcrnOvOPF+gRJMKLGT/7MUu4z0qnU0L9+kTwzGa5J/2Ny+c9q9zvqCeQezovJ4dyNm8xmk+tV5c0rI2Y6A28t8q+bzAi/NVpR6nJoc1EsKnAR7jHhXv30MJF9h3k2NKtW8UMzl4H4XLC0a3bKPdIAYevRJkyVKpG9YBbaFSW6KwaRJcyw+fyiURHbF5L77Dr5nAyhKJt/hJt/Qn4InspEMvvMi9DKhbRudnZlM/rF1CJsvwAB/htjGeQ3HgnxgM+whCKh6vIYzi44yAdyjxoGk35OuUprWK6KS5WT37+ZbzBDOpz9llUqWLFgIeyY0cmrVq9hlauWk1Hjx6lypUrUZ3atahTxw6UmuqbuZOSkkKXXjKEPv38S40phP/r/+8/AfchHAXq1q1D6WkF171GDZ61OaT1jz9Fm154ych99pH9lBSD9jayxv1ES6+51hiHNdAvv2Dxa42X88AQmFStNh0Hs4Kp6sUXUdtvvjQqQPykqrWM88ZPPU71777TOJeAcwQSqlQh4iNUwherR95NG59/UetQ8zdepdo3Xu+8c3GUc/tHn5jeGz0W/6MxFPQhrrrjTtr00iv6KfU9maMxzo0IH4E9f/5NCwZdaOTo+OdvVLHP2cZ5tAZWM5Nno+c+g9bd13oQ1Zr3F02P4LhyNm6iWZ27e4Wv+6L5sgFgQWdB/4F0aPESLTbjtB7UZdokSw7np/Ao9mwXthvEKmJWWsR2hHbmFHivsqaF4jza5i/R1h+3MI/Vd5lb44/VeuZ072k899ZvW6yOya1+u/lOdKtPkahHGEKRQN2FNg9uP0BrJqymjdM30Oo/VtCe9Xs8ah38yhA6/ZYzPOJjLeII72Z9+tkXRreHXTHUCDsJLOAdxMefeEZj5HjLf8fwW6jXGT29JWvxAwf8i77+5jutnl9+HU+DB55PVavyYi3KaOzYH6ia2MqIsqsS393BTr1K+SzRp5I1XU0rDuE8ZkBnfvWNNtSk9HSNgRYt41alYljkK1q6FfZ+mHDg1j3OLfd4ccBqMS/q7X/vS+4AAEAASURBVKh1eaK+NYmy5tulSlxxQgDeqZ5kIa0tNmqFMC5dle8TIUGgOCCQs2kz7Ttl1iKtcSMCwzVaSJ2D6ZLd0dI36Ud0ICAMoei4DgH3YvILE2ny8xMCLheLBX4b/4fBzOl5+mlUvjzPRh3Sjz/9Qu998LHf3Lt3ezLUrIVKsTrFQGYCfTfmBy0JNoVuufkGazY5jzACldn+Sre5M41eQHR7/jn9jXMJCALhRuA4v190qbVklvaBRJWQIBDtCGRm2/ewa5Tsg0BFTX3Xo7cLLxhCUAEQCg8C0DzpUtmeIZTJEkJCgkBxQeDAzFnGd77GsCuiiiFUXK6BjDN4BIQhFDx2UjJMCIz76VejpXPP6WOE/QV+/uU3EzMoiW1jdO/WhVo0b0YVK1agzMxdtHDRYoIEkVOCMWudITRh4mS67tprCIwioehBoCQzDEt26mh06MQe/8w+I7MEBIFihkC5zp2o+uUFUpfpTZsUs9HLcH0hcNQs6GdkLZdsBCMaSGAPcmWVdz06U7JCBWEIhfmqeLsfjnm5f8LcPWlOECj2CFQePIjKtGur4ZAchMmNYg9gMQBAGEIhuMgDL7iELrv0Yrps6MUhqL14Vblo0RI6cOCANug0tmfTqmULRwDksUHbz7742shbho0nPvf041S9utmd8wWDB9BuZhggvxOqVq0q1alTmzazgVAYup44aQqde05fJ0UljyAgCAgCUYdANfZqhkNIELAiUHwVCK1IyHkwCMj9EwxqUkYQcB+Bxo8/6n6lUmNcIZAYV6OJosF8+fW39OVX34asRwmJCVSqTClqf3knGvL2ULpp8m0hayuSFf/+519G82ed2dOx15ip02ZQNlvVB0Ey6I1XX/BgBukVw0B1lcos8+yQ+vTuZeT8g42FCoUeARgp1gwYR9DGCXSwj23fQfBiVlTSPHWwvrlWVxHG5FY9RR1PqMrnsfero8x8hQ2eYAjXDPeN7l0jmDrUMvDUcSwzU42KSPgkM8mPbtlKql2AiHTE0ij6A3Udqw0pSzafp1odGNspjyg+MweQmMteGLV76dixAEpJ1nAjUNRn3o3+wn7U8awsOrZjBxuTKhpbA/fzsW3b6fjOnUV7XrkfeJehrjy5h924zFJHlCBw8tAh7b4O9nuG7/KJ3ewht4jPqg4HzAyc3M9ePSNIbr6D3B6GG/MgrQ5+l7l1zfQxQiMA8/SizEH0uorbv0gIhfCKa0whZgyFQlro3NH9qf/TAw0GSfYeG4t+AY5tJuu/vvb666ZSF188hAYPGmSKC+fJosVLjeZatWpphP0FvmLcdep91plUrlw5/bTI/6qU0lp2bw5JITCdhNxDAIySjc++QAdmz6GDc+cRJgw6wVBfrev/j6pedEFIvaBhQbDnj78o68efaC9LgmkMqVOdgB0YqNpknNad6t5xuyPXxoeXLqMNTz5Ne/6aYKoLVZZp05qqXDCYqg29hNKbNdWHavvvVj22lUdB5O7fxtMONiIPd9KHl68wegTMq7Gnv1o3XEelfUgK4t5ZP/oJ2j9tOh3ge0ensh3aU0aP7tRg1P2U7IMBDG9TO774SitW+6YbqGLfszUvXHv5uu2bOk2Lh7tm2Kpq9vILmoqK3ob+v/PbMbT13ff1U9P9i/tofr9/GWl6AOov7ceNoYSSJfUo7R8Tm4Pz5tPu8b/zvfgzHfxngSkd44IoOJ6Jcl06m9LsTtY9MpoOL1tul0S1rrvWr/erg/P/oTX3PqCVzzi9BzUc9QBte/9DyvrpZ9o7YZIx1gq9zqRmr7xo8tRl2yhHgom08Znn6MCs2aZrhmesQt8+1OD+exw968uuvV5j+qCdlh+8y9emPG154y3a/PKrJjUiPG91Rwyn6ldc5thTmLe+S3zRESjqM1/UHmBxsm/yFNrNziKyfv2NctZvMKrEs47nC6pp9e68g0pV9++mHc/4ppdepR2ffma671BpSq2aVIXVN6pcMIgq9D7LaMcuAEb49o8/1e5h3TOYng/9qnTeOVR54ACqxhLpeH8ICQKxgAAYP1vfeU/7ph1asND0jKQ1aUw1r/m3diT7cI6CucHGp56h/TxHzGbvwSA8E2XZa3BFltqvx+9367dUxWblbXfQkRUrtajmb76mMSbwrdjz+x/GvAPPas1r/8Pfn3ttn6+1Dz6szVH1enM2bdKDtGvsj7bfebxLmjzzpJFPD7j5DsJmypKrrvHKFGn6wnPae0hv2+7fjXmQtd79M2bS1rfeIcwh9Lmdds34Ow+19Zr/vcZaxOMc87vFlw0jVuugkuUzqM3XXxTMH559nrZ/+LEx/0DBiuf0owb33U3l/TgM8mgkBiNW8jPw9ZixWs8bsG29YZddYjuKySwsMWnqdC2tS8f2dF6/PkY++YIYUIQuAMYQyE0VshKl3L90O3g3bMKEiSYgOnboYDoP5wlUuQ4pjIAWLZo5ah4Mmm3MIdZpMC/c3KT69euZqoMb+5Ytmpvi5CR4BLA4WHr1tR5ME73G/dNnEA4sQFVX53q6W/+LL7mcGUGTbavDhD/rl1+1Yxcv0tGPlNqFbtathba8/iat+N9t1mjjHJN9HNlr1lDrzz8x4q0Bt+qx1hsN59iRWzXiLtr2wUe23QHmm197Qzu8uZMGA2jRhRebJph6ZWCk4MhkT4HtxnxNGWyg3o6OrFxFe05JJlbo3atg4sr3pEpgUIJphQlO15lTCcwqlbLXrTPqUOP1sF6/fq7/Y6JsncSCsTW3V+FHW8+r/+vjAm7NX3+FwMTyRXAbjOfHjsDE8ecOHddB739iSila//iTtPaBhzyqw7Mzo00H6jxlApXvebpHuh6x64dxtPTf/zFN5PQ0XE8cWWPHUdsx3/hllu5lDy/6Yv4oT84XD73Cdqx41tBm5X+dSyUrVdKbk/8wI+DGM+9Glzc9/yKtHfWIbVV41sEIxrHj8y+p7Xdf+byfsYkxu5v3+x3MT7zHwOjpfdC7fbuTBw/SrM7djcWutXPoF95lOLAI9reRYC0v54JAJBA4wvPlpVf/V2P+27UP5g42HDY88bTX52P7p5/TUmZ4WAnPBL47OLJ+/pXafPmZ13kZvqv65sph/h6svPV2j3kDntV1D4/WGBjtf/zB2pzGDNK/hdZE9MUuDYwfO3LzHZTHDCHdq6ldWw0euM8vQ8iNeZDeNuY16594itY95Km2pl0zXnfu5WM3M+NavvMmlcjI0It6/Odl52hMOySAmYQN0nlnn2O7XgBz79iWLdRjmXM7sR4NxkjEnj17CYc/wtpYz7eJJbFVcp+roNYuYQOBUEoLGY3EWWDZskLpANgPKu/jJaEOXb/ZEZfMu+21a9XU7ATNm/cPzZ4zj3bu3EX16tWhBvXrsZHprlSzZg21uN8wpIF0O0LIvJR324Uh5Bc2RxnwEVt82ZWmvFhMlmnfTtsROMRGwHUpjXxWJwoXYdcKUinpTZpoTR5ZuZJ2jftJC0OqYUbLtnTG1g1UomxZjy5h8akyg3RJl1J8353Yu48n/KtNkhUeFZyKKGo9KJ95SvLFWxu+4rGjXa5rF19Zgk6Dmsic0840do1QEXbnINGT2qABgcGCXSV9sc9ieR5tQb1jdhezm1fsEKU3bkQ5GzZqzDsUAkNjTs+zqOe6VVx3fY961AhdEgYTj/K9zqBS1arRXpYk0Hck0Z8tvOMFKRmVSrdsqUkz6XEnDx0mMDp1gqSTlbDDb2UGWfPgHM8DFn+latTQ1FCyfv7FmMiuuPlWyj1yhCUZRtgV1eKAaVLp0kY6dmiBSTCUxV4ccYDATEK/IH2kP6OIX3v/KI0phLCVIFkEqR6dgHPlAf0ppU4djTm6c0zBJBy7iXPPPJuv2UpT3/Vydv8rbx1uTPiRXpqZ9nj2UFew47VrR+KCQ8CNZz64ln2Xwj0CBgvcRuN9DsYidvuxcMF9M/eM3tRl+mTt3WStCWNaMPBCUzS8DeH7kX/iJB3hdz0Wolho+qMVN/7PeM8gL95lGfz+TShZQnufQYJSX9D6q0vSPRHY+NwLrGbknSHnWaIwJik9jRo8eH9hhIQcIZC9dh1Nb9bKlBfSmmVZQgTG4LG4x/OBZw2HHeF7ozKD8M2ApBzKH1qy1NgAwKbH3F5n0+mrltlK96h1L+RNJBCe/YrsOCaB5/j6M494tAkmE75xKmHDCFIqOmF8+jOJuirwnMFK6T6km/W8RXkHoY5EXvdUOu9cgtqZTmCOBEvBzoP09uBhFRtoOmHeVfHs3tr79SDPP8AMAkGyGvP6dmPH6Fl9/uMeWXjRJabveTle04EwLxcKDAFhCAWGV5Fzh0JaqMiditIKVFfwlSpVdNzLrCzWJT5F5TLK0bz5C+jRx8wimlu3baNp02fSJ599Sf+5ehgNYnfyCfCf6pCq8ssehqVBaj8dFo/KbLVvvJ4qsaitRomJlJSaGtZ+YkcUYrw6YRINyZsybdvoUdo/bKesuPkWU1woTpLS0zURVkhcQC3HSlhYzuGdYH3ysoN3rWrffKM1G2Uq6otQd+v052+UaMEWdWD3GXZOvFFR6znCC/UNTz/rrXq/8Sl165gYQpCy0Xe7kplRohJUsjr+XsAoQHzaKUaamkcNQ/JJFyFGfP377qFGj4wyT+TYPgB21bHQt6NNz79kRGOS2P7nsSZRYUiazOedJH2iuYHFzVvwbpQ/woS1/U9jmUlRW8sKcexl/72OsEsJ2vTciwUi5YraKJgaOHTCAnBK7QLmEyZ7EHN2SmASgZlR5/ZbqTobf1aZOaijKautrbnnftr04stalRu5P3Vu/Z9XNUaruPqqO+40yjrtk5oPWLf78XvTZBlMMixoQWAOHeaJeunW5oUARL9XDR9pVAWGY4u33zCp82GXcsGgC7WFMRbj6598hpwax9Qn5riXGj5wr+mZgyTRmrvvg4E5o30sKkz3LDMEVKr9v5uMa4oFQyAqOlAtVesGwyEeqCjjcuOZdwtDPGNguNS55Sb+BvbzuLawS7HwgosNRuemF16yZQjt40WjzmzEc9FtwVxKa9jA1E3slu/+jdU/WcLVG+Edo6utIk/7cd+zatj5HtnBJN/y5tu2GxEemU9F4J0HG2SgknHkbSjQ+YtVjfQUPI7+cG39MYQC7Y+jhqMgU1Ge+VV3FL7vMRTM76pefJFpVJhTrH/0cfu5Cs8B1j1cKGWC72LHP34jbK7ppG4yYMMG8yaoBvuj6ldern1/knjzGYTneN5ZfY15CdTJrAyh+vfcZapW3dDEXLrVJx+a0n2duPUOQhuoq8OvP5qaw6alOscyJTo4CWYehGo1yUqFGdSQ53UN7r3btPmFTa0FAy7QeoGN1j1//EkV+51ai/jpm745B2kw3Ev4NoPwnsV8cdc4Mw521cXrO9FurL7ihCHkC50QpYm0kDNg9x/Yb2QsU7q0EfYXyIJxuVN0iHfmH+dFhC/64KNPaf+Bg3T1VVf4ymZKK1euUBJkX4SNz5k6VoSTtEYNCUekaANfJ30yjT505V1YO3UOqGZBfBeMoVASGAq+CJORxk8/QStuKmBO4UNmxxA6vGSJUQ0W9FZmEBIxwazNtnF8kVv1+GojkDRvKleoA4tlpx90GGkGU0InTLQbPeqpgsQcW6px9VVUqf95Gl56fvzjvtnIah86NX3hWRMzCPGwR9Py/Xdo0SUFk0PY+AGzIJX1rX1Rq08/MphByIfJVqMnHjMYQmAwwd4UpIdCQZDo8SXynJicTI2fGK0xFIEDDtgcAvMxHNT4ycc8Jsq12Z4RGFT6ZO3I6jUeDCHYedKZc5hsYkKXWKqUqcuQOGrzxac0q1M3LX4Di53XZzsuvkTK1Qow0av1f/9Vo7RwhbN6Udc5M0zxsA3jyz5MetMmhCMYwsLb6fMQTP2RKhPsuNx45t0cMxZ21sWdWj/G2ey1l2lm245aNCTXNPVOfs+ppC64Kvbr48EMQl68G60MY7UOhPG8qGTHDEI6GIst33tbzeo3HCopT78NhzhDpOcv1uFFW3+s/Qv2PNhnHhKyujQp2u7IG2N26slgyDR+6nFb1WfY99IZ/agDasQqMwhxsEMD6TmoZYLWjnpY86KZwJuc3gibNC3ffYsSU1KMLIhr+PAoY74A6fRQklvvoFD1MZh5EOwfrlRMJWBz1SpNjf5WPr+/Zm9Q3+yDCnog38seSxZQaYuNWbxncS84sUsUr+/EQO8F89cs0NKSv0gIRJu0UOkypdkTV3XTmMqXL286D+fJ/v0Fu1hos2zZMo6bViWEjp7yTpTCL/p77x5BbU7tUq9cuZqeePo5w0bR92zHYgAvNCtWrOConTKMlU5qP/U4+Q8cgcxvCg2BYxfBjhmk1urLZo+aL5RhMBl0glqTHYHZoxN2hu2YRnq6r/+i1gNDi1B1CJagQhEK2scGu3XCGOsOv1U/tf23MwiNCaBKVS8Zop4aYSys0IbOiIDBcl8MIU1dkZkVVoI6G8SedRW24zsyQ8YQsrZtd46JbLmunY0JtxOVFLt6gokDk86DmHkHkXCdIaR5a7Jk2vbeB0ZMI2ZoWZlBeiIWvRXZsLRujwGqj06MROrGSfV65D96EHDjmQ/3aKwLjuOsem5djEKqVCc4JIC0gy5xoMc7+bcuXg/MmevIYLyTuiVPAQLtfx6nqdcGg4e3d1UwdRWXMnCIoBO+q3bMID0d/7pErhq3f8Ys41RXUTYilEDN/1xtMITwjT6euZNVrM1rGyU7z8luMDGD9DRsxuikf8v080j8O3kHhaJfwc6DgBm+1zo1euwRPejxD4cWOkMI0tzwpOjkOUM5Ky4elUuEIwSEIeQIptBliiZpoX59+xKOaKEESjC6ks+iok4pIbGwnF7mjVdfJFXtrGXL5vTqS8/R1f8ttF/xFRtnvPlG31Iaen35eYX9SQxA1UwvL/9mBPDy1xfXSKl+2VBzhgieQV1g9/g/WCJpiyaVBGkQeDgAnTx4yOhZ7uEjRlgNqB6xYIgaEkU1rrqSyrAaGqQ7nFJR64GOvTrBcdpuqPPBkLZOVQYPZJ38wJnQcCeuE5gHdrackI4JRsVz+2m66jhXvYLg3EpWdUU1PZXt3Oj3LNzUhoNgXwF2EiAdd2zrVkNlD20fmD3X6EJeTo4RDmUATBd1Eay2Vap6ocSU1VYH1MV0phzKbHn9LQ/7Vqr9gyMrCu3JOWUIQTIoELUute8SDi0CbjzzoeghbADt4Xd99vr1xjPmzX1xrs0zVrp5oeML3N8LBw/RGNx475YIwNOp1bbZkmFXa2oW2DX3tbANBSbxWqevd3u8jjmS44L6r0412ItYMHR040ajGCTwvBFsTqobP5i7+XpuSje3dwqTXKWyqYlgGbymSvycFPUd5Kf6oJJ9PSu+5kHWTVJVWkjviPqd1+Pwf4RNMmi2Q9VImzCYf0LuICAMIXdwLHItrVq1KHId8VZBhmKs7QCrdDmlCpYF5Tn84VCZQXo9FdglcU/2NDSVF1mgNWwQzikd5MmeTuWVfupx8h8YAjkbN5kKQAIj0oRF64bHnzKpIgXTJ+xgbHjqWWMBDJsPOEDY5SrXvRtVYcmVsuwy3LozrLbnVj1qndEQVtUjUi32Npz2L0dhCPma+KE+VS3o6KbNPpuwSgComVXVP0ziQknQqYcYNXbOnJC3SZaTsoHkSa3rXd3OhM8pSU297px16/Wg9q8a3DYl2Jwc27bdJtYzKrV+fc9IiYkKBNx45t0cCJ4X2AiBGqOqtuyrDTtGEdQ08U6HAVoQpNp0yTbYoYPBU9iqgvSc+nxY2wHjGlKyulce7LTDMCsIzCIwmFAH1GftJCat9cm5IBBpBGDvSqdUtkcYDGWztI9O6ndcj1P/k3lDQt90wAaKL7Ugb995qIerBNteoSK33kGh6J83fNCW+h6zzoOy16w1dUe1i2ZKsDmBWnGhbL1NhlNRsG0p5A4CwhByB8ega2nNeo+Pj34o6PLxXFD1KgZbQE4pgw1Jq9TRxiCwng5X9jpDKJPFSp2SyqDKCGDnz2n9xS0fdnB0ws6O+pHR48P5DwkLGLmzuucGoyqFF8G6YV8Y59S9GXiTyoDqW+dpk2gp7/Kq4rMYj+4idcOTT2veo9p89bnXnSy36gknjk7agmcOneA5KxhS759kxtsXJVcuTD/KxuV9kWpTwFe+UKbBKOP8c/qbmsAzklq/HiVXrcozsgLbCAdmzDQmwLBvEg6C2/lgSGXgoXyF3mc5rsYqPeGtoJ3Kgbe8Eh9eBNx45t3sMYyyb3z2eVOVsCGChWsJlqzUSfXUY8cQgp0zuKVfzgbV4TFHJdg+wQHGE+puP26MxiBS86jhBmzfDBKkuocfPQ1SiTh0rz2wIeTEToZeXv4FgXAjAMkanTmDtv0xc7z1T5fIRTpsGfmiFJ5L6GpeYC74IieqSb7Ku5Hm2jvIjc5Y6gh2HqRu9GLOAm9yTgkS7U6oFOZAQq4gIAwhV2AMrpLLLr2YLht6cXCFi0GpKlUKF2672FCqU7LaPapatYrXopWVxWM2f7Ry2Qga3Mr7o+07dhhZKlvESo0ECThGIFn5uGPiYGew03FlLmTc9sFHJmYQDOdCBcU6CYGL7Rmt2vltEUZzuy+cp0l4QBpi/8zZpC4uUAEW/nChCTs/3iSFilIPGFeb2ZtXsFSTxbwDWbg7baeU8nxCPS8YMt0/7K3OF8EFvE5OJx16/nD/57FkzaIhheqTsFnV5LkC5iEWnyotvvRyymS111gglSmH/nb6+3fXu+1Nlc31hqTCgBFw45kPuFEvBcCkV5lBcBNf//57bQ2ITyhb0bSwtasS3wh4T8rZsFHzcHNg5izNq5i6IIYU0uzuPenMHZu92h6DuiMMzdZiA+17/5pAu9ltNL4R+iJXb3vZtddrmwhwMy3kHIHVd91LdrbNnNSAxW3zN151klXyMAJWj7WQvg6GSlWrakjwwSutL1LTS2Zk+Moa8TS330ERH9CpDqgqdxX69KZ233/ratfwHFrnQa42EIeV5Z0yd2E3NGEI2aES4jhIBQ29dAjhX8g7Aq1aFqrRHWdRzV1su6UKu7P2R1YJId2wtF25Y2y7RqVEH54I9HwnuC872IisTnIddSSC/7fu+h9jfCNpNHq74iYTbq69eaDJUXTa/Y6eF/DlWC0MBwh2k/ZOmKipAumeM8C02TdlqofXJlPdQdaDBYq+q2yqz+EJ1BRCwRBKb9aMaNxPWi/8qXB562qK4ins2PZCZq1d/mPbC1WOghVdt6s3FHFHVqw0JsCY/MCVrDdj66rURSj64madaQ0bmqqDDaZoZ86ZOiwnRULAjWfeUQcc2B7c+d33RlVwPd/yw/cM18VGAgesdq/UNLtwav16VPd2NpDPB9RBYPh+49PPmpi2W995z9brjlofbKrBnbLunjuH1VxhkH39Y08Y2eChUxhCBhyOAplffkXBGt8XhpAjiAsz8ZwFKpP6PEez+acYbC7M6DsElXJdyvr4Tt8S/aq6UiTnkr5HVJAaqneQk7ZDmSe9SROjequauJEgAVcQSOINBJ18mQxQtVv0/Pp/YQ16jPyHFIFolgqaO28effThR6bxDxhwPp17bmR2nsqxKhakffad2k1YsWKVM4YQl4NXMZ0RBOZNc3ZfbEc7FcmjSryzl2DZdbcrs1axfwFposYRdNVu179YjIPBTYjR6/YboEqFnVo3SFfv0uuC1IU/EdgjLPmjU+VBA/Wgx/+hBQs94pxGQEwZk/jyZ55BM9t3NnZ+wQSAHQqn5FY9TttzO1+a4sp7N9vKCUY6LKV2baNbsLPjtQ5eIMJjj04p9erpwZD+qxJf3lQL7ToAA9I6wfaIN2ZQ7uHDxmRbzx/N/6rBafQTUg+wryLkHYFZzCwe830h8wI5Bw8aRKex3ZpYIzeeeW9jVo03O5E4zF5VaOy26gWDbJlBaOuw8ix6a9tbPJ5/LIjbfP2Fpm4MCVTQ4aXLtP9AfsDEbjT6YYJB96VXXaMVtXpZDKS+YPI+/MijdOTIEaPovDoXEWV0Mc4l4A4Cn3/+BS1cZPagOeKO4VStWqHBfndaCn0tcIqhM4RgV6va0EsCbjRV+V4f9DH3wqaQKpGnzg8CbjSAAgmKdkGuxW6er2rC8Q7y1X6o0lSbkGDkOZl7h6ovoa430s9qelqqMcQj2TlG2BrY60M6TxhCVrRCdO62VND+Leyl5VihnYjsPdkePT+4/QDtXptlis+oXZ5KlLK/7FvYMOv3P4w15W/IO7mRYgihI+3btaEJEydrfVrEL5Qzzzjd1D+7EzB1+px9Fv38y29a8o8//0q9z7JfYE+YUFA3Mtas6cx+CfqhE5hBTqSK9Pzy7x2BCr3OMHZP1973AFXnCYPVqJ/30t5TwDBRmU2H2XsBJudOydZWBBeG/aCNz5jtTjitU80Ht8SQGtJVAXKVibaaz1/YXz2VBw2gnusKFz/+6rOmJyuqXda0opyX69TRKK7bxrB1ZW7k8gykKwxfMBUx4bTbMd/P6hs6zqglXWFGedbqXoyqIoWJKu4ddeHqrSXViKW3+xBlN7/2hrcqojOe39G4Prox6fWPPUntfzZ/e6Kz45Hr1cqVK+mzzz43daAJ78DGIkPIjWfeBIRykta4kaZahSgwcfxJNSYonh592d7CPeoGQdJSZwh580zppB1d0hR51cWvk7JFzYPFz2FmQuuUO5i9NPWILYZQ19kztAWqPoZA/tV7JpBygeadPGUK/fTTz6ZiVw27MiYZQuX4vt/+acH7C/d/vbtGBvz9VT2tQtq52UvPe6jxA6ztn3xqwsyXUWRTxiKeqBsdgUjEqPdTON5BRRym4+KYX0GaTn8/wX5a3Ttud1w+ljJG+lmtqNhcguZLDjMkU1kwQqXdbJIha7d3swwF1ijVEhJ2HQFIBcFwtJuqRS91eo6eajzaOF7p5rkwnfDUn0a6nnfD1EIDrq4PNAQVnntOX6PWKVOmsbfvPOPcV+A8pdx6NsA4/vc/PbKD0bRVMSp7+mndPfLYRfzJ+vw6qf3T4+Q/OAQaPT7aKAhR7mX/vY4g+eBBLOWx7cOPaQUb7nRKsL2i0/pHHyOrNwQ9Tf/H5EWnrW+/qweNfxhJXH7DzcaHzkiwCax//EnaNfZHUhf3ajaMNWtcgcoU4tOb2kuzFbUeMIygmhfsESqbLKVbt9LsM+mYrLx1OO3562/91PQPUfMF5w8mMPVUwsSj8oD+RtTqkXeTVaQcKh+rRtxl5IFHIHVRZSSEIADGpuo5b+u77ztqJV1xY71zzA+UrUgn6hVAmm7DE0/rpzHz3+TpQpWXrF9+pY3PvaBJdtkNANduC9u/Wn7djXbJEhdjCLjxzHsbsrpoxD3lz05MaUV1HypcUOU1EX9vNr34suEtzJRmOYEhaXiQ9GYjBd+A7R8XLlZLt2BGig1BcmjtqEc049E2yVqUqv7rj+nlrY7iHA9vlMF+C9V3eXHGMJCxwz04pNp0WnL5MNvvGdLhzGPO6b30rMY/pIo0uzGnYlYNH+nxzYAkivo9bPjwgxQuo9GlatUy+gppKN3hiBHpJeDmO8hLExGJxpwRNg91WvfwaILHVG+EDcE19z0Yextc3gYUxnirJ+2ff/vD1PoJdjTy/sfmDSVTBj6xFxWx5pLzoBBwWyooqE7EeKFmWOhVrkRZWbsJdoTm80u2syJR4G14tWvXoga8+AUzCPTGW+/S3Hn/UJfOHTW1sAWszz99xiyjOAxP9+t7tnHuLbCJ9ffRF1AyL/LO6Hmat6wSHyACaSxt1eDB+9n17+NaSewm7Z89h2pefRVhAUH5vOO7fDntZskvGNeswhIvTqne3SMJi07QLma+TG/emsqf0ZPAJAGh/to3XKeF8VPp3H6G0WfsapzYvZsgtYL8mKwjzsqUMApbAlksoQaX4ZBSqvHvYYRFAMYKPV9MGmD/Qd9BwWSnopf70K16LN2LitNGjz1CmV99o+EALOb3PU/znAOmTWqd2gSvVId5orfppVe0/kJlwkoNH3qQsn76RYvGtZnd4wyqc8vNBOkh2NfZygs19Zo1evQhaxUhPa865CKj/6vvvIcnRn9R2Y4dqMQpr4hQK8HumSp2DiPiqnTbHB4TJriIP8ZeEWFvavMrrznuN54pqwSaqkKnMeIsdtTgraXywPMdt+E0I565usNv0xbbKANMdrJR7GqXDzV2jiHNdZDf1ds/+kSrFuMWig8E3Hjm7ZCowcbvsfDAewTM9ulNW7E0WqG6JTx3NX3xOaMo3LevOXWGxSSeMdiMg1QB3hs7vxtjvFeMQl4CKA/bPituukX7XoDhDImlEqVLa3XhWYVKq07e1GZg5wzfQRyQpKvIBlnTGjfmd0FlZnTvoh0soaMakK/Cqm5CgkA0I4Dnrvnrr2jfdvQTc59ZrCpf+383UZm2bahk+QyC3Z/9M2aSN/fkYDA05O82GEEgfM+ObttO1a+4jD1uViGo8ENqW59PIQ/mAOEi2CrCNwrvARAMx1fn7xkYYbqZglT2Umt97t18B0H6eMeXX3sM+eiWrUZc5hdfaTgbERyA1GZZB2srtYyTMBiB2FTF9dbmduwxtdolQ6hCn7MpjW1Cndh/gKW2V9P+aTOMOXq9EcOdVC15FASwHq1dqyZt4W8eaOr0mZTJdraa8wbzAb4n5vM86vDhQjVfpagRFIaQAYW7gWi2FeTuSENf24WDB9Lb736gNTT+978cMYSQ+fFHR9H9ox41mEJz581nptB8jw7jQbpzBC/EHNgP+v3PQsmFfv36UIkS8gh5AFqEiAb33qUtWDe98JJWCxaE2DEoKpXveTrV4YmHrlqDnQjVhSkm3SpDCHnx0dQn75h8qxNwvT8t3nEutQBVJtWbjV6H+t9u7HfGxEGNV8Nu1aPWGekwmB4dxv9MS4ZdbVyXbe9/SDicEpgrTZ9/xpACwvXVJ47WOsBUCfeueoP779EmurqdLKi14VAJ911CaqoRBftXLd9/mxYMuECLQ1ksNq0EY7jwwKJKH1jz4HzlzbeaJsvWPLt+GEc4VIJtn1AwhNAGmAKQmtCfSzxv+jOn9kHCvGu+f78HDGmnGNoeCTEQ4cYzbzdMGGHGe3nxZVdqyViEWN/dKkMIi6B6d44w3s1YuCy65DKPqvHO2P7JZ8b7ySODJQJMTJ2RaUnSTsHUdrIAg1qlrlppVw+YQbVvusEuKSRxsM2oqouhkZI8hzoektaKd6V7bLxupirfh1hDpyIzAVq+/44m/Y2+49nc8GShBImT8dRmr3sH+TuhM43gmAOHlbC51vrzT8LqrACbOU1ZjW1e735Gd/R+6hHY5LIyhNx8B4EJ7k96fgMbt7cSNmOdvI+s5fydw1ti2zHf0LJrriVIM4O8zaf91RXN6dHwrA46/zx67a33DJjWrF1POHQqydeiQf16tIoZr3YkKmN2qBQxDuph0epOPiHJ+yVPKpHkMXLVcrlHYpgiYA8IRqJBYOhk8s64E0rn3YRnn3qMoArmzZV8h/bt6P333qQmjRv5rRJGFH8bXyiGN+TCwX7LSIbAEEjkyQ4W9V2mTtR2WryVxq5Lgwfu85ZsG9/s1Zeo7bdfUeX+/9KkLtRMCZZ7Hx+xDr//4nV3CVI+HTldVVNC3+0IExgs2H0Rdkx6LP7HJ5PCrXp89SOSabCt0WPJAk1KRhULV/sEEf9mr7xIqlFaNR0SNl2mT9ZUAdR4PQxR/45//kaQJvJGqt0q3AfeSL1nVKkeb/lhEPr0tSs0g7AwGm6rdmDDlK58fn/tXsPYrQScIHXW/odvqUTZskayk/4Ymf0EEnmxp5Jat298FOwUY5tqXZC4w3PZacIfmuScmqaGwTyANFGLt33bSlL7o/ZTrStWw9NnzDB1vTQzCwey04dYJjeeebvxY8HVfeE8beFl99xYyzR+YjQ1f+1lkzqKngf3HtQb8c7wd39VOqevJhHg7f2FOqG+DHtZvr5f8MIG5rCvvqNfzd98jdp88SmpRuv1fofqf5HFyDHaadumTaiaK7b1gvE2g6VlVOrF341GjfzPVdUy0RaGxMgZm9aZ5k7WPoJp0va7r63R2jnmWWD0gOnr7TlDeTz/6vzMWplqt0d9rq35TOcW6VlT2qmTCmf10trGBqPd82v9nup1uPUOcjwWveFT/+p8BlFuzoNS2Qtsx79/1yTE8N7yRpCuAg4+GdzKGtbbnNtb/aGKj5ZntQlrHlwz7HJbu7alS6fTbTdfTxUrVjBgSLLczwn5TEaqBASBKEXgr78n0iuvvan1Dgyeu0YGLlIIb2MrVq4i6FLWY08ddVkVRWc0ORn2Rx9/Rt+zLRjQkIsuoKuu9NxFdFJPKPI0btLMtGuHxQLoiisup4cfGhWKJsNSJ2z1QIz4CF83ED4sEMEPp4tqSGVAUimb3bansBoBDFKXyMgIePzwLnWE64FNi+O7sjT1sxS+BzEmXx9Ja0Nu1WOtN6rO+bMETyGHV6ygY7zjBXsPKSxqDVU7pwt9eBiCilgOrhvjDNsiyZUrR9UwA+kMJGmO8LOA5wH3QJl2bTVR9HAuBgPpbzB5ted91Wo6wgcIajspNWtSav16PENNQFSxpBy+3g0aNjaN/aFRD9INN1xvinP75NnFRM/wYaURrLl3T1trbBHPXXjmi9gDzWYd7j08Y2BWQuowGIO0MACPOqD6BRUvqAfjHQRvR/ASFsi9DFWPo5s383cjU+tfKWZqa/XUr0dQwwk3vfjiS/TMs4Uqd5hrDPhwCX26wcw4Rr+e7Ex0bdNw9zA+2pvJDhAuvGiIaTC//vIztedNzKLQ/00lGrvJs4a3Tye6sJ5nfChjYEAZ32fM706wBCTUw1MbNOD7u5azZvmdAYmYw0uX0ok9e7WNotJsd8/qWdZZZdGRC3Yz3XgHRcdo7HuBuZk2RraJCHVa7TvP175Utejynnc8l50Nfek5hhI8FdlxRWF8qJ7VwhYCC8G8ykY2b7Jh4yYqyxuFbVq1oHQH0sTKFl5gDUpuQSCcCJzduxd9O+YHAlNnGutGDmOd4erVA3t5IH+gZfQxQvdy3Cn7JGAiXXrxhXpSVP7rIt1YSMQyYVIO/XIckSIwa3BknF40e1HYzXBjLG7VEyk8HbXLi39MEoJZjOn1l6xYkaAqiCMeCDt2kEzzZog2HsaoPe+84ClTxEVPPGChjmGBxcVyJZY2u+qqYWqW2A+78MwXFQQsJMEEwlEUAtMatstU74fB1ofFseMFcrCNBFBuMtstU+muu+6ktRYpQjVdwsEhMHOmWTro3HPOKTIzKLiehK4UpFmwwYcjKOJ3RrQ9H0GNQynk1jtIqTLqgpibQToURzxQtD2rMIMCaSEcgZAwhAJBS/JGDAHY97mbpYKmzSgwBB1uRgfUxS5gW0agdm1bUyl2ZR5NNOrBB0wSQnrfWioeVPQ4+RcEBAFBQBCIHQRmzSr47uk9vmP47RTL9oP0cch/bCGAedfs2bONToMxeSWkkAts6BrxEig6AlPYcYZKI9nOlZAgIAhEHwLx8qwKQyj67i3pkRcE4DUMRyQIXsiiSUXMisGwYVdao+RcEBAEBAFBIA4QmDR5ijEKLMIvvzx61JWNjkkg7hGYP/8f0xjvHDmCYtnIsWkwUXSSzaryKuNt4MAB1LJFiyjqoXRFEBAEgEA8PavCEJJ7WhAQBAQBQUAQEAQEgShEII/tz8CDCRhBoAfuvy/qJFSjEDbpUggQ2Lptq3EfVmF7bEOHXhqCVqTKrVsLcQYaI0fcIaAIAoJAFCIQT8+qMISi8AaTLgkCgoAgIAgIAoKAIJDInkCmTyuUEBJEBIFIITD00ksJh1BoEWjSpAktWbwwtI1I7YKAIFBkBOLpWfXug7zIMEkFgoAgIAgIAoKAICAICAKCgCAgCAgCgoAgIAgIAtGIgDCEovGqSJ8EAUFAEBAEBAFBQBAQBAQBQUAQEAQEAUFAEAghAsIQCiG4UrUgIAgIAoKAICAICAKCgCAgCAgCgoAgIAgIAtGIgDCEovGqSJ8EAUFAEBAEBAFBQBAQBASBGEUgIUb7Ld0WBAQBQaC4ISAMoeJ2xWW8goAgIAgIAoKAICAI+EEgJck+w6ET9vESWzwR8HY/JMsKo3jeEDJqQUAQiDkE5HUdc5dMOiwICAKCgCAgCAgCgkBoEaiSal///N328RJbPBH4x8v94O3+KZ4oyagFAUFAEIheBIQhFL3XRnomCAgCgoAgIAgIAoJARBBoVd6+WTCEZu60T5PY4oXAb1uI1h2yH3NrL/ePfW6JDQcCosYXDpSljXhGICFOHyJhCMXzXStjEwQEAUFAEBAEBAFBIAgEWmQQ1UizL3jdNKK1B+3TJLZ4ILB0H9FtM+3H2hz3Trp9msRGDoGSXlZ9h0UNNHIXRVqOSgQOn7TvVryqwpawH67ECgKCgCAgCAgCgoAgIAgUVwSwE3pNE6LHF3oikJlD1OdXopuaE/WvQ1STGUdJcbpz6jn64htzMp9o82GisZuI3ltFdDTXHov/8n0jFH0IeFPjW7CH6KrG0ddf6ZEgECkEvKrCpkSqR6FtNyGfKbRNSO2CgCAgCAgCgoAgIAgIArGGQDbvknYZR7STGUBCgoATBBqWIZo2gKiEF2kUJ3VIntAgMGYD0Q3TPetOYwPyswcRVfMiEehZQmIEgfhG4MK/iKZmeo7x/NpEH57pGR/rMSIhFGNXMO9ELuUcPOqz18mpJalkWrLPPJLoDIGjB45S7snCLbCSKSUpOV2wdYae5BIEBAFBQBCIZQTSeJb4YjeiKyYSye5hLF/J8PQdKkkvdxdmUHjQDryVM6sXSPLlWh7mbJ7mXj2F6OveROVkihs4sFIirhCAVKwdMwiD7FMzroZqDEYkhAwoYiOwbcFWmvkWK+/7oAY9G1KHKzv7yCFJThH4aeRYOnaokAFXq0Nt6nb9aU6LR32+ozknad6snbRl0yHasvEQHT50nOo2KEcNGpej1u0qUSVv8sVRPzLpoCAgCAgCgoBbCLy5gmjUfLdqk3riFYFXmBl0WcN4HV18jOu6qUQ/sMqfHUH1c3grorN50VuZVWNEC9QOJYmLRwRgMwhqYm/wt84bM6g8M0v/uYCodMn4Q0AkhGLsmoqGX+AXbO/GPXRwe6H1y4TEBKrTtS4lxKupeAcQ/TNnF33x4Qr67vPVzATybk3wvse60o3D21IqtomFBAFBQBAQBIolAjeyraBKpXixOIvoWF6xhEAG7QOBdJ4ivMV7ZeeyOoVQdCNwbzuinzYTwR6UlbZlE42cY42Vc0FAEAACd7SOT2YQxiarPKAgFNcIbJ61idZOXG0aY+1OdSihRPHd+3jk7pk0fdI2EyZ2J088MJvGfbOWxs+8SJhCdgBJnCAgCAgCxQSBixsQtatINHoB0W9bi8mgZZh+EbiwHtF9zGSoW9pvVskQBQjUZxtPYArhORYSBAQBZwh0rUz036bO8sZiLmEIxdhVy6iVQa0vbGv0GibBl/6wyDiXgCAQKALtO1ehnr1rUvNWFTUVsU3rD9Krzy4g/IOWLd5DD46YTs+9eWagVUt+QUAQEAQEgThCgLWJ6ZNeRMv3EY1jtZNZWUQbDhHBbXWejcRBHA1dhsIIwJNcGVaXaFCWqHsVogvqEjXie0IothC4tSXRqv1E32yIrX5LbwWBSCAAZjcMScNGWrySMIRi7MqWrlKGmp7DstunCCpkwhDS0ZD/QBDo278u3XZPB+p2OlsZtNBlVzejKwb+SpP+3KKlfPTWMrr93o5Uq45sAVqgklNBQBAQBIodAi3KE+EQEgQEgdhE4LUeRNXZZtDLy2Kz/9JrQSAcCEAyCMwg2NSKZ4pjXlc8X7bQjg1Mppx92ZR7nC1suUB6fflBbB+ePHaSsvcccaEXoaniKHt8cwun0PTQvtbPf/wXfflzf1tmEEqUSkmip17taSq8fDFbWxMSBAQBQUAQEAQEAUFAEIhpBGBG84H2RN/3IWpTIaaHIp0XBFxHAAakR3dkA+x9458ZBPBEQsj1Wyg2K4R79VW/r6C9G/fSnnUsA36K0iuVpvJ1ylPdHvWpeusaerTpH0yRuR+wpUmFGvVuQqnlU2nd5LW0feE2w1NX5SZVqcMVHalMNZY39kHrJq6hjbM20D7uD6hUmRSq0a4mtRzYmjbP2UQ7l+4wSieWTKLTbi5kXiz+dgEd2HbASN+/leViLTTt1ckeRqWr8fgan93EktPz9NihY7T6z5W0Y/F2OrijoJ2y1dkrF6vyVW9jj5G1lhEj7qTMnZlGdImkEvT+++9SiRLheSRLQ+bbDzVqmkHIpxudXr5kL/U7v56fUpIsCAgCgoAgIAgIAoKAIBALCPSsRvTXeUSTeUr6Mxubns97f1t4Hzab94RhlkJIEIh3BMAcTWYRmSosBdSSJV/hWn5Q3fg1IG13PcOz+rRrWeKiBoHti7bRHGbonDzq6W3qyO7DhGPrP1uo3mkNqO2QdlQyjdmmCuWyFM/OFYXMDSRVaFCJ1n+y1mAE6dmzVu+k3x/6lfo+eC6VY3tIVoIU0YIv59P6KWtNSXD9vmHqOtq7YQ+llU/zaE/NvGf9Htqz3rc0y66VO9UiWji1QrpHnDUiLzeP5n40mzKXbjclgTE0/fUp1OnfXakeM8/80cRJk2jHjkKmFvJHmwe548fzDGYQ+le9pn98kE9IEBAEBAFBQBAQBAQBQSA2EMCCuBdbD8AhJAgIAsUPAVEZK37X3DTiTbM20ow3ptoyg0wZ+WTj9PU0483p1mjb8xW/LPVgBqkZV45frp4aYUgpWZlBRiIHDrC0z44lZmaMmh7qMJhnVmaQ2uaS7xdR3sn48MlrVRHr2LWqOlQJCwKCgCAgCAgCgoAgIAgIAoKAICAIxDACwhCK4YtX1K6fYImgxd8t9KimfL0KBJWv2l3qeaRBwmfbgq0e8d4i7KSAkHfL3M10Ivu4qRhs8awcv8IUp5+gT04ptUIaq6sVHnbl1HQ9nFK2lF1W2ziUsSNIMtlJH9nljfa4Lz5caXQRqmMNm3hKdBkZJCAICAKCgCAgCAgCgoAgIAgIAoKAIBBTCIjKWExdLnc7u4qZL2BgqNRiQCtq3r+lYV+n9eDW9PeTf5ryLfz6H82eTwJkTH1Q1//rQbU71aGc/Tk0650ZJttEKJbNhqvLKepnm2dv8pBUKlO1LJ05sjellE2ho1zPxGf/1lTYfDRL3bhdlRZ+9Q+tnbhajaLzHjufEksExw9t0LMhtb+iE8Hg9ZIxizwkmo5EsRFsEwg+TubMyKQP3lhq5Hj4mR58TxinEhAEBAFBQBAQBAQBQUAQEAQEAUFAEIhxBIJbEcf4oKX7BQhAXcxKjc9uajCDkJZWMZ0NObcyZYMHMjB5fBEkesAMAqVmpFKDMxp6ZIcha5Xs7P50uLKTxgxCvhSup+OVndUiEQlDegrMsJIpJalJ36YefQA+/qhOnTpUvXp10+GPweavTrfS9+w+Sldd8JtRXbee1enKa5sb5xIQBAQBQUAQEAQEAUFAEBAEBAFBQBCIfQREQij2r2FQI8g7kau5llcLQw1q5/LMQuPGp7wL5OzzZP4cyTqsGXdWy6vhKk2rqqcaU8gUwSdWd+1HdpsZKfAsVqlxZVOxys2qaB7HrJJNpkwhPCnBTCDVQ5qd6lju8Vy/PRj7wxi/eSKR4WjOSfr3hb/R7l0F17xSlVR6/+tz2PuZ8I4jcT2kTUFAEBAEBAFBQBAQBAQBQUAQEARChYAwhEKFbJTXa6fWBMmWWe84MxoNhlDlJlW8jjKlXKopLSnZ81bLY49iKh3OOqSeUgZ7IbNKzeAcLt6zLKpupoIhPKnYsBIlJBbqTiWxy3srWcdlTY/W85NsDPvGYX/TrKmF3s++HT+Aqla3t5cUreOQfgkCgoAgIAgIAoKAICAICAKCgCAgCPhHQLb9/WMUlzmy95qlcQId5NFDx3wWSUwqZJr4zKgkWlWtrO7t9axJyZ5MGD0t1P8lS3kytkLdZjjqz2fe3F03T6Gfxqwzmvvh70HUun0l41wCgoAgIAgIAoKAICAICAKCgCAgCAgC8YOAMITi51oaIzHL3RjRpkCyYszZlBDBk/RKpU2te7NTZPVOZiokJ0EhMPremfTJO8uNsu9/cw717F3TOJeAICAICAKCgCAgCAgCgoAgIAgIAoJAfCEQn+IO8XWNfI7GqlKFzCeyT/gsg8T0ymbmC+LqndaQmvRpgqBfgqFot6k09+nI7sNGtQe27dfsDKnqZvDsZWd82igkgYARePmpf+iVpxcY5V58txcNutjTCLiRQQKCgCAgCAgCgoAgIAgIAoKAICAICAIxj4AwhGL+EhLBNfuhnQeNkahhI9ISSE5PJhhIPnm0kHl07GAOla1RzpLT8zSfbf+odnQ8cwQXk1Yp3VQQfdsybwvV61HfiN8yd7MRdhpIsFFfO374mOa1zGkdbud76OFHaHdWllFtYlISvfTiC5TE/+GkD99cSqPvnWU0+cizPWjYtS2McwkIAoKAICAICAKCgCAgCAgCgoAgIAjEJwKiMhYH1zWtgtno74Gt+zVvYf6GVtniwWvHku20ccZ6r8X2b9lH8z6eTZOem+A1T1ESqreu4VEc7W1ftI1OMHNo24KtNP/TOR55/EXYeQJDXZGkn376mb7/YaxxfPfdGMrLywtrl777fDXdedMUo807R3Wim0e2M84lIAgIAoKAICAICAKCgCAgCAgCgoAgEL8IiIRQHFzb8nUr0M4VmaaRTH15EnsBq8qqYZC6KTDwXKF+BWrQs1AVqNXgNgQmkErzPp7DTKENVKNNTUotn0rHjxxn6aNDtG/TPtqzrkCiJaNOBbWIa+HqbWpoHsQO7jhgqnPGG1NN54GeWBlmKL/gq/m0+q9VjBG7tU8o4IsiXLdbvUCrj8n843/cSDdc+ZfR9xuHt6W7H+linEtAEBAEBAFBQBAQBAQBQUAQEAQEAUEgvhEQhlAcXN+GvRrRyvGFBoH1IWWt3klZq/Uz0tTDVIZQOXbr3qRPU40xUpiLaPeaLO1Q48IRhj2k1he2pemvF0qtuNFupUbM9LEh2CtSbRYhS3FhCN1w5Z8mRCb8vpmmtPUtNdW3f1164IlupnJyIggIAoKAICAICAKCgCAgCAgCgoAgEJsICEMoNq+bqddQiWpzcXta/G2hYWBTBh8nLQa2ppPHc2n9lLU+coUvCVJCp99yJk17dbJto7U61WGBnkTaMmejbbpdZErZFGo3tCMtZKkgIXsEVi3fZ5+gxDZpERrJMKUJCQoCgoAgIAgIAoKAICAICAKCgCAgCIQJAWEIhQnoUDcDSZ+K9SvShunrae/6PWRVu0L7pzSjTF0pUaoEdbiiE9XtXp8Wfj2f9m3ca0pXT8B4qtWxNtXqUFuNtjUwbTU6nZhYoLamFkxkiSA7qtaqOp33+ADNDtLeDbspe282VahXkSo0qEjVWlanGW9OMxWzsxFkysAnjc5qrKmHrZu0lg5sO8B1HqGcfdmmbIk2xqcTS1jMbNmMw1QJn9jVY82TnFzSGsXn9njYZIxIVMmSFiwi0gtpVBAQBAQBQUAQEAQEAUFAEBAEBAFBwA0EEvKZ3KhI6ogPBPJO5mlqVIezDtOxQ8eoVOlSVKpsKUopk0JpFc1ewCIxYvTvl3t+5L4dNZqvykyinreeaZxLQBAQBAQBQUAQEAQEAUFAEBAEBAFBQBAQBHwjIBJCvvEpdqmQiClTrax2RGLw8GS2/JdlmvHrqs2rmaSP4O5++c9LTcwg9LF05dKR6Kq0KQgIAoKAICAICAKCgCAgCAgCgoAgIAjELALCEIrZSxefHT+Rc4K2s0t4HKVYKqlczXIsmVSa8tklO1ThDu086DFwqJEJCQKCgCAgCAgCgoAgIAgIAoIFe04QAAABP0lEQVSAICAICAKCgHMEhCHkHCvJGWYEoBa2ayVUw3Z6bRlSRDBELSQICAKCgCAgCAgCgoAgIAgIAoKAICAICALOERArsc6xkpxRhkC5WhnU/vKOUdYr6Y4gIAgIAoKAICAICAKCgCAgCAgCgoAgEP0IiFHp6L9GxaqHR/fn0Oq/V1PW6p22Hs9KpJRk+0ZlqOGZjahut/omG0PFCigZrCAgCAgCgoAgIAgIAoKAICAICAKCgCBQBASEIVQE8KRoaBGAEenjR47T8ezjlJ+bR6kZaVQyzc5de2j7IbULAoKAICAICAKCgCAgCAgCgoAgIAgIAvGGgDCE4u2KyngEAUFAEBAEBAFBQBAQBAQBQUAQEAQEAUFAEPCDgNgQ8gOQJAsCgoAgIAgIAoKAICAICAKCgCAgCAgCgoAgEG8I/D8xx4KcuITFwwAAAABJRU5ErkJggg==;" vertex="1" parent="1">
          <mxGeometry x="90" y="630" width="245.72" height="44.64" as="geometry" />
        </mxCell>
        <mxCell id="XgqLP4rqvhBCR10PbByP-14" value="" style="endArrow=classic;html=1;rounded=0;fontColor=default;" edge="1" parent="1">
          <mxGeometry width="50" height="50" relative="1" as="geometry">
            <mxPoint x="108" y="598" as="sourcePoint" />
            <mxPoint x="108" y="548" as="targetPoint" />
          </mxGeometry>
        </mxCell>
        <mxCell id="XgqLP4rqvhBCR10PbByP-15" value="&lt;b&gt;&lt;span style=&quot;&quot;&gt;&amp;lt;&lt;/span&gt;div&lt;/b&gt; &lt;span style=&quot;&quot;&gt;id=&quot;app&quot; class=&#39;container&#39;&lt;/span&gt;&lt;span style=&quot;&quot;&gt;&amp;gt;&lt;/span&gt;\n&amp;nbsp; &amp;lt;div @click=&quot;clickHandler&quot;&amp;gt;\n&amp;nbsp; &amp;nbsp; before\n&amp;nbsp; &amp;nbsp; &amp;lt;span v-if=&quot;showSpan&quot;&amp;gt;span tag&lt;span style=&quot;background-color: rgb(255, 0, 128);&quot;&gt;&amp;lt;&lt;/span&gt;&lt;span style=&quot;background-color: rgb(51, 153, 255);&quot;&gt;/span&amp;gt;&lt;/span&gt;\n&amp;nbsp; &amp;nbsp; &amp;lt;div v-for=&quot;item in items&quot;&amp;gt;\n&amp;nbsp; &amp;nbsp; &amp;nbsp; &amp;lt;span&amp;gt; {{ item }}&amp;lt;/span&amp;gt;\n&amp;nbsp; &amp;nbsp; &amp;lt;/div&amp;gt;\n&amp;nbsp; &amp;lt;/div&amp;gt;\n&amp;lt;/div&amp;gt;" style="text;html=1;strokeColor=none;fillColor=none;align=center;verticalAlign=middle;whiteSpace=wrap;rounded=0;fontColor=default;labelBackgroundColor=none;" vertex="1" parent="1">
          <mxGeometry x="90" y="920" width="1140" height="100" as="geometry" />
        </mxCell>
        <mxCell id="XgqLP4rqvhBCR10PbByP-16" value="" style="endArrow=classic;html=1;rounded=0;fontColor=default;" edge="1" parent="1">
          <mxGeometry width="50" height="50" relative="1" as="geometry">
            <mxPoint x="281" y="598" as="sourcePoint" />
            <mxPoint x="281" y="548" as="targetPoint" />
          </mxGeometry>
        </mxCell>
        <mxCell id="XgqLP4rqvhBCR10PbByP-17" value="" style="endArrow=classic;html=1;rounded=0;fontColor=default;" edge="1" parent="1">
          <mxGeometry width="50" height="50" relative="1" as="geometry">
            <mxPoint x="703" y="1027" as="sourcePoint" />
            <mxPoint x="703" y="977" as="targetPoint" />
          </mxGeometry>
        </mxCell>
        <mxCell id="XgqLP4rqvhBCR10PbByP-18" value="" style="shape=image;verticalLabelPosition=bottom;labelBackgroundColor=default;verticalAlign=top;aspect=fixed;imageAspect=0;image=data:image/png,iVBORw0KGgoAAAANSUhEUgAABLwAAAEUCAYAAAAhqC8eAAAEDmlDQ1BrQ0dDb2xvclNwYWNlR2VuZXJpY1JHQgAAOI2NVV1oHFUUPpu5syskzoPUpqaSDv41lLRsUtGE2uj+ZbNt3CyTbLRBkMns3Z1pJjPj/KRpKT4UQRDBqOCT4P9bwSchaqvtiy2itFCiBIMo+ND6R6HSFwnruTOzu5O4a73L3PnmnO9+595z7t4LkLgsW5beJQIsGq4t5dPis8fmxMQ6dMF90A190C0rjpUqlSYBG+PCv9rt7yDG3tf2t/f/Z+uuUEcBiN2F2Kw4yiLiZQD+FcWyXYAEQfvICddi+AnEO2ycIOISw7UAVxieD/Cyz5mRMohfRSwoqoz+xNuIB+cj9loEB3Pw2448NaitKSLLRck2q5pOI9O9g/t/tkXda8Tbg0+PszB9FN8DuPaXKnKW4YcQn1Xk3HSIry5ps8UQ/2W5aQnxIwBdu7yFcgrxPsRjVXu8HOh0qao30cArp9SZZxDfg3h1wTzKxu5E/LUxX5wKdX5SnAzmDx4A4OIqLbB69yMesE1pKojLjVdoNsfyiPi45hZmAn3uLWdpOtfQOaVmikEs7ovj8hFWpz7EV6mel0L9Xy23FMYlPYZenAx0yDB1/PX6dledmQjikjkXCxqMJS9WtfFCyH9XtSekEF+2dH+P4tzITduTygGfv58a5VCTH5PtXD7EFZiNyUDBhHnsFTBgE0SQIA9pfFtgo6cKGuhooeilaKH41eDs38Ip+f4At1Rq/sjr6NEwQqb/I/DQqsLvaFUjvAx+eWirddAJZnAj1DFJL0mSg/gcIpPkMBkhoyCSJ8lTZIxk0TpKDjXHliJzZPO50dR5ASNSnzeLvIvod0HG/mdkmOC0z8VKnzcQ2M/Yz2vKldduXjp9bleLu0ZWn7vWc+l0JGcaai10yNrUnXLP/8Jf59ewX+c3Wgz+B34Df+vbVrc16zTMVgp9um9bxEfzPU5kPqUtVWxhs6OiWTVW+gIfywB9uXi7CGcGW/zk98k/kmvJ95IfJn/j3uQ+4c5zn3Kfcd+AyF3gLnJfcl9xH3OfR2rUee80a+6vo7EK5mmXUdyfQlrYLTwoZIU9wsPCZEtP6BWGhAlhL3p2N6sTjRdduwbHsG9kq32sgBepc+xurLPW4T9URpYGJ3ym4+8zA05u44QjST8ZIoVtu3qE7fWmdn5LPdqvgcZz8Ww8BWJ8X3w0PhQ/wnCDGd+LvlHs8dRy6bLLDuKMaZ20tZrqisPJ5ONiCq8yKhYM5cCgKOu66Lsc0aYOtZdo5QCwezI4wm9J/v0X23mlZXOfBjj8Jzv3WrY5D+CsA9D7aMs2gGfjve8ArD6mePZSeCfEYt8CONWDw8FXTxrPqx/r9Vt4biXeANh8vV7/+/16ffMD1N8AuKD/A/8leAvFY9bLAAAAbGVYSWZNTQAqAAAACAAEARoABQAAAAEAAAA+ARsABQAAAAEAAABGASgAAwAAAAEAAgAAh2kABAAAAAEAAABOAAAAAAAAAJAAAAABAAAAkAAAAAEAAqACAAQAAAABAAAEvKADAAQAAAABAAABFAAAAABqPKvUAAAACXBIWXMAABYlAAAWJQFJUiTwAABAAElEQVR4AeydB3wURfvHH0pCChAgIZTQpfcOUgTpCCggiogi9i4WLK/dv11fFRX1tTfsChakCAJSpCggHem9BAIESAghwH9+e8ze3uUuubvcXXJ3v+Fz7OzM7JTvXvZ2f/vMM8XOqiCWMHveImPvwq4dLamMkkDRIrDw3mmy6rU/jU51eWugNL6tvVcdPLwmVb5rOt44JqF+ogz/d4xHxzv9uYjet24RP3nypPFBpdY8ayM6/Z8Vq+SWO+8zsuLiYmXWtJ+sxbyKD71ilOzZs8845tsvPpIa1at5dPy48f+Tr7+daJSte15t+ejdNyU6OjrXses3bJDRN9xhps+YMlHKlC5t7uvIn4v+knsfeETvykfvjZfGDevL408/L7/NmG2ko50PVTulzrVTrFgxszwieh/bF14eJxN//tVIe/apR2XYkIuNstYy1oN1+smT2dK0TSdrVr7xuufVkak/fetQ7tjx49K6Y3czrW/vHjL+tZfMfR35v+deks+/tB07auRweew/9+ssY7v4r6Vy1bU3m2kzp0ySmjWqm/uIZGdnS/uuvSQjI9NIj4+Pk38Wz3Uo4++d1NQDMknxnfDVt7Jvf2qu6tu0aiGXXzpY+vTqIaVLx+fK91fCtO9F7rzMVlt8GZF/jtri6YdFutUUyTgmgvQ5W0X+mCoy9mpbfmKyyKL9nvXipVffkPc/+swoPHzYEHnmSfv31LMaCl4q/ehRee2Nd+SLr78zK5v+y/dSp3Ytc78wImd3L/FLs/OXb5BXP5tu1NW9bUO5a2Rvj+pNO3JcbnzqY7Ps2NH9pVOLuua+NfLCh5NlyWr1RVDh0l5tZeSA863ZRvygqm/MixPkRNYpY/+GoRfIRV1byMxFa+Ttb2aZ5cf/5yqpmlze3HcX8XVcqO+b6Yvlm2ne8X3w2oukQ/PzHLrz+eQFMun3ZWbaa/ePkJpVk8x9RJw5fvjUdVK+rP3vNuNEllz98PvmMXeO6CUXtm9k7uuIlTHSXn/wSqleOVFn+22Lc44++xJiY6Lki+dv8eVQj4+Zu3S9jJsww2X5xHKl5eqB58sFbRq6zPcmsViKd/cx3tTNsiRAAiRAAiQQqQRKRurAOW4S8JaAFqj0cXofWx0/ffq0ZGZmCrYI1jy9b2RY/jucno6SRkq5hAQ5c+aMJdfLqFGNrS7U42ldP0+eYvbhlhuvlZIlS7o8tn7dutKubSv562/bA9fGjZulZYtmuTrZsX0buerKy2TCOfHn0SeekcsuvViJXfaHTAhX0VFRJjvNEJVBsNL7RlzxOXtWcTlbzOiXzrOW1SIX0pBv3Ueap6FkiRL5Fr36yuEuy7Rp3dIUvPbtyy0c/b10uXlc2zatcoldyITQOOLyYfLBxzZRxjzAzxF8R+f/uVi+/X6S/Pb77Fy1J1aoICOvGCYXD+zvsp+5DvBDwqED9krKJNjjrzxsE7uQ8sx7IuXUM3fZcvb8NIX6dI5ICQ9+0RLKljUPTDt0yIwHOjLmvv/Ilq3b5MDBNLG2W71aijx435hCF7sCPX5P6l+2bptZrE61im7FLhQa3LONKXj9u22veZw1kqTEiHuv7ifPvv+LkfzBxLkSF1PKQey6d1Rfj8Qua73BihcvUTzPphqdVzWX2IUDIMJUSior+w/aFOMjxzIdBK9tew461NuxhaOopjN7dWxiMtZpgdg+csMgyTplEyW9rT/Kg+u1t3V6U75Z3WpSq2pFbw5hWRIgARIgARIggSAS8ODxIIi9YVMkECIEtOCCrY5bxS4ITTExMRIbG2uIR3mJL8OHDRV8/BHmz57mUzWrl9ksOz05+JsJH3tSTP7v8UeMj7XwmDtus+7mGwfbnJwcadWiuUz8cbLSu85KtrKeA+sS6kFHszdEMQ9Erq8+fV8gNBU01K5Zw2UVFZPslhZWUUMX3r3H/mDeuaP7t/kd2rUOuOA1dfpMucdihaf7OHjQRTLkkoHSoX1bKVE87wdufYy/ttbmTmXbal26QOSr/9ni3QeIDLzCTWuOBoJuComcgXB6LhQvFrzxbdi0WTZt3qKbNrYjLr9Ubrr+GqmWUtUhPVJ39h48Yg59y64D8toEm5WYmagiZ8/YBP3sU0rhPBdWb9rtVuRu07iWDOnZ2rSKeuNLu6VO385NpUur+rqaoG2b1asmT902pMDt1apiv944V1axXBlT8DqekeWQDcs3HSCaxZbKbc2L/EZ1quhiAd3WSnE/joA27GHltVMqyoj+HdR3TCT9+AnZc+CwrPh3p3H0nL/XCz4P3zBQ2jap7WGNLEYCJEACJEACJBAsAhS8gkWa7YQ0AS2sYBA6jq2OQ+DKysoyxBmklVbT/OLi4kJ6zEWh8xCyopQV2MgRl6tpSVny3Iuvyukzpw3WEBOLK4VEnwNn0UunB2IciUmup/Xo6ZloM0sJc85h1+49ZlKSmzpQIDGxglkumJHvvvjYpcVesPpQQU1N1AFWW9kK4X+u0ykiT71tjx+1ayOCKY2eGnqkp5+bJ6mqCibnIRcPUNNF98v+/Qdk6fIVhpXXV9/+IPiMvfsOufmG0fbBRWhsd6rlpCoG85Zu8JjECTV9GdZbrsKV/TvKms17ZMM223RvlME0wNEXd3VVPGTSEsvZpyk6dzoqyn57l3PO4liXOXjYLnglWqY66ny9jY+N0dGI3mIap/NUzj2ph+V/380WiK0Iz30wWd574lqBVSEDCZAACZAACZBA0SFgvyMqOn1iT0igyBOAmKIFFT11EL6XkFaqVCmKXQE4gzdcO0pWr1mnGNv8XIEzgrPoFYCmc1Xpq+UTBA8dYvN4mMTU1kAHWCA6h8tGXmsIXvCR1q9PT7FO/3MuG4h9CFfW8NYzIlvPaR5PjBepajGsO4aZwOdCZc9c1RmlDx+xH1ihQnldRcC3sOTS4ZSavvX8y6+Z01//O268dFQWdS2aN9VFInK7S4kIOmBaXtWK5fRuvtsSeVjrwRq0Q7M6DoIXLL9KRYf2LVCUmnruSzh8NMM8LKZUlBl3FUkoHWtYNbnKi+Q0+Hx7QPlYu+flr0z/Yz/OWio3DO0WyVg4dhIgARIgARIocgR8u1sqcsNgh0ggcAS0sIUWrHHsQ+xCGqbdYYt9WB4xBIbAlcOHycrVq03msP4Cc4heOuA86CmkzudLlymsbWJiomzdtsNo/nSOzc+bq75kKD9wgQ69enQTOM3/YdIv8tmXX5tO8rGIAj6PPvmsDOzfx5je2Pn8DsYU0kD3qYLTzKa3leCF0LKjyIhbbHH9/5E0HROplGKP5xfbvt3GH+UqJzspbPkd7Kd8fG8fefA+5UNtkfl9mDv/z4gXvJISSsvec1ZeA5Rz+cE9WvuF+Hbls+rzX/50qGvizL+lfdPaUr9mZYf0SNgpG2//jTp9Wr1ByCNkq9+2QIfPfpkvh4/6ds3DdMybhnUPdBdd1l86Lkb6nN9Uvpq6yMhfv9U+Zd3lAUwkARIgARIgARIIOgEKXkFHzgZDlYAWT7DVcYwFcQhe2tILD7MMgSEAB/krVq4yWIM5nOs7i1vOUxsD0xPfaq1WtYpox/UH09w7TD+UZrd08a0lz47CCpH3jrlN7rztRpk9d77hwP6PeXZhYPLU3wQfOLAfNvRiuXhAf6lfz7WDa89azLuUdUqjtSQc1TtPWVxm76ZU9FCzgGUVphPq0LJF4VlUwepo8KAB8tqb7xjd2WXx76b7F2nbapXKy6qNu4xhH1aO1v0RMNXxpU/Vkp4uwvNqGtobD10lZeJzWzu6KB42SdZpd0eO2a29nAd4MjvHXOHSOc+f+/OWbTStpLytF6s0Fpbghb5WqWi3xrX6oPN2HCxPAiRAAiRAAiQQGAJ2s4jA1M9aSSCkCViFLeeBaOsuLYBhH87UtQDjXJ77BSeAFQzhy8sV+4LXHvgaUizOyddv2Oi2wbzy3B5UgAyItH16XigfvPOGzJn+s4y5/WZD5NJVwgH/ux98IgOGDJfBl18lX37zvaQftfvC0uUKuk1QMwzrNnas5c4nRBo4LQR6Qmkh86bby7XuZI/nFdugVhXVIT4+TurVq6t3C2VrdVZ/NAA8C2VQqlGrxaU3FkJVLFMYd+x1XEnQ17HAz5K2GquSXE4+feZGwQqQCHBADif2eV3nre36Oi5rHUUhnlS+jNkNLA5w5rR9IQczQ0V27rOYUVozGDcJpB6yXwfLqumfDCRAAiRAAiRAAkWLAC28itb5YG+KOAEtbqGbiGvhBVsdL+JDCPnu7d+farDWvLHVD6L6wbWoio4N69cz+f/y6zR54pEHcvnJwhi+/u4Hs1ywIxDl7rj1Rrn1putk3oKF8s33k2TmrD/MbqxZu16eWPuCsY8ppv4OV9wk8szd9lpHuljYc940ez5ifYY67rvbW/bPSjOrc0c1TdMyFdbMCGIkXK1By5exL9ix76DdZ1p+aK3TC7EK3vpte6VhrSr5HeY2f8bC1Q6O7x+4pr9hzXXv1X3ljucnGMctXbtNfpq93KPpk76Oy20HCykDlnQ6QPRbuWmXtGxgcZB3LnP2X+t1sYBuX7r7MsnOY4p3Xo2XdDb9zKuwn/OwUugfaoVGHepWq6Sj3JIACZAACZAACRQRArTwKiIngt0ILQIQWXSwCi+w8GIILIEp02YY1kVacNStWc+JTitqW/jNqlwp2ezWK+PeMsQ7M0FFPv/yW9OvkzU92HFMuet+QRd5541XZP6sKcbUR2vfA9Wfi4Y71vzCWMf9vTtFHhhtTxt2nUjpsvb9vGI//jzZzB6sVk1kCAwB65Q5WBBt2L7Po4YgeHVpZReF3/1ujmA1PHcB9b755UxDGHMus233QXnn29lm8o2XdjNWZkQCHI7fdWVvM++zXxaIJ/6XfB2X2VARiVRQvtK6t21o9ubLKQvleGaWuY8IxMap8+0CsUOmn3fKq/5USkzw6YPFDfwdDiirrQde+0YgmGaccOSi2zqWkSVvffO7soKzfz8b1K6ss7klARIgARIgARIoIgRo4VVETgS74Z7Axs9XyKmMbIcCB5bsMvd3zVTTlIoXM/cRia9aRmpebL+hd8j0cEdbC6E44tZ9a5oWXiC4hILo4uHwi2yxw0eOyGVXjpb+fXtLSkqKRKvpeLDoatumlbRp1cLot/O50oO554FHxJMVEIdfNkSuGnG5PsxvW/gcu/mG0fLUsy8ZdX717Q9y4OBBGdCvj0RHRymLqkXKumui39rzV0WVlHP3W2+8Tm66frQsXLREvv3hRylbxj4tyl/toB744xo6WmTiJ9gT+fFzkQNKL7lQ6VPp6tnyuw9FMo7Z8vD/lbfa43nFtm7brhY8WGsUgU+yC7t1yat4UPJKlCxhtnPCzYO1WSCEIhAhalZNEjiLR3ho3HfStU19Y9XFaPU3gFCxQhklbtU34tb/rrm4i8xfbpvui+NhiTWoeys1DTFJEpUwkpZ+XPYeOCKLV2016+/YwtGvXGbWSXnxk1/NauGcvl/nZuY+It3bNZSVG3bKnHMWOi9+9Ku8/uBIyWtaWkHGZW0cfsqwup8n4YUxlwVkNclLLmxljn3TjlR57K1J0q9TM0kqX1o270yVr6ct9qR7YVkmR03xBBN8IJq2alhDKieVk2T1nc0+dVr2paXL7CXrHMZet0ay9O1UeD4BHTrDHRIgARIgARIgAZMABS8TBSNFlcD82yfLqWMn3XZv26R1go81JHesXmDBy1qfjmvhS2+1yGXd12W5DRyBzMwTMumnyUroUkaqSuyC3HnbLTdI65bNjUbdTWncp6ZD4pNf2Ltvf35FfM6//NLBgql1mNKIgOmC1imDSIN4p53bY7+oBEwB7NKpo/EJZJ+eeVfkhPKlPfU7WysLZojg4xw+ni7SrK1zquv9X5XzfR2uGnGZseCB3i+sbXJSktn0nr3hs8IbphhfN6SrPKFEFB3mLd2go8a2Ye0qLgUviEpP3zFExk2YYToy/2XOcodj89t555vZsv+gzbdSgvKrdPsVPV36VoTV17pte4yymNr3uvLn9eiNg1yWRZsFGZdzn7UY6JzuvH/6DKyG/X+rBkES5+ijSfOMJtGfd7+3W8QhsXrl8nLwyPGgOK43OlFE/1u+fofqGT6uA75j943qJ1HnxFzXpZhKAiRAAiRAAiRQGATU0yIDCYQfgeJReX+1i5W05xe3xD0h4cp6SAtftPDyhGDBynTtcr6UK1dOzjpVAzHG+dwoLcynAEssa/DU15PVYsedfyY43v/v8/8nd92mnFW5CEMHD5LXX37ORU7kJEVFi7z2pciou5S1pgtDsoZK15ygns279PGMSUZGpnzwiTIVOxdGDL9URwt1m5xsc56OTmzdtsNhBclC7ZgfGm9Wt5q8OnaE9O3cVCollc1VY8kS9muwc2aT86qp1RNHSv8uNgHbOV/vw/Lm1ssvlMZ1qugk+XPFJlnwj31BiPuu6af8drl2Jh4bEy1jlVChw/J122XmojV61+XW13EVhzjvQ3A+zuqzqmQJ9xc4K99ibnzVDbygpfznhoGClQ6dQ/1aleXJW4eIdRqnp9dB57pCbb9c2TgZOeB8aVo3Jc+ug9u1g7vKu4+PNqZj5lmYmSRAAiRAAiRAAoVCoJh6QHR4bpw9b5HRkQu7diyUDrFREigKBJz+LMwpjUi3iluI5+TkSGZmpvFBvGHDgk2lLArjL8p9WL9+vWGdExcXJ/hAnILlhfUDCy/9sY7FneWXtUww4/D5tnHzFvlXrdiYUqWKNG3aWGJKlQpmF4p8W/iF2qaMg9YoI58KyiCqWTuRMgnedfu9Dz+Vl1970zjowbFj5IbRV3tXQYBKn1bXj8HDRop1Vc7zO7STlKpVpEyZ0vLgfWMEvtSCFc7uXhKspjxuB9fctPQMw5dXmrI2wpRDTG1MTiwjcTH8W/EYZB4FwRirDcLfWnRUSYEvtTLxMXkcETlZWSdPyX41hfGosgBMzzgh+JtNLldGkiqUlcSy8VI8D+HWW0rFUtp7ewjLkwAJkAAJkAAJ5EOAglc+gJgdmQScBS9tuWUVvCBWaMHrxIkTkpGRYYhfjRo1ikxoQRr1unXrDJErPj5eYmNjTcELwoAWvbSwhX1r0OnWNMbDm8Dx4xnSpWd/9feZaSwYMHPKj1KqlDIhKyJhyd/LZOTom1z2ZtXSBUEVQIui4OUSDBNJIAwJUPAKw5PKIZEACZAACRQ6Acd5O4XeHXaABIoeAav4ZY2jp9jXIpiOF70RhFePNGeIjTpuHSHStLBljVvLMB45BI4rIfqOW280Bty2VcsiJXahU+3btpa/F8ySiconHSy90tLSZP/+A5KjBPVImUIWOd9GjpQESIAESIAESIAESCCYBCh4BZM22wprAhBXGIJDgKyDwzkcWqlcKbnITGF0xzMhoaxcO+pKd9lMJwESIAESIAESIAESIAES8IGA43wfHyrgISQQyQS08OK8jWQmgR67M2u9H+h2WT8JkAAJkAAJkAAJkAAJkAAJkEDoEKDgFTrnij0tQgRciSxIc5VehLodFl1xx5nsw+L0chAkQAIkQAIkQAIkQAIkQAIk4BcCnNLoF4ysJJIIOAsr7gSYSGJSGGN1xR1p2n9XYfSJbRZtAnTKns/5yc7IpwCzSYAEAkWA16dAkWW9JEACJEACkUyAglckn32O3S8EnAUwv1RqqeSscs6uQzGnVQeVSZmDVVmufH1gmG4DzT5MsXFYJOCaQHS863SmkgAJkAAJkAAJkAAJkEAIEuCUxhA8aexy0SEQaMFlzyefyYwSMebn+KrVDoP/9977zTyUO6tWdou0EOhzEGk8OV4SIAESIAESIAESIAESIAESCAcCFLzC4SxyDIVCwJXQ4iqtIJ2zWnehnlz7OTmO1UfASpGuGLtKcwTDPRIgARIgARIgARIgARIgARIggUgiwCmNkXS2OVYSIAGfCaQdOiRZJ7KM4ytXriQlSpTwua6idOBpZRW4dv2/brvUoF5diY6OdpvPDBIIZwLOYrqzj8D88sOZDcaW3/jzyy+qfHLUdfFwus2nXUypaCkTH1NUu+p1v45nZsn+tHSXx5VUv2s1qya5zIuUxPy+s9Z85+tBpDAK5jgPH82QnBzb7IXEcqWluLNrDzedwd9w9inbS+GYqCgpXoI2Hm5QeZwc6GvHiaxsUY5apHix4hJTKsrjfhW04MmTp+RoxgmjmtiYaCkdFx7Xe+u1CoNzvl5Z853zCsrU3fE79qbJKWdjjXOFkyskFOi3Nq+/eQpe7s4I00kgDwLWi0QexZgVRAKBPifX33KXrFm73hjRpG8/l6aNGwVxdIFratfuPTJ0+Ci3Dfwy8StpWL+e23xmkEA4Exj/9e8ye8k6Y4ixMVHyxfO3OAz37pe+kJ37DhtprRrWkMduvsQhHzu79x+W7HM3eJWTEiRWCSjhEvzBpyiyWLVhpzz93i9G19o1rS3/uX5gUeymT336a/VWefOrmW6PnfjanW7zIiHjusc/lPTjtoffTi3rythr+pvDTj+eKdc+9qG5f/XATjKkZxtzH5Ezyu/qdvVQp0MtJSAG62FStxlO20ffmih7U48YQ3r9wSuleuVEj4Y3YfJC+XnOcqPsTcO6S7/OzTw6joXcEwjkteN4RpaMevR9o3FXv7Xue1XwnN+XrJUPJs41KuretqHcNbJ3wSv1oQZ/XzsKei3zYQj5HvLE25PM66tz4Rsv7Sb9uzR3TvZ4P6+/eQpeHmNkQRLITWD2H/MlPT1dsk+elPbtWoeN1U/ukTIlEAR279kri5f8bVRds2YNadOqRSCaYZ1+JrBh+z5DxEC1DetUkSpJ5fzcQuFUF67jKgjNs2fOmoefyDplxnUkx5Kfc9q+wIjOx/ajH+fK8vU7jKTL+rSTEf07WrNDOu4PPiENwMvOL1m1WTJOZBtHdWpRV0oF0YrBy66yuCJw2rJoEICcsfy9Y985H2mnTp2WR8f/IPp68fgtl0jLBjWQxRBEArAU0sEa12ncFi0CPEeBvXY4X6s8uZYVrW9I/r2xfoescRxJwSt/fixBAm4JvPbm2wILGfjWev/tcVIpuaLbsswgAWcCy1eskgcffcpIHjzookIRvKqlVJWJ33zm0LXb7hor+/anOqRxx05g9l/rZPoC2wISt1/RM2wEr3Adl/3MFU5scI82puA1ee4/csmFrSQuplThdIatFiqBj3+eL/sPHjX60KBWZamaXD7o/YHF2sv3Xm62eyzzpPzf/34y9xkpGAGImBd3byXfTFtiVDTp96UUvAqGlEcrAidOZss/6sXJ+q17JS39uBxTFlGVEssKLAgb1q4idaolB5wTrx2BRRwJ146nbhviMKVx0qxl8uc/mwILVtVOwSvgiNkACZAACRRdAvBF1qxJY4cOlktIoODlQIQ7JOA7gWb1qqmHkYqyZdcBw+pj5qK1xgOx7zXySBLwnQD801h91ODBmcG/BDB9Tgteqzbuko3KKrhezcr+bYS15UmgbvVK0rVNfaNMtYrBF5bz7JwXmfB39Msf/wimazmHVRvtKRBZYT1cKjpwj/aBvHZEKz9r3do2kDNq8a045UcrUkO4XztqVHGckpxYrozfTnVef/OB+6vwW/dZEQmQAAmQAAmQAAmELoFhvdvKSx9PNQYAi4/+6oE4Koq3YKF7RtlzEnBPIKF0nAy4oIX8OneFUejH2cvk/tEXuT+AOX4n0LV1fcEnlAPE6Kf+96PxssQ6Djjvh2XXrtRDpsUo/JVt3Llfnrl9aEj6jINQN2ZkH+swIzLOa4fvpz2vv3kuWeE7Vx5JAiRAAgaB9PSjcvTYsUKjgbn5qakHcrUPR/77U1Nd+hnJVZgJhUrgsJqigJWCGMKTQPsmdaRSUlljcHCIPXfZBr8P9GR2jmBFM4bAEjijfLWlHTluOCcPbEvua8e5dmWZZVtd8rj7A5kTNAKDlOClw8IVm2VP6mG967ctHH1nnFs92m+VBqgi/N3kF/Cdxkp9DGLcDzyuHHzDMhgBjtzHju4vH/3f9fL+E9fKIzcOknceuUZNTx4uVZJtfkTXbd4jfyx1v+q2K65YiAGfQC/85KrtQKZhCughdV/lyfcukP3wpe5gXDt86ZerY/Cbc+DwMeW70LYiqqsyRSGNrxeLwllgH0KCwJat2+Tp5/9r/CgYPwxKTNi9e6/Z95deeV1iY2Plpx++NtMKGknq31faTP/VrCauXl0zjkj1O26TioMGGGnF1NS0YiX5J+0AKIA723fslC++/k7mLVgkmzZvMVqqXClZLr90sNx28/UuFzB47c13ZMVKm+8nHLBnr/37M2PWHBl94+25etyoYQN58L67zPQTWVly+5j7jYetdm1aGd/HDz75XDIyMgXt33rTdXLl8GEy/p33ZcJX30naoUPGsdddM1IeGnt3UN78HTmSLmP/85jZZ0QwjvvG5B6fQ6EiuvP0ez87PNzCubsO38/8S+Yvzy1edG/XULq1aaiL5dpiufSfZi+XtVt2C+rTDo5x49qwVhVjakKSeovrHI6ppbPHTfjNMPtH3tBebaVZ3WrOxYx9rPjz7vdzJPWQzWdQU1XuUlVeh0CMS9fNrSOB4iWKy7Be7eQtteojAr43F6rVoJDuTcCKkXOX2R5oYCXWon4N+Um92V+xcafgYQcBD0btm9aR6wdfIKXjY7ypnmXzIDBz8Rr5W61wuGrTLvPvtWndFLlh6AVSo0pSriOxOucHk/5wSNf+u5A47ovfJD42ty+30Rd3kZrKekOHTTv2yxdTbNOZerRvLEtWbZEF/9jmMmGq7PWDu0odNX3rra9nqmuRLT2hdKxcO7iLXJDHNUjXz21gCCQnJghWfJvz93qjAfyd3np5D68b+3DSXNm13/Y7fvNl3dVvvsi0BauUP6ft5gqxsPjp1bGxXKauMd5eU7zukBcHYDre32u2yW8LV0sZNZX23lH9ch19QP0+fT19ifFbqP8+6tZIljaNaxnjyXWAm4Rvpi9WPGycnIv0Ob+pNK9f3TnZ3MeUwWXrthn7nVvWUyybmHmuIvjN/33xWiOrcZ0UwWIk/g5T1TnevuegUS3uCx67aZBUTsy9QM551ZPl+TuHya3Pfmpcl97/YY6692jg9l7veGaW/KjuPTDNdpOyCNP3HmgIvsD6dGoq5zdXC2oEcGok2tq5L02+UefdVcCUxtuG93SV5TYNwtb0RasNP2cQCfFSQgfw69m+keD6Wa5MnE72agtu70/8Q46eW8G1QkJpuXNEL6/q8LSwv64dnrbnbbnl6m9ljhJWt+0+YF6DUAd+dzqpv59+nZt6vJqqt21by3vzN8+nYys5xkkgDwLpR4/Jn4vOXZzVHYd9/RfbQf9u3CzGnUgedXibVapKFcHHXYhvUF/wYQgugT1798nTz72cy88VHL2/8fZ7snrtenl3/Ku5OgWxa8HCxbnSkQDBylVelhK4rCE7O1uJbLaHH+fyaP+Jp1+QRWrlx6nTHZed/+jTL6RqlcpyzVUjrNUFJJ6RmSl/zPvToe6MTNsy7w6JIbADcXv5uu1ue4obdH2Tbi2EG0d3Ycfeg/LKZ9McbhR0WSy/js+ilZvk3qv7GTf9Og/bMvGxUls5p50407a657bdB2WcWqodZvDO4ec5/8iMhWvM5Jsu7W7GAzEus3JGXBK4QE2vmTD5T2NJbnxnlqzZIh3Vg4U3AVNYVvy70zgEvsGmq/Pr/P3EA8wff/8r67ftlRfGXObyu+FNmyyrBMoZf8mXUxblQrF60265+6Wv5Nk7hkqj81Ic8o8pyxt9rhwyzu1s2pHqKtl8oNKZsAjU9eitzsOD3UufTFUPFxUEfdEBx4ybMENSlFP885QYxlA4BLBAhRa8cC0e3re94EHZm7Buyx7Tymf77jQlos51eJhHXXi4h88wfB/+c/1Ab6oPSFlYs/2+ZK0hzGlBpVPL3Nc6iC5Pqil7uozuDP428Nl3MN3hZZPOd7XF3wYcursKTZQwnZfgBRFE/23tS0vPV/DC9EH999uh2XmumixQGqz2vpthe96AWPPS3Zcpcdz9y4uySmgYedH58sHEuQbLg+r7ULF8bt9IECre+HKm8RvkqoPgh8/fa7bK2Gv6uyrit7TDRzPdOivHSxtvBC983974aqZs2LbPZf9wTwUfaD+o+6Yvnr/FZZm8Ep2nlkLYuXFot7wOKXCeP64dBe6EUwX4Xn7y03wl9q5zyrHt4ndn6vyVxue1+0c4vLhxeUABE735m6fgVUDYPDxyCFQoX0769+l1zsLrjLGdPmOWCaB1y+YSH5f7odMswIhfCHzy+ZfqDWYJiY6KlqjoaClevLjtU6yYFFNxWDIlJTo6RfRLw5ZKYGGFkFihgnQ6v72UUO3CQguiFcKsOXNl8V9LpUO7Nsa+/u/8Du0koWxZvSvbd+6UNUocQ0BdzuWRXq9uHWzchtq1akjf3j3l16m/yc5dtgceLXaBxbbtO43+oAKkB0PwctvZEMwopr5XcKSak2OfjrFaWXjghx0BlhjVXKy0VqOy6+8gxC48IFsDVj6qVqm8HDl6wnjLjLrxAPDs+7/If+8bnmv1pRH92svazbuNG1OUxQ3so2p6A/qqAx4kPvtlgd6V+9Sb9SoV7W+H/T0usyEfI3iTrS2XfKmio3roKOpOoeGza2jPNvKxumFEmKh8eXkreFnZaCfGeDiA9R4e2lar7wVu7hEgqmE10cvVQzaD7wT+UlZd+CDAoitF/a3uUJYk2qIO6ROmLlKi16WImgEPRbAWsQZtmYW0Fg2qS2kXD7HlEuKth+SKt2pYQ113EuXHWcuNPFwD0pXYBSsfXKuWrt1uWob8pR5ci6rgtXjlZtmww/UDaq5Bu0i4pHtrwYN+UQ74fYCl0tK124xu/jpvhVw9sLPPXX7x4ynGsfhuNVffnxLFisvi1ZtNwQjfU/w+4XoQ7IBptktWb5Fpf65y+NvQ/VB3aDpqbDH9+sFx3zmktVe/hZWSEuRfJVxAvIBw72loWLuyxKoVMnWA+Kd/p3Wau23bJrXMLFw3tyrLldopFc00a2TvwSOm2IX0js39L3j9OneleU5H9OuQS+zCy4ytu1Jlt7rW11ROwBvVqWp8dD/3HTiSS/CCVdqrn03XRYxto/OqSh01zjNnzso2dW+ir2k5OacdygViB99hXMt0yFJW77p9nebJFufjjucnOBTF3109ZSVYOq6UbN97SN0r7TF4OgurDge52cH39Ml3JpkvKHGdxQsOWGHpEIj7F39fO3Rffd1i6uLDb3xvckA9YIEZCXDXAHF6s/pO6hfAWHwg0MGbv3kKXoE+G6w/bAjUrFFdXn3pGeNt02n1h4/pQqvXrpNdu23TSG6/5QaplOz6BzJsIBSBgXw/8WdRT/aGyAWBy7iJgtiFvqntxQP7B1zwQlOXDLxInn7yYTV9yPbWDVMHr7r2FnN6I6Y7OgtYN98wGoeaYbISqe65/2Fjv2vnjvLy8/9n5nka+ejd8VItpaoM6N9HBg21W2899dhDxtRG+PfqfdEQQwxbunyFIcrFx1OY9ZQvyjk7Un33+9mGkIC8gcpPS88OjRH1KHw4aZ5ZDm9uH1BvUXFjowPM5t/65ndZvNI2Tfa9H/6Q5+8a5iBmYWVNTA0Z8+IE4yYOFj6T1ZSMQWqVJoTMrJPy6gT7jW1fZV7euZXjgzfK+XNcqK8gAQLCpN+X+VxFxfJlAyJ4DenZWi5QIgJCVMnc0w/HXNlb8bb5nMENfH6hp5p29LWaeoMbb1gIYAU3WGr5GvDdefiGgebDDX6b3vp6lmlV8tOcZQKH+XgxEIjgbz6B6KM/6oSoCMsZq5AAMRHXAgQ8qEHMtk5trJJUTu67pp9D85t27TcfCGAhUNWFWO5wgNMOHiweuWGQMW0N3/n31fVBB0x5Qvt91fStm5/+1Ej+R1m9XNGvoy5SpLbL1JQ8qwWqt53DtK1ACF4PXHuRnFQP3wjlnaY/JSgL28dvucTsaorlJYKZ6BQZ2qO1KXjhGjekRxuHVTKdiue7C1Hzlst6mFPO0o93lsffmmg+iGK6o/V7mm+FBSyA7/3vaqr1zEVrTJHGWiVEDUwla9uktjVZfp230tzH39fTytl6HWW9rAOsqGBN4mkYNaiLQ9GPf5onvygrZ09CbKloY0XHeUtt7gkW/LPJreC1cMUms0qImb5OkTMrcYrA99TX02wzAfD33sliBQz/Zu98O8ucumw99PK+7czdVOVTyRpw3IfK+ksH3HvcP6q/1Eqx33sgD5ZhmBIZjIDfrsdutv8twV3DNY9+4HXTzt8R+Dnr1KKuQz0QY7/9bbHX9xjwAfaY8qOmXyKB29O3DcllpRmo+5eCXjv8eS2bOn+VeY0BXLjHgBhrnUKNmQNz/lqfayq/w8nw4443f/MUvPwInlWRAAlEBgFYYz371KNSSt0k6YC0u267Se667yEjaf2/uf066bL+2qJNiF0I9eo6vmVs16a1kQ7rszatWpjWX4cOHxYKXgaaoP+3ZNVmQ+DQDcMqCw/F1oBlv+9SIsptWz4z3k7jLfeKDTulZQP7m1CUh3+vsUr0evq9X4zDYTWEt7x1a1Qy/Hbpt2y4qbz2kq7WJhj3gkB1ZamHj7tQv2Zld1ku0+NiSimRtKV899tfRv7E3/8ukOB198jeptiFCiGGjhxwvil4QViDlUP5svEu+1PQRH/zKWh/AnX8VQM65RIR+nRqIj/PXW4+DMHawip4BaIvTdW0Sf2AYf3uQTDQ39OKFcoavlRw3vert+4M3hHAddRdAHvna7G7sjodU13r16psTreCP6uhPdvqbK+2ENVvU37ArCu8Yjr7cCVq/ldNbUXYes7vk1cVe1k4Sy2wskhZ6MGay9U0Mgg1fTo2VSJSA+O3yrl6TI3S0/KRd8OQbg5iF9IuVi9wYMm85Jx1JdICGS5o3UC04PWH8rs28qKODi+adNvI0wHio78DLGV0gN9H/fcOMQF+N91N2/x2uu03Bcfihbw1/KB+Z6zWbi+ol2hwj+AccF8BYR/CVygETNHU1rfo75O3DnY5dRX+yGBZ2a9zc4+HBd9yD7/5gzl9GPdSTyix298CZ14dKui1w1/XMli5ffyj/WUtfNaN6J/7RQpmDlyofKVBCLZaW+Y1xmDlUfAKFmm2QwIk4BcCsIIqqaYGxSjLqpiYWOMBDw95empjLWWJF+hw1YjLHMQu3V7rVvYf063bdujkgG2rV7f7jIGwBaf18OOFkFzR/uYuKckeh3+tQIfoqCijL9Z2qlSmH5kFljfDsIxxFrs0L7xtHtS9peFzAmkbt+93+ZDVqlEtQT3aMuqVz6fJRV1amDftOPZ+ZWESrf5einpopQS958YM87mbVZ2EQ58rCsKB/ZSzeS14wQfFFjUNwGrZ4GkXMB0FN+HOAdMM8MCpRc8jxzIDJng5tx2u+z3aNco1NNzct6hX3RS8jhzLyFXG3wlW/09W66bkCgkOD+fllMCJB1zrQ66/+1LQ+i5V03vxcORrsE7R9rWOYB03TFlDPPfBZKM5+BEa0LWlaaHlTR/6d2nuIHbpYxsqQU0HbY2i9/25xbUK/nvgp8dVgDVxN+Wov4F6EWCdYu9cdpuTKNexheMLO10ezuODJXhhijGEY7wkgE+0f5VbAEzXsgZYs+3cd9hMwoO9v0Nq2lGzynrqBZYOfyqrMy124fo+VlloYdGK7FOn1QI4y0yrMF3eurVOpb5CWeW4Erus5V0tmGPNLyrxJWrKtg74PczLTxvKufJrpo+3bveqKaGYvqevn1hE4fGbLnG7CEwg71/8de2wjs/b+BolPOuAv5FB3VrqXZdb62+TywKFkFj074ILAQqbJAESKLoEGjWsr274oiRO+UvDp6RamRIfCF5a+Ap078+r42iar9uDxZU1YEVFPeXRmu6vuLPPuNKllTPcc4JXtMX6zGqJdvx44B/KKiqxbd7vNl8j/hprONSzQ/mS0OFPJX65eot6VvnSQIDjXB227LaJmHrfur1SvWVbt8XmaBYCh/Ut3L2j+no9ZcpadzDjWE2wYbzjw0Uw2w9mW7C2woOrfmiEYOk89c2T/tRysTKgPq5iuTKm4HU8I0snc+sDAUxjKWXxDWStonxZ+/Two0HgbF05LTqqhNkV57fp1nKw9gjUlFazAz5E4APH6gfHhypC5hAII/geQYyCoAIrIayG522ophYncBWcp1NjCpf1O+DqGG/TDqhpcmNf+SbXYZiSDWGqvZqy6O7vxPkg628fhAq85HEVGtUJ3m9CSfXitHvbRuZ1eaESmJwFL/xu64AVON31W5fxZatXVcaxSeXtCxz8Mtc+PRPiixZ8cZ7hpzFNTb9zNUUYK2Xqlx+os6taPCVcAlbC1aGni5cSOs+b7b/Kr6BV7ILA89StQ9S9vOvvKOoO5P2Lv64d3jBwLgsBUIcOTc8r0JRsXU+wt4Fx6hDsUbA9EiABEggigUrKkspVgPBmDTnqRiOQoVSpUg7Vx1kcIJdSDv11iLbEs5V/CIbgE8B0BL3EOFrHDSimTzh/5i/faPjn0CtAoax1eW3sWwNE3nuu7mu8mbam9z6/iXRpFT43ttaxhUN8UPcW5jDw9h2Od70NieXi3R5infIEZ7MMvhNIdrHama7Naj2Zfc7vk84LxDbK8hsTbYk7ixulLFadpywLbgSiT6wzfwKwdrpcTQPS4Tu16ueZ047TznReXtsKbhY0wO+ANZw+E5y/+TtH9DKmkUFE8VTsQj8PHj5udjcxj+nWea1MaFbgx0jXNvbfzJmL1zicI/yGW1en69o6t19Mf3RFv+yC0IIp8AhoW08d7dC8jil2Wdsb0NU+w8CafuCQoz8vWACHS4CTdB0wldsfAaK0tuxCfRCoV23c6Y+qfarDX9cOnxo/d9Aei+AF68JQDBS8QvGssc8kQAKFSiA62r4SUGF2pHjxYm6bt77RL65uthkKl4D1Bgo9wVQ0vBn35FO3un1ag6tRwEy/YW1HvzNdnFaHc3Uc0wqPQOXEcoaTZN0DT50r6/LYWsUPazrj/iVgFbX8W7P3tZWwXPOtU8acr/F5/TZ43yqP8AcBrNipLbHwEmOh8oHlbYhyEra8Pb4g5Utavnu6nje/mik3/d8naor2EmWV7LloD59AOsS4sZ7U+ZqZ3g/kFlMxtSAEocM6lWvTjv3myyeIUflNn/O1n9qHl9XlgfX+ISXZtZVfJfWb4ipYrenQ76J0PXPVX0/TYMWIc6SD1dpWp/lr+/qXM1xa5Pur/vzq8ce1I7828srfa/ErVyEPgTqvOgo7z9EcobB7w/ZJgARIIB8Cr4x7y5ieUVJNa8TURsN3l1qaGzf/WLVx7N23S2X6i8qHIrODTQDLY1vDrZdfKFan09Y8b+N4E42VGq3hDfUg8urYEcpXh20VUWteUYxvUP5S9BQ/X/qHVcAKstqhL20W9JjBF7Y2/a1hZTU4gg2Uc/mC9pXHk4C/CcxWK/utLIDlxKiBnaR8QuhYq2DKHKae6ZU1v1e+vDq1rJunryt/My9IfWD96TM3KgvkDTJtwUrTlxXEu6+mLjY+mJ7Yu0MT6dCsTp5TwMpaHKafPm2bxu+ub9kBtpS3tov7yJ4dGol2AD9fWd82q2/zC4uVG3W4UE2fc7aq03kF3UarKYoIJ7LtYo6jxabrmQOnLBamVjHceg8AgQiWhdoRfkH7WpjHW6d0ox/HT5z0W3fgi26EWghizItfGNZe4PbqZ9PkGbWSqCt2gb5/KexrRznLCtTH1ErioRgoeIXiWWOfSSCCCcz+Y56oO0RD6ILApWQuY9+wYVLpN1x3NQUvf34/lCk9Q8EJ4IbF6kg8/bh/Fg/ANMm3v56Vq4N4CBn/9Ux56LoBIfFAtV856v3j739zjcPThAbKuXCoCV61UypKq0Y1TbFyyryVxgqLno6Z5UgglAms37a3QH/zQ3q0DinBC+cKQsmEX/80LFNw7Xa1Am9RPqcQT+B/EB885M9ctEZ91ppdXrd5j+CDgAUJ4OeqiRLBrBbnyLM6Rc9rsQdnKx4cG+gAaxpT8FLi3g1DL5AS6qWqdXXGLgH0g5WSXN4YIqbWaXEK/qNg6QZLr3VbbHydOWzZfcBMwhRIHSolOk5BO6QWMbHy1+VCbQtRD077t+yyjfug8jEnTosM+DKmVg1ryE2Xdjfum8aO7iePjZ9kVIMFA76b+ZcM79shV7XBuH8pzGtHSiX1nTy3Wip8+QUu2L+3/m6DUxr9TZT1RRQBPMTqkH3K/jZGp3FLAnkRwMqKOpzMLjq+tUqXsb81P3zE7jxd99WT7fMvvyaPPfWc+Xn2xVc9OSwkyhRXN786ePP2uWblRH2Yejt+yIz7Gjmh/LG99OlU83DcEL31yNXmPpbr/nnOcnM/v4iv48qvXua7JzBUrbKpw5T5KyQzy39vqXW9obidsXC1vPPtLIfPIeWUOdSD9cH/VE5w/CzlxyymlOO7b6ulSH7HMt87Api+B8tOHSYqK69QDbBQvm14T/n8uRsFFsvOK8bCgu+JtyfJ9U98JN9MX+zgpzDJ4hcPgoU7f2Y796UFHU919TutxwLLnpUbdsnarXtMv06Y8oipj4EK1hWH4Yheh4bnHPjDv+eSVY7TYeGn8cupi3RRhy38gFmnha7etMshvyA7hX3tqGG5p1rx746CDMU8NqF0nPmSsMl51QzLa535zbQlapqr//jpej3ZFua1I6WiTYRFP/9RnN39vXoyDucy8ZbFAAK58Ivjr5xzL7hPAiSQJ4Hk5GTZtsPmzDAt7ZBUT3H0o5Pnwcz0icAH/3vD8F0TExsrseoDR/F6dUZsU0LoHGA1Qx127CycH1HdvnVbq0Z1+XupTSjZsHGTnN/B7mzXWi6v+DffT5KMDEcrpkcevDevQ0Imz+o42Hir6GHP4WdLL7GOpen7dW5mOqX1sAqHYv/7brax6hcSYT12w6UXGKtGwYn9a59PN8p++vMCaVC7Sq7VphwqOrfj67hc1eVtWvumdeSdR0d5e5hZvpy6SQ3FgBtqLHmOhxg8XGGVrUssD8ShOCZ/9BmWL39aphChzr5qVbsKITSFzRWHJNV/WG4gQMDTD9auygYrDb7gtPUI2ty5/5CynHC9MIs/+3S1mpI4tGcbn6uE78JQDLjuYwogwupNu2WjspSqF0ABJdCM4Fi+9/lNjc/mnfsNx+6Yoq0DrJIgFOAlz9hr+hvJ1WAxci4gf6USYVo2qKGTzO3sv9ab8WBGeijrNL3iMaZwWldj7NWxsSmIBKJPlZMSzGr3HToq2hn7FcqyaPHKLUbeCx9NkRH9O0jTutUEU8wm/r7UdGpvHmyJoBwWR0H44teF0rVVPb9MySysa4ceGiy756gVTxGwoMCQHm38vjI1FptYvn678RuNdv77yTR546GRyl1ELHaNEKz7l8K6duAeRQcsuPTH0n8NC06dVpBtssUCces5a72C1OfuWPtranclmE4CJOCWQNUq9rc8k6dMl9NcDcstK39lVFYrJMJHF9inVK1ifKopkUt/rFZT/mozUPVUsaz2uGbtevlnhf0mMVBtelJvvbrnmcU++PhzOXDgoLnPiONS4bPUTdZxD30aYBqI1SHu/76dLRknslwixbVk0cpN8uz7vwgsuZwDLGCwwqMOY0f1N2/KsWIWppPo8OKHv8qxjBN61+3WugS6N+NyW6EXGVhlrlJigs8fb1YI86JbQSk6rLddUP5x1jKhhU1QsBdKI9bpRdP+XO3XN+UFGVDdGvaFMb6dvkSCsbJn6bgYn//eca2wWssVZOzBPhYPyoO6tzSb/XH2MjMe6pHz1AIrNw3rLl+8cLNgBUfrg7J1bBCuMd1Rhy+nLMz1O4oprwXx66jr9mXbqUVd8zBMtbcKeJ0CvCCMVfBatMJuyQVxfHi/9ma/IJo+8uYP8oL6fdcrOJqZTpErB3Q0U+Du4C3lBiHrZO5ZKZgKOWvxWnn3+9lm+fwihXHt0H3q2bGRVEm2O+t/Vb3oc7d4AqYkPvzG9/pQj7d4kY6XiDpAoH3r69+NlTN1WrDuXwrr2lGjSpIStJvo4coHk/5Qlo82Yw8z8VwEUx5x34oXJ56Eauem8KIsXgjjPAUi0MIrEFRZZ8QQ6NK5o/z4y6/GeBct+VvuuOdBmT/bZlkRMRA4UJ8JVFaiXcP69WT9Btubt8tGXiuDBvST2jVrqCW+bU7OqypRb2D/Pj634cuBlw4ZJG+8/a5hobVvf6r0HjhUunXpLOXL224ssFhAuFhr+cIHVjk64Obn5qc/kQvaNJBEdROvBVc4723o5E8CN0U3Kn8geDuLMH/5RrXc9S4ZcEELwRvveDX1AEuS70o9LHPVTTbqRjidc0bE4vN+q/LV8Y4Sy3S4dnBXOa+6/Q0c0m8c2k3wwKCX2B73xQx59MZBeb6Z9nVcuh/c+kagbeNaxk27Pld/LPtXeinHzwzhR6BNo1qmzyNMOb7nv19Ky4Y1DQsrwx+lGnJXdS0Jto+docof1tK12wzgeOi484UJ0rhOisScc6Bdo3KSwJEzg38IDOzaQvTKrAuVqLF7/2Ex/OT4p/pCrwUWUXjpgg98lc1S0xvhbtUaLrmwlWmdAwvXx96aJP06NRO8eNm8M1W+nmazgrMe4y4OK5+TJx2duW/cvt8sjofz4uqfNVQoFyftmtSxJplxvJiCT0j8PlsDRKfqlVyvkmgtV5A4Fi6pXrm8sSgABL+B6v6gSkXbvRf8R1VTqzS+/e3vDisUwsL7nqv6ykPjvjOadhaDseIjFkX57re/jHzw+nfHPumpzg+mBcJz0i5lgff3um2GD7b2TWt7PARfrh34vsO60Roysuwv/2DtPH3Bamu2EW/ftJaD3z64lbn50u7y5Ds/GvmYHnvff79WPuZaSG11ruLVYkF7Dxwx7oWsLwhzVZxPAvjddWVveUOt1oiAayREULzEDHYorGvHlRd1NBaswLnBB8xh7Yj7XFjbQujavjdNfvnjHwMJynsSIJha/9YgSsK3aWWL5ddgZbnnbNHr7d88BS9PzgbLkIAbAhde0EU6tG0ji5bYfkR2FqFpaW66zOQiRADiyCMP3SdXX3eL2atffp1mxhFp06pF0AWvhLJl5ZknH5V77n/Y6AumJk6Zbvuh153LS/DKOnky13TG+PjQnHKmx2vd4mEUP+ZfTrH5zHB1c4Y3sc6CF+po3+w84w34e9/PMaqEqKXrMRLy+Q8+nl76xCaYoShuDHBD7Bzg72HsqH7GzR/ysIrjpFlL1RSits5Fzf2CjMushBGvCeDh5LJe7cybaUx37dG2kcvVoLyuPEQPOHpO7LV2v5QS2kM9tFer17VoUF1W/Gt7O75z32FztTs9trpKvA624NXovBTj4U1b1GDaCj464DpDwUvTKPgW09QgBsHPFcLPfyxXfrB6FLziIlgDRCK8lHEOSL9uSFf5aNI8IwvCmLNlEYSfg8oiCb+xeYX3f5iTZxlMBdTTAXU99WtVdit4oQws0JwFL0x1DHSAM/brh3QzRZwvlPWbngqKtjur6YhY3TNVTXdMVYu9QCjVU72//+/tRveKFXdSF1Xqpb3aSlZ2jhJabe4q8IJlwuSFRvmC/OfLtWPN5t25zrVzH5y/C8ivUnGwg+CFtOZqFc3br+hpWF1hH9+VQPjG696uoSxTgiBeVCJgtdVGyk1FrRS7axIjI8D/Fda1A77NHrv5Enn9i9/M3wYsWGFdtMLXoV+vrgNPvP2j+ZLXedXxbupv0Vnw8vZv3lHu9rWnPI4EIpQAfpjGvfK8IVq0bd1S+Y+qEqEkwn/YsGrSwbpYgU5ztbU6AXeVj7SO7dvKLz98KSMuv1SqV0vJVQw+yqzB+ubO2ieUcd7Xx5UsWUJHPX6IhlUZ+oWtq36ZFbqIoNtZ8wAAQABJREFUrFy1JlfqbTddnystlBMwDe0/NwwwbjytDmH1mIqra4O7AD8M8FeFh8i8Am64H7z2IomLjTaLwf+GfhBFu5g2Yl2C3CyoIlgF8Ebl10sH3Nzm5wS4IOPS7XDrPYHOreqajoVxfhevtvlqca7Jeu0pWcL9d6xkCfvtHVazDaWQfSon19t/rJwVTAsYK7PiLh4eNU/r9diT6z3+Vh+76WIZc1VvwZis03HMOp3Oq7V564Os9e/e2g/UY93P41KkmzS2N17aTe4f3V/aNK5lfhd1Aev3SadxWzACg5WFkw7w3eduUQbr77e2INbHudtavxvuyhSF9IEXtFS/owMlNsZ+f6X7BUHqyVuHOIi/no5f15HXtoTlGumqXDsXVk6dldAUjAARR1tZwZfhH0vXOzSL84tpvc1UOS12oUBxNSZ8XJ3/6KiScu0lXeTZOy/N03dg1zb1HRy1OzTsZsfba0dxp2ucm2pzJVuvf9bMnh0ay7uPjxZX50yXa6h8meL65ipY6y2RR98wXVe7pUA9r01wfEHtqu5ApHl67fB323iJO+7+kWpKdiuXf7Noz/Anq2YyVLU4us+vH5gy+fqDI42XLlh50zmUsP4IOmd6uF9MzdeFJaMZZs+zvbG+sKtnpmjmgYyQQBgRsP5ZIK73z5w5I/jAvw62OTk5xiczM1PwOaVWamzWrFkYkSh6Q1m1apUh7MTFxQk+EITwwQ2+dl6vb/bxo2/94bfGi97IwqdH4995X15/611zQLDu+nP2NON8mYmFEDm7e0khtJp3k1jtBtMYdx84rPx5ZUsFNZ0BzuPh6wcOYRkih8Dkuf+Y1g646fvvfVdEzuAtI8UqWHopeJ384t2XhbRjbz0ObknASuCFDyebC5kMUSu2Xj2wszU7YuK4x4bFEqakQZjBCpBl4mMiZvyuBrr34BG5/dnPzSxYWI6+uKvANYI/wkll7YXpfruVCwWE5AplBFP3Soc4d9xT7VffJbiGyDhxUlkGlVb3U+UchFN/8CvsOgr72oG/2cNHM2SXmp4Kv3Dl1X1rspraCB90+hmssBlZ2/fPX421RsZJgARIgAQimsD8P20vTjSEe+68tdDFLt2XorbF29iqymknPgyRTQBvqb9SS8tjSgYe/FYpvzN4gx9pYc2mPQ5DhqVDKK9i5zAY7pCAhcBgtUqlXrl30u/LjFXm4Mw/0gJeRupFSyJt7O7GC/Hp1ssvNP11wqfV+q37ZHCPVoZ/qhR1z4CXvL4GCGeYjhfsKXm+9tfT43BPBZ9n2u+Zp8eFWrnCvnbgbxbWhVYLw6LMkIJXUT477BsJFEECZ5Vlmw7WaR86Lb98XY7b8CRw/HiGLF2+whxcYoUKcvmwIeY+IyRAAq4JwNHzVQM6yfxzy8dvVqJXJApeKzbudAB0RT/OOHAAwp2wIYApQvDlBStfBAjdmM7GQAIg0Pv8poal20sfTzWAwM/Z6xNmmHCwCiaswuPUgjeYlofVVdsrR/zw88UQ3gR47fDu/FLw8o4XS5NARBPI3LRZ5tezO+1s9PabUv3Wm00mqZN+kn+GXmbut1/wh5TrdL65z0j4E/hn5SqHQd59xy1qrn/kvbF2gMAdEvCQAFZ9KoyVnzzsXsCLnTx5ylglTDfUuWW9sLNA0GPjlgRAAH4YGUjAHYGOzevKh09dZ6ywiJUBrQGrWzqHRDW1jIKXM5Xw3Oe1w/PzSsHLc1YsSQIRT+CsenvkECzWXkh3znfedziWO2FJAKtKTvnxW3NstWvVMOOMkAAJkEBeBFKPHHNwmI7VThlIgARIIJIJlFdWXHCYfs3FXdSCHrtk885UOXwsQw6nZ0hmVrYcyzxp4IlVqzMnV0iIZFQcOwm4JEDByyUWJpIACZAACfhCIDY2VurVrePLoTyGBEggwglUr1RBPn76hginwOGTAAmQQG4C8LuFVVTxYSABEvCcQGitVe35uFiSBEiABEiABEiABEiABEiABEiABEiABEggQgnQwitCTzyHTQIkQAKRRqBYCqdHRdo553hJgARIgARIgARIgAQilwAFr8g99yEx8i1bt8mV19wkZcuWluSKFaViUqK0ad1SBg8aIKVLx4fEGNhJEiABEiABEiABEiABEiABEiABEiCB4BKg4BVc3mzNSwJZWScl7dAh47N12w7j6MlTf5Onnn1JZk6ZJDVrcPlmL5GyOAmQAAmQAAmQAAmQAAmQAAmQAAmEPQH68Ar7UxzaA0xOrih33HqjjBo5XLp2Pt9hMC+/9qbDPndIgARIgARIgARIgARIgARIgARIgARIAARo4cXvQZEmkJRYQcbcfrPZx58mT5GxDz1u7E+fMctMZ4QESIAESIAESIAESIAESIAESIAESIAENAEKXpoEtyFB4KK+vU3BCx1OP3pUEsqWDYm+h0MnY2vWkDbTfzWHUrpJEzOOSPluXR3yy7Ro7pDPHRIgARIgARIgARIgARIgARIgARIIBgEKXsGgzDb8RiAqKkri4+MkIyPTqDMt7RAFL7/Rzb+i4jExktint9uC0Wphgbzy3R7IDBIgARIgARIgARIgARIgARIgARLwIwH68PIjTFYVHAJlSpc2G8rJOW3GGSEBEiABEiABEiABEiABEiABEiABEiABEKDgxe8BCZAACZAACZAACZAACZAACZAACZAACZBAWBGg4BVWp5ODIQESIAESIAESIAESIAESIAESIAESIAESoODF70BIE8g+lR3S/WfnSYAESIAESIAESIAESIAESIAESIAE/E+Agpf/mbLGABNIrphktrB//wEzzggJkAAJkAAJkAAJkAAJkAAJkAAJkAAJgAAFL34PQo5ASkpVs8+/zZxlxhkhARIgARIgARIgARIgARIgARIgARIgARCg4MXvQcgRuHhAf7PPE3+aLB988rmcPMmpjSYURkiABEiABEiABEiABEiABEiABEggwglQ8IrwL0AoDr9Xj27y8AP3Snx8nNH9F//7ujRt00m69rxIBg0dIa+/9W4oDot9JgESIAESIAESIAESIAESIAESIAES8BMBCl5+Aslqgkvg2lFXyoSP35X+fXuZDe/bnyrrN2yUXbt2m2mMkAAJkAAJkAAJkAAJkAAJkAAJkAAJRB6BkpE3ZI441AmcPnNGHn3iGfl+0s/mUGrXqiFNmzSWcgllpUXzpmY6IyRAAiRAAiRAAiRAAiRAAiRAAiRAApFHgIJX5J3zkB/xTz//6iB2Pfaf++XqKy+XYsWKhfzYOAASIAESIAESIAESIAESIAESIAESIIGCE6DgVXCGrCHIBH6fPddsEVMaR40cbu4zQgIkQAIkQAIkQAIkQAIkQAIkQAIkQAL04cXvQMgR2LFzl9nngRf1NeOMkAAJkAAJkAAJkAAJkAAJkAAJkAAJkAAIUPDi9yDkCBxJTzf7XK1qVTPOCAmQAAmQAAmQAAmQAAmQAAmQAAmQAAmAAAUvfg9CmkDJkpyVG9InkJ0nARIgARIgARIgARIgARIgARIggQAQoOAVAKiskgRIgARIgARIgARIgARIgARIgARIgARIoPAIUPAqPPZs2UcCx44fN4+MiqKFlwmDERIgARIgARIgARIgARIgARIgARIgAYMABS9+EUKKwMmT2ZKRkWn2OTGxghlnhARIgARIgARIgARIgARIgARIgARIgARAgIIXvwchRWDSz5Md+lu2TBmHfe6QAAmQAAmQAAmQAAmQAAmQAAmQAAmQAOeD8TtQpAmkph6Qdz/8VI4ePSpbtm6TlavXmv0dNKCfGWeEBEiABEiABEiABEiABEiABEiABEiABDQBCl6aBLdFksDBtEPy2Rdf5+pbfHyc3Dfm9lzpwUooVqxYsJpiOx4S4DnxEBSLkQAJkAAJkAAJkAAJkAAJkEAEEKDgFQEnOZSHGBsbI7Vr1ZC4uDiplJwsFZMSpXXL5nJR/z4SU6pUKA+NfScBEiABEiABEiABEiABEiABEiABEggQAQpeAQLLav1DoHatmvLb5In+qczPtbiyKHKV5udmI746V4xdpUU8KAIgARIgARIgARIgARIgARIggQgmQKf1EXzyOfSCE6DQUnCGBa2B56CgBHk8CZAACZAACZAACZAACZAACYQfAQpe4XdOOaIgE6DgEmTglubI3gKDURIgARIgARIgARIgARIgARIgAZMABS8TBSMk4BkBZ5EF+85pntXEUgUh4Io7z0NBiPJYEiABEiABEiABEiABEiABEggfAhS8wudcciRBJOBKWHElwASxSxHTlDvOrs5JxEDhQEmABEiABEiABEiABEiABEiABBwIUPBywMEdEvCOgBZZrNuzZ896VwlLe0wAbK2scaDe97gSFiQBEiABEiABEiABEiABEiABEgh7AhS8wv4Uc4DBIFC8eHFTeMnMzAxGkxHZhmYLkQvMGUiABEiABEiABEiABEiABEiABEjAFQE+MbqiwjQSsBCwWhBZ4yiCfXyioqLM+KFDhyxHM+pPAmDrirm1Des5ssatZRgnARIgARIgARIgARIgARIgARIIbwIUvML7/HJ0fiLgSjjRwoveRkdHG2LM0aNHJTU11U8tsxpNAEzBFrw1a80eW+fgKs25DPdJgARIgARIgARIgARIgARIgATCk0DJ8BwWR0UCBSMAsSQvX1xaaEErOl6qVCnJzs6WM2fOyL59+wTT7xITEyU+Pp7T73w8HWCZkZEhaWlphthVsmRJKVGihIC15m49B3k1g/IMJEACJEACJEACJEACJEACJEACkUGAgldknGeO0o8EIJw4i2HwJwUhJjY21hC8INQcOXJEDh48KKdPnzY+OAbp+CDoLeLO9SEt0CFHiXOnTp40xKOatWtLrTp1jKmZgW7Xuf5Tp07Jti1bZPvWrYZgGBMXJ6UUR3AGU3wgdGmxC4yR5sqHF0UtZ7rcJwESIAESIAESIAESIAESIIHIJEDBKzLPO0ftIwEtqGCLD0QXiFX4YB++vEqXLm1Yd1lFLORB4NLHoXkt2Ohyeutj17w+7Mw5MQl9giiXrcQvBHdiktcN5HMAeOh2z6j20Y/iELLO9Qt88NFCF6y64pQYhn3NUZfR+3qbT9PMJgESIAESIAESIAESIAESIAESCHMCFLzC/ARzeL4TgHiiRSjEEfQ+4lpcwVYLL8iHYAQrJIhfmOKYk5OTy8JL1+O8dW4D+/4OaBNiU0nVz5xz4lGmmja4c8cOSUhIkITy5Q1hyd/tOteXlZUl6YcPS3p6ujFtMUoJWvjAugvilha7IHDBZ5cWvjRrbK3nwFq/Ttdp2GcgARIgARIgARIgARIgARIgARKIHAIUvCLnXHOkfiQAsQXWSQiIQ0TCFgFxiF4IuhwEJv1Bvv6gDOLBCmhLW1ahTchAEOROnDghh5SfrOxKlaRUTExwBC/V5gHliD51/36JUSJXvLKMK6HErRKKI7YQuPQHHLXlmd5qoVGz0/z1PrckQAIkQAIkQAIkQAIkQAIkQAKRS4CCV+See47cBwLaUgjCkRZcICBBbNEilha7kI88vUW+FsmQroM+Tu8Heos+WMWhYqrvp5QlGtJgkZaufI+hT7Fq+iAs1fSY/dEv1Atx7YRy6I920B7aLams4WARF3VupUttzaW3KIMP2Gru2Ndx3Udsddwf/WUdJEACJEACJEACJEACJEACJEACoUmAgldonjf2OkgEIJ5ApHEVILhoQQvlsK8D9iEsYYsPyqEelNH1Yavj+jjnfZ3ury3qh4iELfqET3HVvzi1kiSmDSI9TTnaP37smFRU1l4xytoL/fdXQP1H1RTGA8qqC1MaVeVSVk2hRNvRahoj+gZGeou4tujSYpfe12yxtbJ37qs/++9cN/dJgARIgARIgARIgARIgARIgASKJgEKXkXzvLBXRZAAhBMINlpAQRzBleACIcmapwUvpFnjug6jcJD/gyCHD/qDaYwIEKOOHDokx44eNSy84NMLVldabPK1ixgn2spRKzKi7oMHDgjolatQQcqqNsAQH7QDSy8IWJqr3iLN+YM8HRDX+3qr87glARIgARIgARIgARIgARIgARKILAIUvCLrfHO0PhCAeKKFKWscVUGA0eIW4ggog4/Ow7FWkUuX13XqrXFwEP+DuIS+WD+w6EooV84QpjLVtMNdypE9BKmyKg3TG30NsOY6qqYwwkE94tpfl3buD1ZaVIN1l5WhZulqq9Os/UKaDta4TuOWBEiABEiABEiABEiABEiABEgg/AlQ8Ar/c8wRBoCAFlIgVmlhC80gjjTkQ0jCVpfBVsetXdLp1rRgxNEuArZ6JUn47cL0wuyTJ+WYmtZ4UE09rFSlimEBVhDB66QSuWDVtX/fPokvU0bKlC1r1AlrLghcELu04AWG4Ob8cZWONARd1tjhfyRAAiRAAiRAAiRAAiRAAiRAAhFPgIJXxH8FCMATAlq4QlkdxxZBi1hWgQtxCDjIQ1wH7OODoLc6T2/dpet8f2/RHoQjTDlEHNviqu8nlehVXIlRp9Q0RO3IHqspeiN8wUF9lvocVdMY4aAeTEopX11xSljDNErso218tODlLF4hT7N2joOFtbwup9P9zYr1kQAJkAAJkAAJkAAJkAAJkAAJhAYBCl6hcZ7YyyJGAMIKxCEtsGjRCN2EwAVhBsG5DPbzCvnl53Wsr3loU4tzELvwQcBURvjvOq0Er7S0NMk4flySkpM9dmSPeg1/XamphniGNnA8rMggdsGSDGlWoUuPwVnE0pyx1WxR1rmcPp5bEiABEiABEiABEiABEiABEiCByCZAwSuyzz9H7wUBiCtWQUrvY6sD8rUgY7X4Qr71WFf7uo788qzl/B23WlBhuiF8baWpqYiH4MheNQahqpxaVbGkEqqKWSyvrP3AOM8q0S9HCWcQvA4owQshSa36mFSxomnNBaFLr8aIfCtH675O11xd5ekyyENw3rel8n8SIAESIAESIAESIAESIAESIIFIIUDBK1LONMfpFwIQUqzCld53FliswpchACkRyLmM7pC1Pp1WWFv0EcISxCht7RUXHy+JSUlySk1JxPTEHdu2GdZfWMFRr+5o7S/8f8E5PVZ8xLTIMqochK14VQ+22meXFtfQlruA/li56bje4jhr3NW+u7qZTgIkQAIkQAIkQAIkQAIkQAIkEL4EKHiF77nlyAJEAAKLVaSy7juLL7oL1nTrsci35unyhbWFCIX+YasFKQhVmNp4IiPDELFSlSP7ylWrGlMbXQleELnSDh6UfXv22IQxrPCo6oDvLleCl/NYnXlY961xHJffvnPd3CcBEiABEiABEiABEiABEiABEogMAhS8IuM8c5R+JgChxSpcaeFFp1n3dVx3wXlfpxelrRa70FdYYEHwwsRNOKFHHqy4YMGF8UL0ilGfLLUSI1ZjNBzUq3xMeYyGg3olduGjpzBiq+v3dMzOzJz3UY+rNE/rZzkSIAESIAESIAESIAESIAESIIHwIkDBK7zOJ0cTRAJaYNEiF5rWae66YS3rrkxRSMc4tDCVk5NjCFsQvRKUtRastDDd8aDy7XX82DHTkT3iB5W/LghfJVSZylWqGEIXBDEcA5ELdaLu/Dg55zvvWxnllWctxzgJkAAJkAAJkAAJkAAJkAAJkEDkEKDgFTnnmiMNEAEtuLgSs3Sebhr7rsrp/KK0hTiFoMeArXZkn7pvnyFuQcSKiY2VChUqGOIXpjvCWX8lJXZVVE7qUYf22aW3+Y1Rt+evcvnVw3wSIAESIAESIAESIAESIAESIIHwI0DBK/zOKUdUSAS0UJOfoKXLFVI3vW4WohbEKvRb9x2rNyaqFRdzTp2SzMxM2a4c2cOyy3BQr0Su0iof4pgWvFAHPvp4rzthOcAfdViqY5QESIAESIAESIAESIAESIAESCAMCVDwCsOTyiEVLgEtyOQnfBVuLz1vHUIVgnVcELwgaGXAkf2RIwKLL4hdWLkReXBQD7FLf/whdun2Pe85S5IACZAACZAACZAACZAACZAACUQqAQpekXrmOe6AE3AWaEJZANOiFyy9dNDxTCV6YWwQwLSDej19EYKXr2KXMz/dLrckQAIkQAIkQAIkQAIkQAIkQAIkkB8B+9NrfiWZTwIkUCACoS7gQLxCgLAFEQvO7OGQvlz58kYaLLvgz0tPZdRilxbLCgSPB5MACZAACZAACZAACZAACZAACZCAFwQoeHkBi0VJINIJaNFLi3fYwpqrTNmypr8ulNEWXpHOi+MnARIgARIgARIgARIgARIgARIoHAIUvAqHO1slgZAmAKHLKn5ZrbkQ14JYSA+SnScBEiABEiABEiABEiABEiABEghZAhS8QvbUseMkUHgEtF8ubOG/Cx+IXNZP4fWOLZMACZAACZAACZAACZAACZAACUQ6AQpekf4N4PhDisDrVVOKXH8hcp1VvSqmPkXNMf+YPbuLHC92iARIgARIgARIgARIgARIgARIIPAEKHgFnjFbIIGwJnBGWXchaNErrAfLwZEACZAACZAACZAACZAACZAACYQEAQpeIXGa2EkScCQwZs83jgnccyDwetXhDvvc8ZzA2d1LPC/MkiRAAkWOQLGU9kWuT+wQCZAACZAACZAACRQGgeKF0SjbJAESIAESIAESIAESIAESIAESIAESIAESIIFAEaDgFSiyrJcESIAESIAESIAESIAESIAESIAESIAESKBQCHBKY6FgZ6Mk4J7A4cNH5P2PPzMKtGjWVPr27uG+MHM8IvD9pJ9ly9ZtUqJECbnz1hslOjrao+OCWWj9vxtk4k+TZeeu3ZKaekBSDxyUVi2byxuvvBDMbrAtEiABEiABEiABEiABEiABEggLAhS8wuI0Rt4gzmSflpwTp4yBl4yPluIlC26sePLQCck+etKEGZMUJ1Glgy+MvP3eR/LJ518a/Xj/7XFmfxjxnUBWVpa8/5FNREysUF5GX32l75UF4MhXX39b3nn/o1w1Q/hiIIGiTsB5dVas3GoN1nznPGu5cI1bx48xOjPILz9cuXBcJEACJEACJEACJBBoAhS8Ak2Y9QeEwJKHZ8rKVxYYdXd5e6A0vtU3J71HNx2SRQ9Ml90zt8ipY3axCxV3eKmPtLi/S0D6765SWCFpsat508bSrWtnd0WZ7gWBYUMvkfHvfCBphw7JuPH/k0sGXiTly5fzoobAFd22fYeD2BUfHye9e3SX5OSKUqdWzcA1zJpJwE8Ernv8Q0k/fsKorVPLujL2mv5mzenHM+Xaxz40968e2EmG9Gxj7iNy5swZ2b43zUyrVTUplyhkZoZgZPzXv8vsJeuMnsfGRMkXz9/iMIq7X/pCdu47bKS1alhDHrv5Eod87pAACZAACZAACZAACfhGgIKXb9x4VCETOHvmrL0Hlqg9Mf/YkX8PyrcN38i/YBBLvPiKvT/33HWbVw99e/YeloVLNhq9rV2zorRuWTuIPQ9cUyezT8nkqcuNBuJio6V/n5ZeNxZTqpTcfcct8tj/PScZGZkCK7pHHrzX63oCccCKVavNahMrVJDfp/4oEL1CPSxZtVkyTmQbw+jUoq6UKhUV6kMy+r9h+z7Zvd8mTjSsU0WqJBUN4bSowD2txCtrOGO9VqsM53yUPXXqtDw6/gc5kWWz2n38lkukZYMa1mpCOm79vdJjtA4ox8Io57QjP2s5xkmABEiABEiABEiABLwjQMHLO14sHUYEljz4mzmaqDKlpMlt7SW+elkpVtw2HadSp+A+cG3YuFlmzZlr9Kl2rRrSpVNHs3+eRJb9s1UeesQ2FXLwxe3CRvA6fCTDHFeFCqV9ErzAb/AlA+SFV8YZghes6G6/+XopVy7BE7QBLbN58zaz/gH9+4SF2IUBffzzfNl/8Kgxtga1KkvV5PLmOEM5MvuvdTJ9gU2kvP2KnhS8/HAyIYZe3L2VfDNtiVHbpN+XhpXg5QdErIIESIAESIAESIAESMAHAhS8fIDGQwqfQMV2KVL3yuZGRxIaJHnfobNnZdtP683jBi+8Uco3STb3CyPy3cSfzGYvHzbEjDPiHwKw8rp4QH/56tsfjAp/mjxFrrlqhH8qL0AtxzOOm0cnV/Thu2wezQgJhC6Bfp2bmYLXqo27ZKOypKtXs3LoDog9JwESIAESIAESIAESKHQCBff0XehDYAcikUDdEc2kxxfDjE9KzzpeI8jcn2EeA+uuwha7MjMz5buJP5p9GtCvjxlnxH8ELh5o9y306YSvDd9B/qvdt5qsU75iYkr5VgmPIoEQJ5BQOk4GXNDCHMWPs5eZcUZIgARIgARIgARIgARIwBcCFLx8ocZjQp4AVmTUIa5KaR0ttO3c+QuNqXboQJtWLaRK5UqF1hdrw+nHMgVTCsMltG7ZXOAnC2Hnrt2yeo3NkXS4jC+cx3FG+TY6eOS4nD59OpyHGdFjG2QRvBau2Cx7Um2+0vwJ5XhGlvItl+XPKlkXCZAACZAACZAACZBAESXAKY1F9MSwW44Elj41Ww6vSXVMPLfX6Ka2ktLrPJd5OnHDJ8tl05cr9a6cPGJ/4EnfkCZT+nxq5ulIo5vbSe1LG+vdgG6X/L3UrL9d29ZmPK/IuPFTZMXK7WaRXbsPmfEZv6+Sa296x9zXkUYNU+SBey/Wuy63P03+W36buVJWrtoh+/YfMcrAd1brlrXkutEXSrvWrll/9uVcmT1njVG+SpXy8syTw6V4MZs/NOeG/lq2Wd7+n92H2nP/N0KJfDbn31N/+0e+/X6hecjxDPvqmYcOHXc5rhIlSsg746+XKLXNKxQvXlw6tGsjU6bPMIr9vewfad6sSV6HMM8DAnDi/sGkPxxKav9dSBz3xW8SH5vbem30xV2kplqRz11IUwLXpFlLBY7iN+2w//3XrZEsLerXkGG920mp6Nw/Y6s37ZIfZv5tVItzfofytVW+bLzLZrCK4Pivfpecc0LawAtaSpvGtcyyT7/3s4MlIPqiw/cz/5L5yzfoXXPbvV1D6damobnPiGcEkhMTpHvbhjLnb9t085/mLJdbL+/h2cGWUh9Omiu79tuuhzdf1l3UDHaZtmCV/LN+u7kaYmK50tKrY2O5rFc7KV6C7/4s+BglARIgARIgARIggbAhkPtJIWyGxoGEE4HdMzbLvgU7XA6pavfa+QpeR9YflF2qDnfBVV5Kb9fCjrs6CpI+/89F5uEtmjU143lFIHbN//Nfl0UylBWDq7zMc6vmuTroSHqmPPrkNzJ9xopc2RCaZs5abXzuGzNAbrqhVy4xq0+v5vLq61OUpZpNTKyWkii33dQ7V11o5467PxbUiTDyii6m2IX9HTsPuuw78hBcjQvpp3PO5Ct4oVyrls1MwWvxX0vlumtGIrnQQnZ2dqG17a+GjymLmRX/7nRbnVWsshY6evyEddchvnjlZnnjqxnmyn3WTNSHz5LVm+WB0QMkpVJ5a7Y0rl1VvszOkfVb9xrpb3w5Qx676WKB+GUNZ5USArFr6dptRjLEt2b1qplFkL98nV1UNjPORSDqWYU9nd+wdhUd5dZLApdc2MoUvGYsXCPD+7aXCgneWeGu27JHtuw6YLS8fXeaEmPnCsRTa8A+nOSj3H+uH2jNYpwESIAESIAESIAESCBMCFDwCpMTGe7DwIqJJUtHm8NMW75XTqR6PtUusWVlqXO5XUjKOpgpe2ZtMeuz5unE8o2D48Q+Pf2obN1mF/OaNPbMMqRjh3pSpkys7q5s33FQ1q7bZezDIqtDu7pmno7Ur+f6QTzr5CkZOvwVNc0vTReVli1qKXGolmSrvMV/bZJNm/cbea+8/qvExZeSUVdeYJZFpHJyOXn9lVFywy3vGemvvfGrdGxf12G1yLNyVv7z2Jem2NWgflV56P5LHOqpd15l6d+3pZmWmZktf8xba+5b83RiyZLFJSoqb+suXbZpE7vVnl4VU+cVxnbX7j1ms7Gx9vNpJoZAJKF0rHRuWc+hpwv+2Wjut2hQXUrHxpj7OlIuwbXV1czFa+Ttr2fpYhIbEyVtm9SWiuXLyN4DRwTT3RB27jssj47/Qd559BqJUSv96QCLnftG9ZO7XpxgCGYQ436avVyG9GyjixjbX+etMMUuJDwwur9ER9l/FospC8VubRtIjhJTdYD1WPo5oQ4CWTUXq0/WqJyoi/t1CxFww459Ptd5SffWUladq6IcwBQWdlqExDm6emBnn7v84sdTjGPxHW2uvoclihWXxUooPZF1ykj/a/VWwTltWtcudPrcGA8kARIgARIgARIgARIoUgTsd/ZFqlvsDAk4EujwkqMT94X3TpNVr/3pWCiPvfOuaCb46IDpkd81HW/sJtRPlF7fXK6zgr49cPCgQ5uertR38/W9HI6bPHWZ3HP/Z0baBV0aycvPeW659NGnc0yxKz4+Rl58doT07WV3IH1GWbq8/e5v8vr4qUb9sOS6qF8rSapQxqEP3bo0lpuV9de7H8w00m+960P5bfLDklA2ztj/8ps/DSsxfdD4cdc6CBVI79G9qfHRZfalHpGuPZ40diHkvfHKaJ3l07ZyJUchEwsGxMXZ+udThQU46MCBg7Jw8V9mDbVr1jDjoRSpklRO7rumn0OXN+3ab1o/3Ti0m1R1IQw5HHBu53hmlnz84zwzq0PzOnLrZT0chBpMoXzuo8myV303ID5h+uLIAeebxyCCKWtjlej19Hu/GOmfT/5TmtRNkfrnVv7bsitVPppkb+feUX2lSkXbtFprRWNGOl573v1+tkxfsNooMlD5nOrZwS6gWo8LRHyZmpIHqydfQ7c2DRw4+lqP83EPXHuRnDyVYySXL+P4t5QQHyuP32IXtVNcMHaub2iP1qbgNen3ZTKkRxspHZdbMHU+zt0+RMtb1HdIT39NP95ZHn9rojm9EdMdAyl4DenZWi5QfUCIUuK8cxhzZW/JzLJZekKYYyABEiABEiABEiABEvAPgdx3Xv6pl7WQAAl4SODIkXSzZHx8nMAfVTADBCVYY+nw/NNXOIhdSIcvrjtu6Su9etis5DBt8dMJc/UhDtsxd/aX1q1qG2mYtvjw418ru66z8u/GPfLk09+ZZV97eZTUqlHR3A9WpEyZ0g5NHbbwd8j4//bOAj6KawvjB7cQJCRAQiA4wd21uGuheIHiFLfCo1iLe1sqaAuF4u7u7u7B3YMEfXMm3Lszm9lkk+xGdr/7ftu5Nlf+M9m+/XrOuXYu+F2/QV17/yBnYSEuZ86IE0/kxFEss2jTIWl9w9Y+PZtXDiLSsAtjz2aV5cpZ8DIKRJ7P10ex6jLFxBs7ex2xoPYm4B2N/TtQvOVBKpfISSXzZZHjIRM6Ar4ZPClv1rTqh5+ZNrG1nWjjq3tyV22zYd43oyJM+qSSbRv3BQqMsiIUGRaQOilxwITYxbfyiZCNqhSVo1y7o/+PDrLBRhlvxeJPMMiRMaglGYuwoj29V8R/J9pomxgGBEAABEAABEAABKIcAVh4RblHggU5G4EnzwIDw/O+kyfTxyKKCBY7dp6T02T3TUNVK5ncCWXDl0w7xaqMY3lxOnb82pda/YUDx09SxKyqtUer8bw4AP60mVtp0ZL9smPjRiWoRlWTECEbIiCT2EUveLHg6OVp7Oppy+W89PenJi3aqkPevH1bnsrJFbkVoWv44IGK617YrVhsudbIHGvzfpMFUzPFaitObON/TWX0VgLXKy5qInbY9TuPKbsilJinJlWL0rmrd9V4Xhy36Y9F2xTxI460PmOB5ttapcxvi5Ll+opLZrnCvmFem5EFW5gHs/ONDSoUpBHTV6uzsKBZvVRenWhl7fRVS+ZW3J2DvkPZNIIaWwoigQAIgAAIgAAIgAAIOB6BoP8v0PH2iB2BQJQmEFOJKSPS+/eBcWVEOSKu1288lNNwDLCe/f6RZZHhU844vf3idsP5Awcvq5ZbMSjoSYypUyWjSeNaUNuOgfG8xk4IdCvj+zhu14C+dTgbKYkDkWsTx2mKiMTP9vzFS0Gm6t6lg3L6ZTOIXQoZ1frqS2wlBrV290naefSCjtnnT6bnd0txbRTp+t1HhoIXW0z2UKzEuo/5V7Uc23v8srhFvfZRXDG11j+6xihW4FMM+eMMieN4pVbiArIYxfG2dignN1YqHmhhGpr9p0mV3LC7uetggHLIQXR5Dww3hEoQAAEQAAEQAAEQAIEgBCB4BUGCChCIWALJkiWVE967/0DmIypz5Zp+zlVrjlo9tf+rAEqsxPwySmVLZad2bcrTXzO26Jp/mfhtkLhdug52Lvj7v9LNoOWva7BxgQPSt2jaiD5+/KScRHmLjh4/oVp5Tfr1D5ozbyGNGTGESpcsbuNZo9dw9x+b3Ht55cGdkGi+s8fP9c9V287B7ns2r0I/TzMJr9zOQpi1scW04yFvfwIsRDesVIgmz92kTsaurhWUeGnsIhmalNzCwQjmruMfP31UhsX/JQoNW/QFARAAARAAARAAgahOAP/vLqo/IazP4QkkS6q32Pjw4QPFtuDGZQ8YV6/el8OmSpmUfHysjyETO4Qfn1Wr5NUJXnzyo08668eXC7Nh5tlzvaiS1Iy/DafSDcXuioN+6CPrHj56TN/36EtHjp2gx0+eUNde/Wn3lnXk4pJI9nG2zMOnL3VbzpU5aLwjXQdNIWUIsaFyKO6OfNqjOJ2Pb82nxJRCiroE+OTP2ct3qwcTsDvqPuWUyhL59KeBhrR6drFGAgEQAAEQAAEQAAEQcE4CELyc87lj11GIgLu7Psjznbv3KK239T/0w7uVVKmSkt/1QLfGFs1KU9tWX4V3SPX+V0pw8B699e6Rx0/40ax/dlDrFmVtMkdYBmG+IvEhAZEVN8s9hRuNGzWcylWupS7n1avXdOrMWSpWpJBYntNd+UQ/bRraqa62GK78X4u368QuHuyX/zZT/9bVKaLcWsO1AeXmbQfP0clLN8M8TIsaxSlZEn0MuzAPFgE3xlbEqoaVC9O0JTvU2RYrsbyK580UbZ5XBCDCFCAAAiAAAiAAAiAAAsEQgOAVDBw0gUBEEOAg6tmyZJbxnc6cPR+hglfG9B60/0BgbKlHj17YbMuDhy+WQpp20JFjllM+xdKLP5GRTp0+K6ctUbSIzEdGJo2XJxUpVIAOHDqiTn9XI8ZFxnoie85UKfTWjv7KaaAuFlxmQ7NWDoS/XYkBZZ4Onb5Gq3Ycp1pl85k3Rcnyeb+7SiwrfUyz0Cy07lf5o5XgxXsrV8iX5q7Zq4qV15XTFE9cvKmeaBiafaMvCIAACIAACIAACICAcxIIXTAM52SEXYOA3QmUKG4SXk6cCjwFMbSTxtK4FwYEWB/8Pr2Ph5zq4qW7Mh+ezMIl+2jFqsNyiLUr+lPzJqaT8Dp8P52ePX8t24PLxIxp+poKCPgQXFer2o6dOCn7FY0C1lQ+6UxudXySo6Mk7XN7/4HjI4Wckrrq3TnvPAr/6XkskkxdsFVO/n3jCtT726qyPHvFbmIhydqkPWTineJ+jGRfAvHjxaE65Uwnui5VrLyQQAAEQAAEQAAEQAAEQMAaArDwsoYS+oCAnQkULpifZsyeq86y/2DYftC5u7vKVV6/8UjmQ8rkyZ1Odtm99wIdU9wOw2N9df7iHRo4eIEc86chjShzxlTUt1ct2nfgIl2+cp+ePPGnPj/Mpb+mtlXOeAz+lMRkyUwiyCvF4uel8rEUKF9OaiHz8eNHZQ2HZGuhAnllPrIyERmvLSL3mEJxneMT9jg9ee5P6Tz1rrtGa2HXwny+6WSw+kUbD9HAtjWNulpV90Y5VXTUrDWyb6kCWahcYV+1XLFYDtq074yaHz1jDU3p31R5r/QulfJGTUYbBP2RWcwxTTe7ZJsrLon1yhcI89gcvD86piolctH8dQfUpZ++fJsuXb9HmdOlio5bwZpBAARAAARAAARAAAQikIDJdCICJ8VUIAACegIlixcljifFiV0ar/ld13ewosQB50U6e+4WHT/pJ4rBXvPm9qEa1UwWFIOGLqRr1/UnN2oH4HH7DvxXFca09Zz3fx1AnbrOkNWVK+ahRg2KqWW21PhlYmvZtn3nWZo+a5ssW8pw0Gnt3hYs2mupa4j1e/YdUE9G5I6ZMmagbFmzhHgPOoSNQEo3kwC7fu9p+qScTmlNalnTdFLlkbN+tGLbUYv3+itx4tbtPkm/LzRZcGnn+GPxNrr/xU3XLakLtatfRja3rlOaUnsE/s08939DU+Ztps+fP8t2S5kUyVxk09YD55R3/q0s2zvjkjA+pXRLEuaP1urO3mu15fgsRNYsaxKnlyvvBBIIgAAIgAAIgAAIgAAIhEQAFl4hEUJ7pBO4NOcEvX/1TreOhwdvyfKtzVeIYuqthBJ5JqZ0tbLJPlE9EzduXGrR5Bv6fdpMdalr1m2kLh3bhmrZnqmTUdYsnnRBsbDi9HWTSVSzen5il8V4itjEifvUqGoSt9RK5R/9etei1WsDf0Ty/ZWqj6DWLctSdt80qth07/4zNR7Xpi2n5PhVFDHLPA0asoBu3nqsVrNI9fOwRroumTKkpBHDvqEBP/6n1o8Zv5IK5EtP+fOm1/UzL1SpnIdmK8HuOY0et5L2KJZoObJ7k6troEUOWwa1+bac8hro3wPzcVatWS+rWjb7RuYjMxMnTuCz4TW8eRNx4om991zA14c27w+Ml8axsnqMm0d5s6WjJC4JpFVfqQJZKYUiRGlT2tQpVHFj1fbjavXfK/fQnuOXqFT+rJTmi0B1++Ezunb7kRrEnTsZWY9tVES2XUcuyqH7Km6MiRLEl+V4cWNTP6Wu+5j5ah2La8u3HqW6IVhQ5choOlCChbL2w2dTaWUfbopFW6wv7re+GT0pm09qORcy4SdQo1QeEu/EvhNX6Pb9p+SVMln4B8YIIAACIAACIAACIAACDksAgpfDPlrH2djuzqvp/csAixvyW3aO+KNNHkW9o5XgxWv/un5tKXgtWLyMOrVvQ6GxyGCx53/961Lz1r9JFKvW6C0h8ivikpHglUoREv79+3vq1XcOsbjFaebf29Wrtf+Yv3CPFM34nsnjW1KSxIFWa9oxvq5XlHbtOU/rNgQKGh0Vi7B1Soyv5BrLGW1/zndqV4lWrj6iukJymV0v+aNNHCOMrcgsJX//V7R81VrZXKNqZZmPzIyH5pTOBw8DT8uMzPXYau7CuTJQnqzedOJC4KmCN+89Jf5oUyZvjyCCF7c3qVqMPnz4pFpvcfnyjQfqh/PWpGu3H9Ifi0zWg+wKaOQCx+Ja+wbl6E/FEozTnNV7KVv61OSbwdPiNCzQNalWlOat3a/2efP2PW3Yo4+716hKYQheFgmGrcE9uavqjsonVXJaueMYdWz4VdgGw10gAAIgAAIgAAIgAAJOQQAujU7xmJ1vkzHjBP9qx4htao+pyUcmKe80XlSnZjV1CffuP6CNm00/2K1dV9HCmWnV0r7UuFEJ8k7jFuS2OHFiBakTFYULZKT1q/TB5UWb9lqqRDbiuFwFC2aU1bfuPKEfhy2S5e7fVwvWauunoY2kmyLH8/pp1FJ5r1EmWdJEtHX9/4jHLVI4k7xX2zcE4y6av3CJ7M5ioouLKTaYbIiETOpUKeWsS1espufPX8hydM6w1d2gdrWoW7OKlC9bWuk+qN1TzFjGFnlsfdVWcT8c2rkueaeybMXD1mLs6taxYTk5LLsljvvHZMnHolvtcvlku3mmUvEcVCR3Blk9ZtZa4lhvwaUGFQvRD99Vp+J5M6kWa+Z9Q7I0NO+PsnUE6mieI8df49hwRil2bNP3nLC6M+qnreP3FQkEQAAEQAAEQAAEQMCxCMRQfhzogpZs2xX4X63LlSrqWDvFbkAgGhC4c/celalYQ11pep+0tG7lYukmxZWTPb3Utm53FqhXe/3jM32me/cUtzG/h3RXsfhyS+6iikxeXsnDHDDeXms1GneyZ6ArZbc7t9Vmtu4qWb6qGr+LY6Xt3rIuyghed+/dp9IVquu2UeGrMuSeIgVlyZyRmjVuqGuzd+Hz7YP2niLU4we8+0B3Hj6l2w8CLcTclNMckyuWVh6K1Q+EilDjjNY3jJqxmg4qLrKc6pbPT81rlIjW+7HH4mN4FbbHsBgTBEAABEAABEAABKIdAZOZS7RbOhYMAo5HwDN1Kurc4Tt1Y9f8btD6jZsjZZN8cmJqxbKmeNEsVL92YSpbKjtlU+KDhfV0xEjZhGbSeQsWy2D1A/v1ijJiFy+RLbz69uyqWS3R5q07VIu01Ws36OqdtcAWX+m93Klkvizqxzejlxq4HWKX870RdTQx1pZtORqhhwY4H23sGARAAARAAARAAASiNwHE8Irezw+rd0AC333bXAoySVxdHXCHEb8ldhft17sbxVZOfKxXO9CCLuJXYXnGtq1bUNnSJWnN+o3EFl/3FZfW+w8eUrq03pZvQgsIOCEBPgygXGFfuvf4ubr7q7ceUu4s+DtxwlcBWwYBEAABEAABEACBEAlA8AoRETqAQMQS4NhSLHoh2Y5A1coVbDeYnUbKnCkDde/SwU6jY1gQcBwC3zeO+n/PjkMbOwEBEAABEAABEACB6EvAYgyv3r9nj767wspBAARAAATCRGBOpzNhug83gQAIRA0CzafmiBoLwSpAAARAAARAAARAIJIJIIZXJD8ATA8CIAACIAACIAACIAACIAACIAACIAACIGBbAhZdGldNQOwg26LGaNGZwOotusNMI20rBwZ0VucuOU4f5DzSFhRFJ97de4q6siIjfgvXCmuUjxGu+6PjzSnexoqOy8aaQQAEvhDA/3/DqwACIAACIAACIAACgQQsCl4ABAIgEHUJCEEn6q4QK4uuBB7FLxxdl451gwAIgAAIgAAIgAAIgAAIgIAkAMFLokAGBEAABMJGYMu2jXTp8nn15mZNWpNLIpewDYS7QAAEaO36lXTjph/FUk5V/bZ5O4oTJw6ogAAIgAAIgAAIgAAIgECoCUDwCjUy3AACEUcgIMCf3r59oU6YMGFyCq+LXsSt3HlmevDwPg37eYC64SyZs1H77753ns1H8Z1evXaZ3r17Z7hKz9Re5OqaxLANldYT+PDhAz169EC9IWHCRDZhGhDwluYv+EcdM2mSZPR1/SbWLwg9QQAEQAAEQAAEQAAEQOALAQheeBVAIAoT2L3zDzp6eIG6wkpVfqA8+epF4dU659Kmz5wqN96mVUeKEcP54n5JAFEs07NPJ3r67Inhqrp/35fq1m5o2IZK6wkcPnqA+g3opt5QvFgpGjl8ovU3W+hZrUpt+nvOdPXZzfz7T6pUoRolSZLUQm9UgwAIgAAIgAAIgAAIgIAxAZzSaMwFtSAAAiAQIoHzF87Shk1r1H7ZfXNR0cIlQrxH2+He/bu0fsMq9XPq9AltU7TOO+q+ovVDCWHxu/Zsl+/i27dvQuht3+Z48eJRm1Yd1Elev35Fc+bNtO+EGB0EQAAEQAAEQAAEQMAhCcDCyyEfKzYFAiAQEQT+WzhHTtO4YXOZtzZz5uwpGjl2qNq9csXqlCtnHmtvjdL9osq+JoydqnNpZDe57Ts3R2l2kbW4qX9Oojt3bqnT58iem7y900XWUtR5K1WoTlP/nEwseC1aMo9aNG1jE3fJSN0UJgcBEAABEAABEAABEIhQArDwilDcmAwEQMBRCDx58oi27dikbodjFxUJpXWXo3CIyvvIkD4TZcuaXX48PFJG5eVibRoCbOVV4asqsmbj5rUyjwwIgAAIgAAIgAAIgAAIWEMAgpc1lNAHBEAABMwIrNuwWtbwD3P+gY4EAiBgOwIVK1SVgy1ZvoA+ffoky8iAAAiAAAiAAAiAAAiAQEgEIHiFRAjtIBACgffv39KL5/eIr+FJfP/rV8YBtsMzbljvtdW+tPP7+z+kDx8CtFVhyr8LeEUvXz6gz58+hul+vonXEp5ntm7DSjl32TIVZD6yMy/9X9Lz588iexkOP/9b5STBR48e0ufPn8O9Vx7rsWIxGNbEbn8vXjwP6+12u+/jxw/0UDnB8ePHsP2d5lRcK5MlTa6uj90tL146Z7e1YmAQAAEQAAEQAAEQAAHHI4AYXo73TLEjOxN4+uQG+V3bT5cu7qS7d08Tiy8iJUueljxSZqEsWctRNt9KotrilQWXfXumK+MdoPv3zqv9kib1Ip8MRalYie8s3scNRw7NpyuX96h9fLNXpFx5agfb//y5jXTyeKBIkzZdfipavLWuvy32xWLWssW9VREgTpz4VLfBOLpx/TCdObWGrl7dKwU9d4/MVLxEG8qSrbxuDZYKLGwdP76Mrilj3L93gfwVsUskZp4rdy1l/zUpYcLAH8eiTXvltR0++K+ynqO658b3e3nlppKlO1BiV+tc3tid8eatG3L4bFl8ZT64zPRZv9O586dll/tK0HqROGh4r36dRVFeM2XMSh3bdZVlowy7e+3avU0Z+4wqMHAfFgpyZM9Fjb5uRrlz5TO6TY0f9kgRJDgVK1KSGtRrbNiPK5etWEi79+5Q210SJaYhg0bKEynttS+Li4mkhtNnTtLK1UvowsVz5Hf9qroKdmfNliU7VShfhapXtfw3yIcTbNq6Xr2nTq2vqVCBIrRg0Vw6fPQgnTx1TI5VsngZ6tq5NyVO7BrsLlkk+3vONDpwcA9duXpZ7eudJi3ly1uIWrVsRwcP7qV9BwK/H2rVrE8F8hWS49244UeTfxsry5wR8bs4//OoHymRiwtndalT+x6UMUMmXZ1RYc26FbR33046evywGoOL++TNU4C6delD7GZqbYoZM6Z6n3AdPnnquOKemsPa29V+/N7u/8JB3NhB+XtK75NRFHEFARAAARAAARAAARBwUAIQvBz0wWJb9iHw6dMHmv5nfYuDs2jEnwvnNtP1awepfKU+FDu2savbq1ePaeminnTv7lndeM+e3abjR5fQrRvHyM09g65NW0iYKDld9zugVj1/ditEwevQgX/lXFmyldMOpbgK2WZfHz++V8VAMfh1v0O0cH4nUZTXhw8u0Ypl/als+e5UqHBTWW+UefL4Oq1bM5Tu3D5l1Kzy3rn9V9q/bxZ167ndsM+jh5dp1fKBikVOoEih7SSe2cWL26hGrZ8oY6aS2mbDvPZERZ90GShRoqDigNGNLHYdPhL4zMzb2UrHqC1AETYsJbbqGTdpBO3YuSVIl6fPnqgCFYtU37XuRE0ataRYsWLp+pVTLNP6Deim1vHcmTJmUQUGXSelwELPpF/GyOrB/zOJXVxp633JiaJIhi2V5s6bRTP//jPIivi5HT1+SP0cPLSP+vT6H7kYvA/Xb/rJ55tfEaVWr1lG+xWxSpt4LBYvT589SVOnzJTWTdo+nOdnO2BQLzp7Tv83wSIsf85fOEP8XooA/QULFNYJXi9evpBrMR+by+eU+43Ss+dPjap1dXyi4vSZU3V1XDh+4gi1avsN/TJxmkUBNshNSgWLtkLwOnbiMDVsEPz3hfkYV65eCsK5caMW5t1QBgEQAAEQAAEQAAEQcEACELwc8KFiSxFHIGWqbOSWIj0lSeJJAQH+qqAkhJmTJ1aobnP1G04OsiB2g1qysLu06uIOabzzUarUvqqAc+XyblWcMRJoxGAZM5qEGRbJ2PIpZaqsoll3ffb0phS7uIEt0IJLYd2X+ZhC7GKLrtSps9ObN88Vy7jtstv2LZMot2KZFi+esWDE657xVwPZnzNirHjxXenxoyt069YJ1cpOa2mnvYHFrlnT9ZZLGTOXohQpMhCLjlevBFqe8f1LF/WgFq3mKByzaYcIkj+jERosWU8FuUmpYKEjsYvJcuf2nZuKm1agZR9bZLEVjHlK72MserKFT/suLXWWOdl9c6kCwfv371WBQVghsQDBlkj16zTSDV9UCbTftPG39O/82Wr9kOE/0N8zFirvc1LZj10khwzvL8u1a2vd1HkAADv9SURBVDagr8pWlGXO2HJfuoGjSGHU2GGqECWW4+mZRhWQmOmlSxdUsYvbWGD68OE9/TxsvOhqeP1rxq9qPd+fN09+ckueQn1ewmqQra1WrlpCLZu3DXI/f3f8MLCHTpQSz50tBncqln78Ton3KsgASkWyZMmpXBn9MxSiEvcvqFifad9TMYZbcjeRNbzu3bdLsezapbbxu5zW20e1hBMWbNwwTXkXWfSyNmVVDh0QSYwtyriCAAiAAAiAAAiAAAiAQHAEIHgFRwdtIGBGIAbFILasypuvPuXJW4dcEnuY9SDVumvl8h/UehZT2JqJRRptYpdI4cLI9VWqD1Ld8kSfmzeO0n//thdFw2vceIkoe44qdPZMoJvUxQtbLApeF85vlWOwBZO565+t9iUn0WS+qtCTChQyCU737p2jObNMFhbnzm5QeWpukdmtWybKPGdq1RlJWX0r6OqEW+iBfX/r6kVh6+YJIkvsvli77ijd83j79gWtXzNcCnGbN46hJs1nSHc9ebMmI9wAuSo0J/+xuKRNW7ZtpGE/D1CrChcqRgP6DdU2B5tftGSeFLtYOOnf+0cqU7q8vIfjJv07fxbNmP2HWseiF1t0JU+mFy3afNtBdaljqzW2HBo1biiNGDZB7n/chJ+lmyS7s3Xu0EPOITK23JcYM6pcWazRnhDYumV7ataklWItZ/rX5779u6j//wK5sEXdocP7qVDBosFugVmO/GkSpfRIpfZjK7LR44bThk1r1PJ/irtjsyatg1jlsSWe1gKrW5e+VK9OQznX+QtnqUefjtKVUDZoMl6KYMcuqdp0QYmPJdwauytjenun0zZbned3ceTwCTrxlt1Ax08KnI95Xr122WrXRnc3d93cb968pgQJEurqUAABEAABEAABEAABEAABIwIxjSpRBwIgYEwgRsxY1LnrBipRqp2h2MV3sSCjFWXYWss87d87S1blzFVDJ3Zxg3fa/FS+Ym/Zx1ImW/bKsum0EifLUgDts6fXyn7Zc5pOPhOVttqXGE9cs2T9Sid2cX2qVL6Ur4DpB/rjR9dEd92VxcIrlwKtRbih4Te/6biKzhwrrHTZLtS+0ypRJa9sTcZulSI1aDhJJ3ZxfXzFUqxajSGqkMllttATrqJcNkpPn5pcu1xDiLVkdH946zgQuNZtrF/vQTqxi8dn98UWzb4jjgnFid3lli5boOa1/2Dh5seBI1QLMK5nK5qlStwjTqvXLpducVweOmi0U51GyaLhpF9G89bVxLG32OpKK3ZxQ7GipairEp9KpBlKrLaQ0sD+P0mxi/vymG3bmGK48fMyciGcq4iYInHcMK3YxfXZFIsoI1FS3GPvaztlD+aWijWr1yOOLybSzZvXRTbEq4vZ39fzKBicP8RNoAMIgAAIgAAIgAAIgECkEIDgFSnYMamjE/D0zCW3+PLFfZnnDMe5unXzmKzLmbuGzGszvhoxS1uvzfukL0Js6cWJA7kLd0ptH3bp07pGZshQQtscqnxw+zIaKH9Bk7ClbU/jnVcWzfmIhiuXd4qs6u6ZLn1hWTbKuCYJtJTRtl08b4ptVaRYS0qazFvbLPPMsGChJrJsHldNNnzJPHn6WFa5aFwUZaWdM9og3FkyZ6OypfVWb9rpGyuxu0Q6deaEyOquHu4pafDAn2XdlF/HqpZGYyf8JOtYFAur1Y8cJJplbt2+IQPC89I5FpqlVEsRdURiCyx2K7WU2A3WKPi7ewoPYndJkZ48Mb1nXPfhwwfV9VG016xWV2R118g8NbRq5Zq6tXAhRowYlD+f6e/3sdm+gtygqUikWIxpU2hPo2T3XOaq/cSPH187JPIgAAIgAAIgAAIgAAIOSsDkk+GgG8S2QMBeBDiY+u3bJ4gFG/68fftSTvVUiT0l0oePASKrXv39H+rKnsoJgUYpQcKkaiwpreujeb9YseJQjpzV6diRQIucC+c3k1ca/Xhad8bsOatJgcx8LFEO677E/doruxAapUSJTG51r18/MeqixOfyk/WWREHZwULm4cMrsoUPEjAS1z59+qT2eaYE/hfp3t1zIhvyVYmpFNHp1m3T+8WxmoaP/F+QJXz+sq+AANP7x4HDeb98+p15Kqqc0tjkm5Y0779A19ARowfLLrVq1Kfy5UI+dVTe4CAZ4eIntqO19hJ1grMoiyvHT8ucKaso6q6ZMupdnLWNLD6KeTm4vDY9eHBPW6ScOfLoyqLAQfN9ldMMta6Pos2eV7biih8/geEUKdxSyPrnL57JfEiZz58D/z5FPxbPQpPatu5M/EECARAAARAAARAAARBwPgIQvJzvmWPH4STAgtDuXX+osbqsGUoIKqIvW2KJxJZFLFpZSi6J3XWxvoz6sSWYELxOnVxJ5b7qRuyiyIldHDl4vkjBWY2Fd19iDu3VPFaYaIsdO67IKlYr72Rem7l//7wsurqmlnlrM7x3jp8mEgf254816aXmGRn1T5HCXQ3GzW0vXj436mLXuhs3r+nG37xlva4cXIFjIFk6VfK7Vh0VC6KjutP/1LhdHXsEN6TDtmmFRd5kaDg/fvKIMpOx4JXCzcMis/jxTNZH79/r/zbYlVUkjpUVO7blf4W7u3tEuOCVMqXlv9O48eKJpdO7dyYRVlZayLx+/VrXoj1QQdeAAgiAAAiAAAiAAAiAAAiYEbD8/5bNOqIIAiCgxEF69YTm/9tOvWp5sCWTq2tKxXUnUGh6/vyOetoi9/mkBKPWplfKGCLFjat31xH14powQTKRtXj19MqlxhNjIY1PGryhBLxP51NI7c+ueUJgY3HNx4JboC32ZbTAmF+EN6O24Oo4EL321EWXxCbrkODu07a9eWOKs8X1fHBAQsVqzpqULJmxZZq4N2lS03N5aWaFI/rY86qNgcSuWt5p0lk9Hcf2spQ4jlTpkuV0ghfHp9KKMJbudcT6u/fuyG2xwJQtS3ZZDimTxDWJxS5x45oEX4udDBq0Mb1COjFRKzAZDGWXqrDuK7jFmFu5uQbDNbhx0AYCIAACIAACIAACIOB8BCB4Od8zx47DQWDj+pFS7GIBqXLVAZQ5S7kgVlonji0l7muUOEi6SJ8+6cUwUS+u797rrRtEvfbKLj6589SmvbunqdXs1igErwvnNsmuHBw/ZkzjP3lb7EtOZINM7NgmaxAe7u0bk7uotcPHi5dY17VSlR+IxUFbJHGyHo91+651VmO2mFeM4Z4iJd28dUMtNqj3DX3TsIVoCtf1ytXL9Me0Kbox5s6bRSWKlabsvrZhpxs8iheSJUsuV1gwf2EaPmSsLEdGJllS03pCioP19s2byFiizee8/+CuHJNFR2cVXyUEZEAABEAABEAABEAABKwmEDSQi9W3oiMIOBcBdpHjU/9E4hP/svlWCiJ2cXtwrnOJE5vcmdiy6tOnj2LIIFdhnRWkwaxCeyrkubMb1MD4n5Vxz5xZJ3vyWo2SrfZlNHZY61jES5kqm7z95Ut97CLZEEyGXUWTJvWSPSzFCpMdQpHJpYmddPKU6QCCUAwRrq5p0/rI+0MSPmTHEDJ8KuDgYX0New0Y1ItCGyzccKBQVt644UfMV/u5eu1yKEcx7m5N6DXtyYK375jiphmPaP9atuYTiZ9XcIHxHz9+JLpG6+v582fl+ll0RAIBEAABEAABEAABEAABawkYm3tYezf6gYATEWA3RZHYussrjemkQVEvrnfvnBHZIFcXjeDFjU+f3iA3t/RB+n34EEDaoOtBOmgqUqTIoLrsccwqdgX0u3aA4sZNIK3ReE5L1k222pdmOTbJuil7EgH7/a4eUMXF0A6cwj2TFB8fPbxKmTKXCe0Qhv1zZDcdDMABxlkMCourVaxYpv/moA0ubzipplIrxNhKABo/eaS0GuPxp06ZRb36dSYOiv/02RP6WQliP3L4BMOA95qlqdmw7st8nN+nTaa9+3bpqvmEw18mBloz6hqsKHAwd5FeWBE43TN1GtFdPa3x3bt3yt9V2NwR5UDhyLgrAe216dSZ45Q/b6D7srb+pf/LUMfviqU5yOBdMCdMaueJiPyZsyflNPkM9iobLWROnDxKm7fqY9x9VbYS5ctb0MIdqAYBEAABEAABEAABEHAUAqZfW46yI+wDBOxEwDwWl6Vpbt86STdvHLHUTHHixCft6YVnT+t/jIkbr17erYtjJeotXdllUaTz5zbS+bMmd0Z2ebR0upmt9iXmttXVS3N6JQfj56D6oU1pvE2n2B3Y/zcFBPiHdgjD/ixucTB3kc6eOyWyobomT26KTXbn7i2r783um1P2PXzkAJ0+YxIFZEMoMqvWLNMFZB/64xhVwPtxwM9ylP0HdtPCxXNlObhMWPcV3Ji2aEuVylMOc+nyBZm3lEnrnU6J+2aKs7d85SJLXSOknoPUawWulauWGs67fcdmw/rgKtlNVqSHj+6LbKRePyrxD48ePyzXkCd3Ppm3NnPN7wqtXL1U97ly9ZK1t6MfCIAACIAACIAACIBANCYAwSsaPzwsPWIJJE1mco9jK6oL54L+qGRrqY3rTCKBpRUWKdZSNh09skB3miA3vHr1mHbumCr7WJPJ5ltBdjt7eh0dP7ZElrUuj7LyS8aW+zIfOzzlXHlq6YTB1Sv/J621zMdlkXHenDbm1ZQ3/9dqQH9u4Ge2cd1Ii6IXx1O7eGEbLV3UwyqhsUa1enK+rdtN4qKstCLjoXFRY0sqa4UzjqdVvpzJRXXC5BGkDWRvPjWPO3LMEENhjH/8j5toeme7f99XinneiuAzoN9QOdzvf02hU6dPyLKlTFj3ZWk8W9VrXUF3790R4l7ix09AHdt1k9PP+ucvOnR4vyybZ9jab9rM32jp8oXmTTYrN2/WWo61bccmWrx0vixz5sLFczT1z0m6OmsKqVObxMAVqxYrbtEfrLnNrn0OHz1I7LrJySddBuW9zGzX+TA4CIAACIAACIAACICAYxGI7VjbwW5AwH4EOOB7xsyl6MqlQBerlct/oKIPLioB4gurMbPY/Y6tiLSnC1pajW/2yrRz+2+qyyH3nze3LRUt1kp1S3z+7BYdPjjPorhjaUx2W+Rg9df9Dum68OmE7PJoKdlyX5bmCEs9x+CqWKkfLfyvs3o78/17ZlPKX6Chyil+/MT05MkNunv7FJ09Y2wlx9Z0FSr1oeVL+qhjsOXbjRuHKX/BRqobabx4LvT82W16/PiaOgbHVOP0MYTDBLhPxfJVaPKvYzhLGzatoW5d+lAijcuc2hDCP9hFjS3FOFg8p47ft6IKyrjeXmkV17nAwP0pU6bWiVtiyI7tu9OWbRvVIt/frFV9atigKWXOlJU8lHEfPLxPt27fpN17tsnxy5QqL25Xr69e+dP/hgSy4YqSxctQnVpf6/pUrlidjijCA++R0yCl/+zpC5T4aKaTKnU3KIXw7Mt8LFuWfbPmUC2kjh4P/Bvp0r0NFS1cgrSWX02+aUnaQwmqV61Fq9YsVV07WXzp3b8LlStTkQoo8aS8vNIop6C+VF1BT54+TmwFx6nR181suWzdWGzhlStnHinW/TJ1vPoe5MyRmx48uE/bdwYV4nUDWCgULVKS1qxbobayG2nrdk2oUMGixIHyhXUov5v8bkVU2rJ1g5yqft1vZB4ZEAABEAABEAABEAABELCGAAQvayihDwh8IVCpcn+aceOoFLX2751F/NEmFp7y5q9Pu3f8rq3W5fkUwtp1R9GSL9ZELHrt3P6rrg8XWKh69OhqkHpLFdlzVgsieOXKXdNSd1lvq33JAW2USZe+MFWpPojWrxmujsiczHmHNFXmLGWpYpX+tGn9KLUri1rBPZuQxhPtiRO7UvWqtaVIsGffTqpUoZpotuoaK1Ys+r5Tb+reu4Psv3mLXrxjcUNrzSU6cgDzyeP/pJ9GDqKHjx6o1QsX/yuarbqOnfAzsVUSJxY2+vYaJMUN7QAs5p06c0Lty/G82Fps5E8TLcbzCs++tPPaI/99517Us08nNS4Zj7//4B7dNJUrVtMJXrFixabhg8fQyLFD6fiJQFdltqziT2SlEcMm0MDBvdVg/rwGtuDTWgeyKJYmjbfqxmftGkuVKEsFCxQhdpHl5Hf9qvrR3p81a/YIE7xYjBUiK6/B6G9AuzZLeaPDFthyDwkEQAAEQAAEQAAEQMDxCcCl0fGfMXZoQwIsZjVv+bdiSVXEcNQ03vmoSfNpivWQj2yPqfxgNkrcl8diCyzzxPM0aT6DfDIUlU0xYsaSeUuZTJlLB2nKkk1v1ROkg1Jhq33FjGHdV4p2L2zJFVzKlbsWte+0SrWus9TPK01uql1vtKVmypuvPrXtuJwyZCxusQ83sGBYp/5YYssva5LWkuff+bMVSz/LJ25aGo+DZ8/8az7VqlGfPD3TBOnGgoullDdPAfpn5iKqV6ehpS5qfeFCxah3j4GUWxMDiS2BtKLNkEEjKUmSpIbjsOXa4IEjZBuLRMIaSFaaZcKzLzFUbIO9G9WJ/tZcM6TPpFqoMbMsmbMFuSWmwd8ZW4BNHPs79ejaTxUGg9z0pYKt9dq27kx1ajYI0kX7HLV5844xNQcZxDJYC/fnGHLjR/9GrVq0I3ZvFYkt2Jo2/paGDRlDHGBfJGsOVGArrjEjptDA/sOI3xftwQhiHG1ge1Od6XspuGej3Ys2L8Yxv3LcLZGaN20TautJce+RY3qLV47JVq5MBdGMKwiAAAiAAAiAAAiAgAMTiPFZSdr9bdsVGJ8ka2bTD21tO/Ig4IwEVm/R/ZmoCDhe11PFpe6V/2NyS5FeFa5CEm8ssXvz+hndvXtW+ZH6ilJ75lCEB09LXe1eb8t92Xqxnz99VF09OYB9QMBLSuyaSnGt81Ku1rtZ8RhPn95S3CH9VEu9RIlSkIuruzJOGjJ/fjXKxwhxC+zWKGI2Df1xFJUtHTk/pvmrnC29OJbXQ8WdkV0O2bUwleISGVpXyxA37eQd2GrohsL59p2blCBBQsXqyUNl7aY5hCAiEfEJnxxzSxtgv1uv9tIi7c/f/qFsinVWdEls3dWgcXU1fhfvafH8NWF6h9++fUOVa5TSbbuT4gqsFap1jSiAAAiAAAiAAAiAAAg4FAHLpgMOtU1sBgRsT4BFKVsJUwkSJg3R+sj2OzAe0Zb7Mp4h7LVsGcYnXGpPuQztaDxGcrd06ie09xr1b9msLa3fuEb9cT595lRi17DgLHiMxrBFHVvocHyliIyxZIt1R8cx2GKKY2bxJyqkePE43ltgzDdez5s3r9WYY2JtLHpGp7Ri1RIZrL5Lx55hErt4v2fO6k9PZbfd2rWCWt9FJzZYKwiAAAiAAAiAAAiAgPUEIHhZzwo9nZpAUAsvp8bhNJsP2cKLLanYHfCa3xWVClvbJEyIr1aneUUiYaN8GEECJQ6Vm1sKw9nZ4lCcbshum8EdMGA4QCRXenp6Ucf23YhdH6tUqh7m1Rz7EnNNDNCy+XcUP158UcQVBEAABEAABEAABEDAwQngV5mDP2BsDwRAwP4EihQqTvxBAoGIILBpyzqa/c9fVLxYKapQrgqlTeujilr3799TA72vXL1ELoMtpKJbspVbMJ8uKhJbd1WvWkcUcQUBEAABEAABEAABEHACAhC8nOAhY4sgAAIgAAKOR2Dvvl3EH0uJA/PnyZ3fUrPD1/844Cd6G/BW3adr4iQUN25ch98zNggCIAACIAACIAACIGAiAMHLxAI5EAABEAABEIjyBNJ6+5B7Cg/1kAKjxbI1U99eg1QLMKN2Z6lLndrLWbaKfYIACIAACIAACIAACBgQsHhKY+/fo8+JTgb7QhUIgAAIgAAIgAAIgAAIgAAIgAAIgAAIgICTEojppPvGtkEABEAABEAABEAABEAABEAABEAABEAABByUgEWXxiPzXB10y9hWdCJw9ZofNWnZjlxdXcjD3V1x43GjAvnzUp2a1cnFJVF02grWCgIgAAIgAAIgAAIgAAIgAAIgAAIgEEEELLo0litVNIKWgGlAwDKBs+cuUO2vmxp22Lx2GaVL623YhkoQAAEQAAEQAAEQAAEQAAEQAAEQAAHnJQCXRud99tFi5x4e7tSlY1tq0bQRlSpRTLfmsRN/0ZVRAAEQAAEQAAEQAAEQAAEQAAEQAAEQAAEmAAsvvAfRisCK1Wupd/8f5ZovnT4s88iAAAiAAAiAAAiAAAiAAAiAAAiAAAiAABOAhRfeg2hFoFrlirr1Pn/xQldGAQRAAARAAARAAARAAARAAARAAARAAAQgeOEdiFYE4sSJQ4kSJZRrfvz4icwjAwIgAAIgAAIgAAIgAAIgAAIgAAIgAAJMAIIX3oNoRyCxi4tc84cPH2UeGRAAARAAARAAARAAARAAARAAARAAARBgAhC88B6AAAiAAAiAAAiAAAiAAAiAAAiAAAiAAAg4FAEIXg71OLEZEAABEAABEAABEAABEAABEAABEAABEAABCF54B6I1gXfv30Xr9WPxIAACIAACIAACIAACIAACIAACIAACticAwcv2TDGinQl4uKeQM9y//1DmkQEBEAABEAABEAABEAABEAABEAABEAABJgDBC+9BtCPg5eUp17xx81aZRwYEQAAEQAAEQAAEQAAEQAAEQAAEQAAEmAAEL7wH0Y5ArepV5ZqXrlhN02fPoYAAuDZKKMiAAAiAAAiAAAiAAAiAAAiAAAiAgJMTiPFZSVoG23btV4vlShXVViMPAlGKwKx/5tHk3/6gV69ey3WlSulBSZMkoQrly1K3zu1lPTIgAAIgAAIgAAIgAAIgAAIgAAIgAALORQAWXs71vB1mt61aNKG5s/6kqpUryD3du/+Azl+8RLdu3ZZ1yIAACIAACIAACIAACIAACIAACIAACDgfgdjOt2XsOLoT+PjpE/1v8E+0eNlKuZX0PmkpZ47sioWXK+XJnVPWIwMCIAACIAACIAACIAACIAACIAACIOB8BCB4Od8zj/Y7XrFyjU7sGvRDH2repCHFiBEj2u8NGwABEAABEAABEAABEAABEAABEAABEAg/AQhe4WeIESKYwJZtO+WM7NLYomkjWUYGBEAABEAABEAABEAABEAABEAABEAABBDDC+9AtCNw4+YtueYa1SrLPDIgAAIgAAIgAAIgAAIgAAIgAAIgAAIgwAQgeOE9iHYEnj1/LtecxtNT5pEBARAAARAAARAAARAAARAAARAAARAAASYAwQvvQbQmEDs2vHKj9QPE4kEABEAABEAABEAABEAABEAABEDADgQgeNkBKoYEARAAARAAARAAARAAARAAARAAARAAARCIPAIQvCKPPWYOI4GX/v7yzjhxYOElYSADAiAAAiAAAiAAAiAAAiAAAiAAAiCgEoDghRchWhEICHhHr169lmt2c0su88iAAAiAAAiAAAiAAAiAAAiAAAiAAAiAABOA4IX3IFoRWLZytW69rokT68oogAAIgAAIgAAIgAAIgAAIgAAIgAAIgAD8wfAORGkCDx48pD9n/E0vXrygq9f86OTps3K9NatXkXlkQAAEQAAEQAAEQAAEQAAEQAAEQAAEQEAQgOAlSOAaJQk8evyE/vn3vyBrS5QoIfXq1jlIPSpAAARAAARAAARAAARAAARAAARAAARAAIIX3oEoTSBBgviU3ictJUyYkFJ6eJB7CjfKnzc3VataieLHixel147FgQAIgAAIgAAIgAAIgAAIgAAIgAAIRA4BCF6Rwx2zWkkgvU862rh6qZW90Q0EQAAEQAAEQAAEQAAEQAAEQAAEQAAEELQe7wAIgAAIgAAIgAAIgAAIgAAIgAAIgAAIgICDEcApjQ72QLEdEAABEAABEAABEAABEAABEAABEAABEHB2AhC8nP0NwP5BAARAAARAAARAAARAAARAAARAAARAwMEIQPBysAeK7YAACIAACIAACIAACIAACIAACIAACICAsxOA4OXsbwD2DwIgAAIgAAIgAAIgAAIgAAIgAAIgAAIORgCCl4M9UGwHBEAABEAABEAABEAABEAABEAABEAABJydAAQvZ38DsH8QAAEQAAEQAAEQAAEQAAEQAAEQAAEQcDACELwc7IFiOyAAAiAAAiAAAiAAAiAAAiAAAiAAAiDg7AQgeDn7G4D9gwAIgAAIgAAIgAAIgAAIgAAIgAAIgICDEYDg5WAPFNsBARAAARAAARAAARAAARAAARAAARAAAWcnAMHL2d8A7B8EQAAEQAAEQAAEQAAEQAAEQAAEQAAEHIwABC8He6DYDgiAAAiAAAiAAAiAAAiAAAiAAAiAAAg4OwEIXs7+BmD/IAACIAACIAACIAACIAACIAACIAACIOBgBCB4OdgDxXZAAARAAARAAARAAARAAARAAARAAARAwNkJQPBy9jcA+wcBEAABEAABEAABEAABEAABEAABEAABByMAwcvBHii2AwIgAAIgAAIgAAIgAAIgAAIgAAIgAALOTgCCl7O/Adg/CIAACIAACIAACIAACIAACIAACIAACDgYAQheDvZAsR0QAAEQAAEQAAEQAAEQAAEQAAEQAAEQcHYCELyc/Q3A/kEABEAABEAABEAABEAABEAABEAABEDAwQhA8HKwB4rtgAAIgAAIgAAIgAAIgAAIgAAIgAAIgICzE4Dg5exvAPYPAiAAAiAAAiAAAiAAAiAAAiAAAiAAAg5GAIKXgz1QbAcEQAAEQAAEQAAEQAAEQAAEQAAEQAAEnJ0ABC9nfwOwfxAAARAAARAAARAAARAAARAAARAAARBwMAIQvBzsgWI7IAACIAACIAACIAACIAACIAACIAACIODsBCB4OfsbgP2DAAiAAAiAAAiAAAiAAAiAAAiAAAiAgIMRgODlYA8U2wEBEAABEAABEAABEAABEAABEAABEAABZycAwcvZ3wDsHwRAAARAAARAAARAAARAAARAAARAAAQcjAAELwd7oNgOCIAACIAACIAACIAACIAACIAACIAACDg7AQhezv4GYP8gAAIgAAIgAAIgAAIgAAIgAAIgAAIg4GAEIHg52APFdkAABEAABEAABEAABEAABEAABEAABEDA2QlA8HL2NwD7BwEQAAEQAAEQAAEQAAEQAAEQAAEQAAEHIwDBy8EeKLYDAiAAAiAAAiAAAiAAAiAAAiAAAiAAAs5OAIKXs78B2D8IgAAIgAAIgAAIgAAIgAAIgAAIgAAIOBgBCF4O9kCxHRAAARAAARAAARAAARAAARAAARAAARBwdgIQvJz9DcD+QQAEQAAEQAAEQAAEQAAEQAAEQAAEQMDBCEDwcrAHiu2AAAiAAAiAAAiAAAiAAAiAAAiAAAiAgLMTgODl7G8A9g8CIAACIAACIAACIAACIAACIAACIAACDkYgtoPtB9sBgWhP4OnTZzRt1j/qPvLkykmVK34V7feEDYAACIAACNiGwMHDR2n7zt3qYI0a1KV0ab1tM7ANRzl/4SItXbGabt66TQ8ePKQHDx9Rvry5acr4UTacBUOBAAiAAAiAAAiAQPAEIHgFzwetUZTAp3cf6cOb9+rqYieKSzFjh99YMeDJG3r3IkDuOH6KhBTHJa4sR1Rm6l8zafaceep006ZOiqhpo808/v6v6LPyv1gxY1LChAmjzbodfaGPnzyht2/eqttMlSolxYoVy9G3jP2BQKQQcE3sQtNmBv5HkStX/ejPXydEyjosTTph8lT6fdrMIM0sfCGBAAiAAAiAAAiAQEQSgOAVkbQxl80IHBywmU6O36OOV3JqDcresXCYxn5x+Qnt77uBbm++Su9fmsQuHqzImEqUp0/JMI0b1puuXvOTYlfunNmpTKkSYR3KIe97/vwFFSwRaPGWKFFCOn5gp0PuMzpuqk2HrnTm7Hl16csWzqGc2X2j4zai3ZqPHj9JFy9ephu3bqlrT+HmRlkyZ6R8eXIT/41Ym2w1jrXzoV/YCWTLmoWqVq5A6zZspq3bd9K+A4eoWJFCYR/Qhnf6Xb+hE7v4Haz4VVny8HCnDD7pbDgThgIBEAABEAABEACBkAlA8AqZEXpEQQKfP302rUqTNVWGnHt24REtzDYl5I4R2GP0eNN6enTtRDFixIjA2W0/1fETp4hFPE4F8ucNt+vNp0+f1LHwDxBwdgLsKjZo6Ajas++ARRSXTh+22CYabDWOGM9WV1t/d9hqXeEdx1b76tKhrSp48XpGjJ5Ayxf/q1q9hnd94b3/xKnTcgi35Mlpy7rloRJe5c3IgAAIgAAIgAAIgIANCEDwsgFEDBE9CRzst1EuPE7ieJSjU2FK5O1KMWIGikwpi6eV7RGRuXjpivpf63mu9D5pqWTxohExrV3n4Bgu8xcuUecYOfzHcAtedl0sBgeBaEIgIOAdderam85fvBSuFdtqnHAtwsLNjvrdYat9sRVfmVLFaceuvep7sHvPfrVsAWeEVV+54ifnql61EsQuSQMZEAABEAABEACByCAAwSsyqGPOcBNwL+RFmZrkVsdJkjVF6Mf7/Jn8VgS6X/HNdfa1pWQ5PEI/jg3vWLR0hRytoRKIGCkogfgJ4lPtGtXo0+dP5JIoUdAOqAEBJyCwZt0GndjF1qBlShanNGk86fbtu7Rm/Ub6979FIZKw1TghToQOdiFQp1YNVfDiwf9btCRKCF7+r/zlXj3cw/DvZnk3MiAAAiAAAiAAAiAQfgIQvMLPECNEAoFMjXMRf8KaXt9/JW9l667IFrtev35Ni5Yul2uqXqWSzCNjIpAgfnwaN2qYqQI5EHBCAucumCy7Bg/sS80aN5QUkri6UnbfrNRTEcFCSrYaJ6R50G4fAuXLlpIDb966g+7cvUeeqVPJusjIfNKEG4gfP15kLAFzggAIgAAIgAAIgIAkEFPmkAEBJyLAJzKKlDC1i8hG2nXn7n306tVrdf4C+fJQauWUu/CkFy9fEn9skZ4+fSbXZovxosIYb96+Jd7XZ8XSzxaJTx9j97Cwpo8fP9L9Bw/o0eMnxPmokt6/f6/+iA7P3ngvfNhAeN7Hl/7+dPfefbuwefbsOfHz+xiK+HD83vCplPzM3r0L+3MP63PWnnaXxsvTcBhrTsm01TiGC4iClbzfN29M3/1RcImhWlKCBAlUi1dxEwexRwIBEAABEAABEAABEDARgIWXiQVyUZjAkaHb6OmZB4Yr9G1XkLwqZDRsE5UXZx+jy/NOiiIFPHsr888vPqa1lf6WZZHxbV+I0tfPLop2vR48fESOX6hgfpkPTYZP62K3yGPHT6k/xvleDhqcJ3dOqlOzmnqql6XxDhw6Qr//FXiMfMkSRenrerVpym9/0a49e+ma3w31tmxZMlOxooWoW+cOFuOyfNexK334YBJsjp88Jaec+ucMWr12gyyLTN3a1XU/2kQ9Xy9dvkq//P6Xtkrm2aVxxLBBshxS5vKVq/Tn9NnEQZXFnvgEMT5NsFSJYtTm22YUO7bxV+LbgAA1ZhIHzU+guFX+PmU87T94mJatXEM7du6RvJlR5w7fUZVK5UNajnrP7Dnzabkyxr37+nc7VUoPqli+rPIpF+Gnr3FMoBWr19K58xeJmYnE71K1KhWoccMGlDlTBlFt8Xr9xk3VrW6XEltIjMP7ali/DnVq34YsCTIsPJ0+fZZ27t5LW5R3Wpz8KCbKkT0b+Sqn1DVuWJ9y58ohqi1en794QT36DCR+dmz9NHn8SJX3tJn/0JLlK3ViLr8HHdu2IqO/QRb9likx6dhV0Dx2Fr9HZUqWoPLlShPHLbK0N4uLDGVDxozp5R2nFFZlS4ftNFlbjSMXE46Mrb87eCn8dztz9lw6ePgo8XeR+I8KHCMxX9481L1LB8P/uMBieK/+g9R3hsfpoLwTRQsX5GyQxO/rkOGjiIP/cypSuIDyDrWW/eyxLzm4kimQP4/698p1/J3E32NIIAACIAACIAACIAACgQSMf92BDghEMQK3N12he3sChRfzpXmWTR+i4PXs/CO6pYxhKRm1eVUMXkSzNFZY6nfv3S9vy5Mrp8xbk2ErnHGTfqWZf/8bpDtbobAQxp/GB+rTgH49KX68oG4m9+7fl6e9xYkThzZs2kp8mpg28Y98/uzbf4im/zGZUnroY56x1QuLJZYS/yAUPwq1ffIrFm2W0sOHj+RJZOZ9WGSwVvBavmot9fnhR/Mh1B/ALPbxZ9uOXTRx7AjDH8DMeNeeffL+fQcOUYs2HWVZZJjP9z370Q99elDrlk1FdZDriZOnqUGTb4PUiwoWwObMW0gc4Pr4gZ2i2q5XtsAaOWYiLV620nAefpd4TfxZtXQ+sbhnKbFr1fARY4MIebyvKVP/otNnz9Ofv04wvP3I0ePU9Nt2hm1cyQIYf3idQ/7Xj5p+87XFvtzwVrHmE8+O3xk+HIKfHe/HPHE/tiRbt2Khrsnf/xXV+6a5FEp1jUqBhZS1Gzapn5w5fClDeh/zLjYt51REP5Fm/D2XWjT9hpIkcRVVVl9tNY7VE1roaI/vjguXLlP33gOk2KqdmgVv/mzYtIUmKX/z5oJhsmRJiYXVP6bNUm87r7iQrln+n/ofELTjcH6Wwv+/RUtlNb+TItljX2Jscc2V0/QfZbbv3K1aQdpbcBVzG10jw+LRaB2oAwEQAAEQAAEQAAEmAMEL70G0IMAnJsZ2iSvX+vjYXXrzwBSHSzZYyLjlTUUZGpqEpLePXtOdrSbrFW2bGCJZdr2gI+ptfWV3L2FxxGPzD63QpPGTf9OJXd5pvFQLlZgxYtCRY8fl2HxaIlu5/DRkYLDD848mkdjiJZNiTcI/+Fjk4cSiTvPWHWjdysUUK2ZM0ZViKPNxQHkWh0RiIUkICyyQGAkBWTNnEt2DXJO7JVOtr0QDuyIePnJMFK26stinFbuENQ4LBBeVH8VHjp1Qx+ErCy2b1iwN0UJHiF28J/7Byc9w45Ztcj0jx06kBvVqkWvixLJOZJhP+y49RVG9sgVeep909P7DB/Lzu06HFdHH3OpLd4ONC7ymRs3a6MQBtsbKr1jBeHt70Y2bt+j0mXNSsPz08VOwK+jcrY/azlZhxYsVVt+TTVu3Swsbfib8bhQpVCDYcbixYIF8lDG9D3l4uNOjR49VYVKwGfLTaNVF7btWLUIchzuwMNWlRx/5TnJd3jyBsQDNBV5uE+nH4SPl3xHX8d8FW07GiR1bZXLuwsUglmjiXntcyygWXZkyZlCfF+9p7MRfQvy7NlqHrcYxGjs0dbb+7mCxq0bdb3RL+KpsafW7jN8hFub5e4nZte3UnZYvnBvke7db5/Z0SLEM4+8F7ttv4BD667dJFFPznXfy1BkaPX6KnGfSuBHkky6tLNt6X3JgTSZLJv1/mLmkWGUGJ0ZrbrVL9tbtO3JcdrlEAgEQAAEQAAEQAIHIJBA7MifH3CBgLYEiYyrpuu7ruZ5OTdyrqwuukPGbXMQfkdg9clHOX9VikixuVGGBKeiz6BNR14ePHummCs3JVmwBNUNx2RGpWuWKNHbkUIobN1Ac5HhQg4aOUF0duc+CxcuoXZuWlNY7jbjF4nX671N0p35xfJiuvfqr/Vmg275jt+rCpR3APKD8j8NGEgttnFo2b0wN6tbSdg8xzz/cZv75i+zHrkaFS1WQ5ZAybGHBFkUisUgwe9qvOus0dgMd8ONwtQtboK1Zt5Fq1agqbrF4/V//XtSyWWPZfvrsOarbsLkss/tmk0YNZFlktCIgi28rF88L8jz4ue3YtUexzNslbrPrde78RTqxi12yunVprxP+mCW79A0bOdaqtbD4OXzIAOKDBjixaNCsVQc5D7sGGgle7FbKz+lb5X2pWa0yJUyYUDff+/e9VYFn1j/z1PrpswItnMQ7r+tsUBDiMlvzVa1cQYq2zJwt6jj4tzZ9UETIVWvWy6o/fpkQ5L3nRn7+8/5bHCGnh8ZQ5mOhQ7iK8t81/+2zuBiaZKtxQjOnpb62/O74edR4OQ27L06ZMFonArGb64BBw6VIPeTn0bRgzgydmMXvofqO1P5aFcZYJGMXZGG5yXHluvcZIOdhF1ujw0ZsuS85mSbD7z2L00IEZkGPgrG+1Nxq8yz/+0j8hxEePL1G/LP5ZBgQBEAABEAABEAABKwgYDLPsKIzuoAACNieAAfNFokFkNC4o8yeO1/cqrrbTBjzkxS7uIHH+nno/xTrIZPVwfRZc+Q9ljI9vu+oE7u4H4sD7Dol0h/TA919RDkqXlk00saA+m3SGJ3YxWvmeGXNm5gEz0m//iFj91jaU+WKX+nELu7HscC041y5es3wdiFScGPJ4kWDiF1cz8+NLVJCssbjvuFND5UfyCPGTJDDcAyynt06BXkP2VqlXp2atHX9CsqYIb3sb5Rhyy5+74TYxX24rmundrL7ecUqyijlz5tbdSls1KBuELGL+7PLba9uXaR7GQtppxTrs9CkNcsWUA2OtaWx1mHm/C6Yu1oKgUyMz3G6jBI/f3axZUs0eyZ2GeOYZOxCqU2duvcmfpbWJluNY+18EdVv05btOtFl2tTJOrGL18Gx3MaMGCrfIbbu27v/YJAl8uEhk8eNkvVsuXny9Fm1PFgTt4uFeXYXj6zk5pZcTv3kyVOZj8iM3/Ub1LX3D3JKFuFyatwtZQMyIAACIAACIAACIBCBBCB4RSBsTAUCRgSePHsmq5MnSybz1mT2f3Ez5L4sthiJZSxUNG9iEqr2Hwx0TQxu/NoWLJzq1Komb+MfiVH9xLOjx07K9bI1UYb0PrKszTSoW1sW2cpLtZKQNUEzzZs0Clqp1BTIn1fW37v3QOa1Ga2bD8duYzfNyExscSYSC66tWjQRRcMrv6Px4gVaEBp2UCqbNf7asE/+fLnlLeZCkmywIsPzs0uhSByDztr0zdf1FAOYjNZ2V6x+2A7KlNiNLTLTqHGTpNjFIiK7MHNi9zx23TU6bXLegsWq2zOLQSLZahwxXlS5rttoOqmQrVnTpfU2XJr5u27puZYpVVy1ihWDdFdEndlz5ums/qZMGGUYG1HcY+9r0iRJ5BRPNf8+kZV2yLCFW816ihWm8slbpDRVrF5PupvnVoSuP3+dqBO87bAEDAkCIAACIAACIAACIRKAS2OIiNABBOxLIGYMk+6sjX9lzaxXrvnJbkWLFJJ580zhQvllFQsNHMtLG4tGNioZ/gHt5eWprZL5XDmyyzxn2I2GY09F1XTrzh25NLamspSy+2ZVT55k0YATBy4PzlLHkquOe4oUcgq2PDJKWusonq/j970UkakpsRiU2MXF6Ba71l1XLDNEqvhVWdX6RZTDetXuUTsGCzTaxGKf1gpM28Z5jmXGcdb4edxTPlpxkAP/ixTwNkBkQ7yG1q1WCEpi4N4/DKIO37VSrfOCe0dEf1te+WAFPjSAEws2/8z4XRG5Y1KVWl+rdXv2HVBPIu3UrrVaFv9gayROHJydT/+01Thi/Kh0vaQcSiASu2Hzu2OePivff5w4Np1IWktQUSeubPHKhylwPC8WxH8ebbKIZLfHyP4O5O9zkWLGjCWydr3yv6s4nqN54pMvWysnRQb3d21+D8ogAAIgAAIgAAIgYC8CELzsRRbjgoCVBPhEMJFEHBZRDu7KP/6FQMP9UmjcWszvMxcaHj9+Qu7uJnFG2z+kGGLaeDH3HzyM9B972rWb57WnQoa0L26/9ipQ/OEfyVoLIvNx3VK4mVep5XhfYqdx4W2AsQhTQDmVkq3NhGUVixT84cQHFuTNnUt1Jy1WtHCEWI1oLa2sie2mLjSEf6RU3JmMEsdF0iaOj2WU2PJt4pSp0n3MqI+27pMSX8za5OmZ2tquaj+OkcQBzCf/9qdaZl79/jdUzbMYxoH9ixctRGXLlKTQWmiGaiFK579m/iNvmTD6J2mpNvqnwXJNzK2QYmlYqGCgyM2x10TyThMoZNtqHDFuVLmy8KMVYfjvX/sdENw6g7MS5Pd2wpifqVqdhrrvXLYWZNfYyE4c21Ak7b9PRJ09rmyp2qJpI+VUyE+qcHj0+AmVDbuEsyg7ZsQQKl2yuD2mxpggAAIgAAIgAAIgYDUB/a8Pq29DRxAAAVsRSJbU5I7CY7IIYC4MGM3FAYK1SevWoq3nvPkcHOvHkuBlLo6Zj+XCVkiKZRenB4rgFZXTzZu35fKSmnGWDV8yHu7u8iS+kGIhaWM/mY8TUpldTH+dOIb45D+2QNEmtjLhDwd05+fwxy/j5SmC2n62zF+/eVMOZyuLpbhx48gxQ5vhUzhbteuiu42tmby9vIhjFQnLRPEDmztaEs50g3wpBCcMG/Xnuo6KxRTHDhs36VddFyGorFi9Vq3nGF4cB8weif/WtCeU8kmRInFsNQ4WvnxV4Dq+79mf1q5YoApwfIKoSGkUhrYaR4wZla5PNMIPr4tja1krAIVkpeWZOhUVVIREDl4vEsc1jApJ+32VPKnpP6DYc21swTXohz5yCl7D9z36ylMt+YCT3VvWkYtLItkHGRAAARAAARAAARCIaAIQvCKaOOYDATMC5sLTnbv3DAOZm90WxPXM/9UrSpLE1bybWuY2bXJ1Tawt6vIcmyW49PGjySonceKId8ELbm3mbe6KJZZwLfT31zMw76tl5Opq332x+DZl/Ci61fOOcirgdjp2/BTt2L1HZz3C6/66aSvau30D8T7slbQCkPYABXvNF9y4AQHvqEuPfrILxwLq37s7FSyQj1go1KZuvX6Qsay09cHlWTgzHye4/qKNY+O1/+5b+qZhPdq77yDt2rNPcbc8JgVS0Y9P+2ThlOM+2TrdunNXDsmuiSzAadPggf2kyx2/O30HDKa/fptE9x6YYsmlUSy8bDWOdu6okk9i9r02fPAAmwnGfJqrVuziPfcbOIRWLZlPIYnp9uTDlr7iO47nMf/3iT3n1o7N31HjRg2ncpVrqdVsfXzqzFkqFoyrvfZ+5EEABEAABEAABEDAHgRi2mNQjAkCIGA9AY7bxJYIIgUXS0b04au5uPU4mNO5zE/uShnMSXLBufbwvFoXOD7FLConrYveI8WNM7jEp4yJlDpVKpG16zWNEivt2+ZNaPL4kXR033ZavnAuVatcUTfngkVLdWWjAh8gwNY/2o+17rHaQP63NaKK0Tz2ruOTLcWPdxanpv8+RXXNMxKptJZp9l6XGJ9P92OrHrbk2rh6KW3fuIo6tW8jmtWrvU4vffkyeCGaLWnYclAkFmdm/j2XVq5eJ6oogxJvz1bjyEGjUIZFQG3MteC+E0OzbHaTZDHTPPHfGLu3amNomfexd/nc+YtyCv6byZDBR5YjOsPfZ+yuLdJd5T/eIIEACIAACIAACIBAZBKA4BWZ9DE3CHwhUKJ4EcnixKnTMh9SJlPGDLLLBYMAwqLx/AVTcGF2lTO3DhH9+MqCliUrL/MA0Ck9jGM1ifFix44lshRgIaaV7GCHjJeXKV7T2XMXLM7Abl7aeGiRIeSxqx7H8GLxSxtY/eJlUxBuSxtgS7DGLdvqPosVixRrEosgInHsrI8fP4pihF8vKAHqRSpTsoRFd7TXr1+rrp+ib2RdvZR4YBzQfOzIYXIJ585bfs9kpzBkMqQ3PadTp88ansbIhy8MHthXjj56/BSa9iXuV4WvyhB/X9hqHDmJnTJh/e7ImiWTXNElK/52ZGcLGf5e6NrTZHVYr3YN2rx2mey9dftOmvnPv7IcUias+7I07qnTZ2RTiaJFKDzu1nKgcGR80qWVd1v694jsgAwIgAAIgAAIgAAI2JkABC87A8bwIGANgcJfAkxz3/0HD1tzi9onh2822ZfjPllKCxabfqDlUtzEQkobN2017LJ67QZZz8JZSK48WvcadtWM6JQ5U0Y5JcdZsuSyt2zlGtmPM8FZwOk62qmQP18eOTKLO/ZMOTXvA8ekWvElDpQ957Q0tjYW18dPloU3cVKhpXEiuj5PrhxySq1wKittkGFxjS14OLEV3Jx//zMctek3XxOLW+apZ9fOapWtxjEf39blsH538KEQIrG1XXhFl0HDRkirVrYe+3FAX0qX1psmKkHsRRo9bjIdPX5SFIO9hnVflgY9eOiobCqmHJ4Q2cma+JORvUbMDwIgAAIgAAIg4DwEIHg5z7PGTqMwgZLFi8ofs+zSeM3vulWr/bZFY9mP75u/cIksiwyLVOIUQK5r3bKpaLJ45ZO2zAUqdvmbMXuuvIdjGhm5mskOSoYDPYu0ZNkqev7CFEBb1NvzyieoCZGA5/l59PggFkzsrvT7tJlyGV07tSM+mc9eiQPVz1uw2CILFn2Wrlgtp9da8clKG2ayZs5EjRrUlSMOGzlWjVMlKzQZfifadupOl69c1dTaLpsxQ3o52AZFdL1x85Ysiwyfbql9XqLeXteLl64Q/z0Ed9qfCBbPa7BXzCK2AKxdo5rc5s+jJ9CmLdtlWWT4b7Jt65aiqF7T+6RVrLsC2dpqHN0EdiiE9bujaeOGxCfJcmLx8cehI+jFy5eGK+S/tY2bt6rvtJFQ+Z/iTrxqzXp575QJo+T3SY1qlYkPCxCpU9fepD0tUdSbX8O6L/NxuMzfpxu3bJNNlSuWl3lkQAAEQAAEQAAEQAAEiP4PHm9RzxwQklEAAAAASUVORK5CYII=;" vertex="1" parent="1">
          <mxGeometry x="90" y="820" width="307.43" height="70" as="geometry" />
        </mxCell>
        <mxCell id="XgqLP4rqvhBCR10PbByP-19" value="&lt;b&gt;&lt;span style=&quot;background-color: rgb(255, 0, 128);&quot;&gt;&amp;lt;&lt;/span&gt;div&lt;/b&gt; &lt;span style=&quot;background-color: rgb(213, 232, 212);&quot;&gt;id=&quot;app&quot; class=&#39;container&#39;&lt;/span&gt;&lt;span style=&quot;background-color: rgb(255, 217, 102);&quot;&gt;&amp;gt;&lt;/span&gt;\n&amp;nbsp; &lt;span style=&quot;background-color: rgb(102, 255, 102);&quot;&gt;&amp;lt;&lt;/span&gt;div @click=&quot;clickHandler&quot;&amp;gt;\n&amp;nbsp; &amp;nbsp; before\n&amp;nbsp; &amp;nbsp; &amp;lt;span v-if=&quot;showSpan&quot;&amp;gt;span tag&amp;lt;/span&amp;gt;\n&amp;nbsp; &amp;nbsp; &amp;lt;div v-for=&quot;item in items&quot;&amp;gt;\n&amp;nbsp; &amp;nbsp; &amp;nbsp; &amp;lt;span&amp;gt; {{ item }}&amp;lt;/span&amp;gt;\n&amp;nbsp; &amp;nbsp; &amp;lt;/div&amp;gt;\n&amp;nbsp; &amp;lt;/div&amp;gt;\n&amp;lt;/div&amp;gt;" style="text;html=1;strokeColor=none;fillColor=none;align=center;verticalAlign=middle;whiteSpace=wrap;rounded=0;fontColor=default;" vertex="1" parent="1">
          <mxGeometry x="90" y="710" width="1130" height="100" as="geometry" />
        </mxCell>
        <mxCell id="XgqLP4rqvhBCR10PbByP-20" value="" style="endArrow=classic;html=1;rounded=0;fontColor=default;" edge="1" parent="1">
          <mxGeometry width="50" height="50" relative="1" as="geometry">
            <mxPoint x="274" y="816" as="sourcePoint" />
            <mxPoint x="274" y="766" as="targetPoint" />
          </mxGeometry>
        </mxCell>
        <mxCell id="XgqLP4rqvhBCR10PbByP-21" value="" style="endArrow=classic;html=1;rounded=0;fontColor=default;" edge="1" parent="1">
          <mxGeometry width="50" height="50" relative="1" as="geometry">
            <mxPoint x="291" y="816" as="sourcePoint" />
            <mxPoint x="291" y="766" as="targetPoint" />
          </mxGeometry>
        </mxCell>
        <mxCell id="XgqLP4rqvhBCR10PbByP-22" value="" style="endArrow=classic;html=1;rounded=0;fontColor=default;" edge="1" parent="1">
          <mxGeometry width="50" height="50" relative="1" as="geometry">
            <mxPoint x="749" y="1026" as="sourcePoint" />
            <mxPoint x="749" y="976" as="targetPoint" />
          </mxGeometry>
        </mxCell>
        <mxCell id="XgqLP4rqvhBCR10PbByP-23" value="&lt;span&gt;&lt;span style=&quot;&quot;&gt;&amp;lt;&lt;/span&gt;div&lt;/span&gt; &lt;span style=&quot;&quot;&gt;id=&quot;app&quot; class=&#39;container&#39;&lt;/span&gt;&lt;span style=&quot;&quot;&gt;&amp;gt;&lt;/span&gt;\n&amp;nbsp; &amp;lt;div @click=&quot;clickHandler&quot;&amp;gt;\n&amp;nbsp; &amp;nbsp; before\n&amp;nbsp; &amp;nbsp; &amp;lt;span v-if=&quot;showSpan&quot;&amp;gt;span tag&amp;lt;/span&amp;gt;\n&amp;nbsp; &amp;nbsp; &amp;lt;div v-for=&quot;item in items&quot;&amp;gt;\n&amp;nbsp; &amp;nbsp; &amp;nbsp; &amp;lt;span&amp;gt; {{ item }}&amp;lt;/span&amp;gt;\n&amp;nbsp; &amp;nbsp; &amp;lt;/div&amp;gt;\n&amp;nbsp; &amp;lt;/div&amp;gt;\n&amp;lt;/div&amp;gt;" style="text;html=1;strokeColor=none;fillColor=none;align=center;verticalAlign=middle;whiteSpace=wrap;rounded=0;fontColor=default;labelBackgroundColor=none;fontStyle=0" vertex="1" parent="1">
          <mxGeometry x="90" y="440" width="1150" height="40" as="geometry" />
        </mxCell>
      </root>
    </mxGraphModel>
  </diagram>
</mxfile>
